SplineFontDB: 3.2
FontName: SeriousShanns
FullName: Serious Shanns
FamilyName: Serious Shanns
Weight: Book
Copyright: https://github.com/kaBeech/serious-shanns/blob/main/LICENSE
Version: 4.0.0
ItalicAngle: 0
UnderlinePosition: 0
UnderlineWidth: 0
Ascent: 800
Descent: 200
InvalidEm: 0
sfntRevision: 0x00003333
LayerCount: 2
Layer: 0 0 "Back" 1
Layer: 1 0 "Fore" 0
XUID: [1021 45 630387186 12505762]
StyleMap: 0x0040
FSType: 4
OS2Version: 3
OS2_WeightWidthSlopeOnly: 0
OS2_UseTypoMetrics: 0
CreationTime: 1532631502
ModificationTime: 1718144360
PfmFamily: 81
TTFWeight: 400
TTFWidth: 5
LineGap: 0
VLineGap: 0
Panose: 0 0 0 0 0 0 0 0 0 0
OS2TypoAscent: 613
OS2TypoAOffset: 0
OS2TypoDescent: -188
OS2TypoDOffset: 0
OS2TypoLinegap: 98
OS2WinAscent: 778
OS2WinAOffset: 0
OS2WinDescent: 308
OS2WinDOffset: 0
HheadAscent: 796
HheadAOffset: 0
HheadDescent: -317
HheadDOffset: 0
OS2SubXSize: 317
OS2SubYSize: 293
OS2SubXOff: 0
OS2SubYOff: 37
OS2SupXSize: 317
OS2SupYSize: 293
OS2SupXOff: 0
OS2SupYOff: 171
OS2StrikeYSize: 0
OS2StrikeYPos: 132
OS2CapHeight: 576
OS2XHeight: 485
OS2Vendor: 'NONE'
OS2CodePages: 00000001.00000000
OS2UnicodeRanges: 00000001.00000000.00000000.00000000
MarkAttachClasses: 1
DEI: 91125
LangName: 1033 "" "" "Normal" "FontForge 2.0 : Serious Shanns : 11-6-2024" "" "Version 0.2.0"
Encoding: UnicodeBmp
UnicodeInterp: none
NameList: AGL For New Fonts
DisplaySize: -48
AntiAlias: 1
FitToEm: 0
WinInfo: 64 16 11
BeginPrivate: 8
BlueValues 32 [-40 -6 502 523 708 718 765 769]
OtherBlues 11 [-297 -287]
BlueScale 9 0.0291667
BlueShift 1 2
StdHW 4 [85]
StdVW 4 [96]
StemSnapH 7 [65 85]
StemSnapV 4 [96]
EndPrivate
BeginChars: 65537 96

StartChar: .notdef
Encoding: 65536 -1 0
Width: 543
GlyphClass: 1
Flags: W
LayerCount: 2
Fore
SplineSet
58 -268 m 1
 58 749 l 1
 486 749 l 1
 486 -268 l 1
 58 -268 l 1
111 -214 m 1
 432 -214 l 1
 432 695 l 1
 111 695 l 1
 111 -214 l 1
EndSplineSet
EndChar

StartChar: exclam
Encoding: 33 33 1
Width: 543
GlyphClass: 2
Flags: MW
HStem: -24.5727 153.613
VStem: 189.997 164.001 230.997 92.3857
LayerCount: 2
Fore
SplineSet
331 738 m 0xa0
 331 732 329.498046875 688.16796875 326.498046875 606.500976562 c 0
 324.420898438 549.961914062 323.3828125 500.692382812 323.3828125 458.692382812 c 0
 323.3828125 440.026367188 323.587890625 422.795898438 323.998046875 407.000976562 c 0
 324.6640625 382.000976562 324.997070312 362.04296875 324.997070312 347.125976562 c 0
 324.997070312 332.208984375 324.6640625 322.333984375 323.997070312 317.5 c 0
 323.108398438 311.056640625 322.6640625 302.022460938 322.6640625 290.397460938 c 0
 322.6640625 284.580078125 322.775390625 278.114257812 322.998046875 271 c 0
 321.665039062 256.333007812 315.998046875 244.833007812 305.998046875 236.5 c 0
 296.739257812 228.784179688 285.765625 224.926757812 273.078125 224.926757812 c 0
 272.0625 224.926757812 271.036132812 224.951171875 269.999023438 225.000976562 c 0
 256.666015625 225.000976562 245.666015625 229.333984375 236.999023438 238.000976562 c 0
 229.487304688 245.512695312 225.731445312 256.029296875 225.731445312 269.55078125 c 0
 225.731445312 271.629882812 225.8203125 273.780273438 225.998046875 276.001953125 c 0
 226.665039062 286.001953125 227.665039062 295.668945312 228.998046875 305.001953125 c 0
 230.331054688 314.334960938 231.1640625 322.16796875 231.497070312 328.500976562 c 0
 231.830078125 334.833984375 232.330078125 349.833984375 232.997070312 373.500976562 c 0
 233.1640625 379.41796875 233.247070312 385.762695312 233.247070312 392.534179688 c 0
 233.247070312 412.846679688 232.497070312 437.001953125 230.997070312 465.000976562 c 0
 230.330078125 491.000976562 229.830078125 518.500976562 229.497070312 547.500976562 c 0
 229.385742188 557.158203125 229.330078125 566.279296875 229.330078125 574.864257812 c 0
 229.330078125 592.059570312 229.552734375 607.10546875 229.998046875 620 c 0
 230.665039062 639.333007812 231.33203125 661.333007812 231.999023438 686 c 0
 232.666015625 710.666992188 232.999023438 727 232.999023438 735 c 0
 233.666015625 753 238.833007812 766.666992188 248.5 776 c 0
 258.166992188 785.333007812 270 790 284 790 c 0
 285 790.047851562 285.986328125 790.071289062 286.959960938 790.071289062 c 0
 299.60546875 790.071289062 309.952148438 786.047851562 318 778 c 0
 326.666992188 769.333007812 331 756 331 738 c 0xa0
273.998046875 -23.9990234375 m 0
 270.47265625 -24.3798828125 267.0390625 -24.5703125 263.697265625 -24.5703125 c 0
 243.658203125 -24.5703125 226.924804688 -17.7158203125 213.497070312 -4.0029296875 c 0
 197.830078125 11.9970703125 189.997070312 31.330078125 189.997070312 53.9970703125 c 0
 189.997070312 73.9970703125 198.830078125 91.330078125 216.497070312 105.997070312 c 0
 234.1640625 120.6640625 253.331054688 128.331054688 273.998046875 128.998046875 c 0
 275.03515625 129.02734375 276.064453125 129.041992188 277.0859375 129.041992188 c 0
 299.02734375 129.041992188 317.165039062 122.194335938 331.498046875 108.499023438 c 0
 346.498046875 94.166015625 353.998046875 76.3330078125 353.998046875 55 c 0xc0
 353.998046875 33.6669921875 346.665039062 15.833984375 331.998046875 1.5009765625 c 0
 317.331054688 -12.83203125 297.998046875 -21.33203125 273.998046875 -23.9990234375 c 0
EndSplineSet
EndChar

StartChar: quotedbl
Encoding: 34 34 2
Width: 543
GlyphClass: 2
Flags: MW
VStem: 142.571 101.426 300.523 103.475
LayerCount: 2
Fore
SplineSet
245 738 m 0
 245.221679688 728.908203125 245.33203125 717.880859375 245.33203125 704.916015625 c 0
 245.33203125 678.904296875 244.885742188 645.09765625 243.99609375 603.498046875 c 0
 242.663085938 541.165039062 240.330078125 498.33203125 236.997070312 474.999023438 c 0
 234.997070312 461.666015625 229.330078125 451.666015625 219.997070312 444.999023438 c 0
 211.512695312 438.938476562 202.202148438 435.908203125 192.065429688 435.908203125 c 0
 191.051757812 435.908203125 190.029296875 435.938476562 188.999023438 435.999023438 c 0
 175.666015625 436.666015625 163.833007812 440.833007812 153.5 448.5 c 0
 144.34765625 455.291015625 139.771484375 464.565429688 139.771484375 476.32421875 c 0
 139.771484375 480.546875 142.571289062 511.731445312 142.571289062 589.744140625 c 0
 142.571289062 596.965820312 142.547851562 604.383789062 142.5 611.999023438 c 0
 142.166992188 665.33203125 141 709.33203125 139 743.999023438 c 0
 138.333007812 751.999023438 139.833007812 758.83203125 143.5 764.499023438 c 0
 147.166992188 770.166015625 152 774.333007812 158 777 c 0
 164 779.666992188 170.166992188 781.5 176.5 782.5 c 0
 182.833007812 783.5 189 783.666992188 195 783 c 0
 201 783 206.666992188 782.333007812 212 781 c 0
 217.333007812 779.666992188 222.5 777.5 227.5 774.5 c 0
 232.5 771.5 236.666992188 766.833007812 240 760.5 c 0
 243.333007812 754.166992188 245 746.666992188 245 738 c 0
404.99609375 737.997070312 m 0
 405.21875 728.875976562 405.329101562 717.805664062 405.329101562 704.786132812 c 0
 405.329101562 678.791015625 404.885742188 645.026367188 403.998046875 603.495117188 c 0
 402.665039062 541.162109375 400.665039062 498.329101562 397.998046875 474.99609375 c 0
 395.998046875 461.663085938 390.165039062 451.663085938 380.498046875 444.99609375 c 0
 371.709960938 438.935546875 362.508789062 435.905273438 352.89453125 435.905273438 c 0
 351.932617188 435.905273438 350.966796875 435.935546875 349.997070312 435.99609375 c 0
 336.6640625 436.663085938 324.6640625 440.830078125 313.997070312 448.497070312 c 0
 305.014648438 454.953125 300.5234375 463.654296875 300.5234375 474.6015625 c 0
 300.5234375 476.654296875 300.681640625 478.786132812 300.997070312 480.997070312 c 0
 302.497070312 506.49609375 303.247070312 537.432617188 303.247070312 573.805664062 c 0
 303.247070312 585.931640625 303.1640625 598.662109375 302.997070312 611.99609375 c 0
 302.330078125 665.329101562 300.997070312 709.329101562 298.997070312 743.99609375 c 0
 298.997070312 751.99609375 300.830078125 758.829101562 304.497070312 764.49609375 c 0
 308.1640625 770.163085938 312.997070312 774.330078125 318.997070312 776.997070312 c 0
 324.997070312 779.6640625 330.997070312 781.497070312 336.997070312 782.497070312 c 0
 342.997070312 783.497070312 348.997070312 783.6640625 354.997070312 782.997070312 c 0
 360.997070312 782.997070312 366.6640625 782.330078125 371.997070312 780.997070312 c 0
 377.330078125 779.6640625 382.663085938 777.497070312 387.99609375 774.497070312 c 0
 393.329101562 771.497070312 397.49609375 766.830078125 400.49609375 760.497070312 c 0
 403.49609375 754.1640625 404.99609375 746.6640625 404.99609375 737.997070312 c 0
EndSplineSet
EndChar

StartChar: numbersign
Encoding: 35 35 3
Width: 543
GlyphClass: 2
Flags: MW
HStem: 192 82 445 84 697.667 20G
LayerCount: 2
Fore
SplineSet
158 42 m 0
 153.333007812 28 143.665039062 16.4990234375 128.998046875 7.4990234375 c 0
 118.84375 1.2685546875 109.168945312 -1.8466796875 99.9736328125 -1.8466796875 c 0
 95.88671875 -1.8466796875 91.89453125 -1.2314453125 87.9970703125 -0.0009765625 c 0
 75.330078125 2.666015625 65.9970703125 11.166015625 59.9970703125 25.4990234375 c 0
 56.8203125 33.0869140625 55.232421875 41.095703125 55.232421875 49.5244140625 c 0
 55.232421875 57.0166015625 56.4873046875 64.8408203125 58.9970703125 72.998046875 c 0
 64.330078125 90.998046875 73.6630859375 129.665039062 86.99609375 188.998046875 c 1
 56.99609375 188.998046875 l 2
 40.3291015625 188.998046875 27.662109375 192.331054688 18.9951171875 198.998046875 c 0
 6.25 208.801757812 5.91796875 221.170898438 5.91796875 228.732421875 c 0
 5.91796875 239.524414062 9.6103515625 248.61328125 16.9951171875 255.998046875 c 0
 24.9951171875 263.998046875 37.662109375 268.665039062 54.9951171875 269.998046875 c 0
 60.328125 269.998046875 68.4951171875 270.165039062 79.4951171875 270.498046875 c 0
 90.4951171875 270.831054688 98.662109375 270.998046875 103.995117188 270.998046875 c 1
 137.995117188 443.998046875 l 1
 132.662109375 443.998046875 125.329101562 443.831054688 115.99609375 443.498046875 c 0
 106.663085938 443.165039062 100.330078125 442.998046875 96.9970703125 442.998046875 c 0
 95.6630859375 442.944335938 94.353515625 442.91796875 93.068359375 442.91796875 c 0
 78.2998046875 442.91796875 66.7763671875 446.444335938 58.4970703125 453.498046875 c 0
 45.240234375 464.791015625 44.9248046875 477.244140625 44.9248046875 484.541992188 c 0
 44.9248046875 495.44140625 48.9482421875 504.759765625 56.99609375 512.497070312 c 0
 65.6630859375 520.830078125 78.6630859375 525.330078125 95.99609375 525.997070312 c 0
 108.663085938 526.6640625 127.99609375 526.997070312 153.99609375 526.997070312 c 1
 172.663085938 627.6640625 182.330078125 679.6640625 182.997070312 682.997070312 c 0
 188.330078125 699.6640625 196.663085938 711.331054688 207.99609375 717.998046875 c 0
 215.551757812 722.443359375 223.255859375 724.666015625 231.108398438 724.666015625 c 0
 235.034179688 724.666015625 238.997070312 724.110351562 242.997070312 722.999023438 c 0
 256.997070312 720.33203125 267.830078125 713.665039062 275.497070312 702.998046875 c 0
 280.840820312 695.563476562 283.512695312 686.509765625 283.512695312 675.836914062 c 0
 283.512695312 671.197265625 283.0078125 666.250976562 281.998046875 660.999023438 c 2
 254.998046875 528.999023438 l 1
 367.998046875 528.999023438 l 1
 394.998046875 674.999023438 l 2
 400.331054688 692.33203125 408.498046875 704.33203125 419.498046875 710.999023438 c 0
 426.83203125 715.444335938 434.684570312 717.666992188 443.055664062 717.666992188 c 0
 447.240234375 717.666992188 451.5546875 717.111328125 455.999023438 716 c 0
 470.666015625 713.333007812 481.666015625 706.666015625 488.999023438 695.999023438 c 0
 493.744140625 689.096679688 496.1171875 680.798828125 496.1171875 671.10546875 c 0
 496.1171875 665.818359375 495.411132812 660.116210938 493.999023438 653.999023438 c 0
 486.666015625 625.999023438 478.333007812 584.999023438 469 530.999023438 c 1
 480 530.999023438 l 2
 496 530.999023438 509.5 526.499023438 520.5 517.499023438 c 0
 531.5 508.499023438 537.333007812 498.999023438 538 488.999023438 c 0
 538 476.999023438 534 466.83203125 526 458.499023438 c 0
 518 450.166015625 505.666992188 445.666015625 489 444.999023438 c 2
 453 444.999023438 l 1
 424 273.999023438 l 1
 465 273.999023438 l 2
 480.333007812 273.999023438 491 270.499023438 497 263.499023438 c 0
 503 256.499023438 506.333007812 247.33203125 507 235.999023438 c 0
 507 206.666015625 493 191.999023438 465 191.999023438 c 2
 409 191.999023438 l 1
 395.666992188 115.999023438 386 64.666015625 380 37.9990234375 c 0
 374.666992188 23.9990234375 365.166992188 13.166015625 351.5 5.4990234375 c 0
 342.518554688 0.4609375 333.609375 -2.0576171875 324.772460938 -2.0576171875 c 0
 320.162109375 -2.0576171875 315.571289062 -1.3720703125 311 -0.0009765625 c 0
 298.333007812 2.666015625 289 10.4990234375 283 23.4990234375 c 0
 279.823242188 30.380859375 278.235351562 37.77734375 278.235351562 45.6875 c 0
 278.235351562 52.71875 279.490234375 60.15625 282 68 c 0
 288.666992188 94.6669921875 297.333984375 135.666992188 308.000976562 191 c 1
 294.000976562 191 273.66796875 190.833007812 247.000976562 190.5 c 0
 220.333984375 190.166992188 200.666992188 190 188 190 c 1
 174 118 164 68.6669921875 158 42 c 0
238.999023438 444.999023438 m 1
 204 273.998046875 l 1
 231.333007812 274.665039062 270.666015625 274.998046875 321.999023438 274.998046875 c 1
 332.666015625 329.665039062 342.999023438 386.33203125 352.999023438 444.999023438 c 1
 238.999023438 444.999023438 l 1
EndSplineSet
EndChar

StartChar: dollar
Encoding: 36 36 4
Width: 543
GlyphClass: 2
Flags: MW
HStem: -28.9932 84.9932 642.998 79.002
VStem: 45.999 92.001 233.999 87.001 424.001 92.999
LayerCount: 2
Fore
SplineSet
314 -99 m 0
 312.666992188 -113.666992188 307 -124.993164062 297 -132.993164062 c 0
 287 -140.993164062 275.333007812 -144.993164062 262 -144.993164062 c 0
 249.333007812 -144.993164062 239.833007812 -140.493164062 233.5 -131.493164062 c 0
 228.268554688 -124.05859375 225.65234375 -114.0078125 225.65234375 -101.340820312 c 0
 225.65234375 -98.6748046875 225.768554688 -95.892578125 226 -92.994140625 c 0
 226.888671875 -82.330078125 227.333007812 -69.296875 227.333007812 -53.89453125 c 0
 227.333007812 -46.1875 227.221679688 -37.8876953125 226.999023438 -28.994140625 c 1
 223.999023438 -28.994140625 l 2
 199.999023438 -28.994140625 177.499023438 -25.994140625 156.499023438 -19.994140625 c 0
 135.499023438 -13.994140625 117.499023438 -5.994140625 102.499023438 4.005859375 c 0
 87.4990234375 14.005859375 74.4990234375 24.6728515625 63.4990234375 36.005859375 c 0
 52.4990234375 47.3388671875 43.666015625 59.671875 36.9990234375 73.0048828125 c 0
 30.9990234375 86.5048828125 27.9990234375 98.1298828125 27.9990234375 107.879882812 c 0
 27.9990234375 111.129882812 28.33203125 114.171875 28.9990234375 117.004882812 c 0
 31.666015625 128.337890625 38.666015625 136.670898438 49.9990234375 142.00390625 c 0
 57.9990234375 145.336914062 64.33203125 147.669921875 68.9990234375 149.002929688 c 0
 73.666015625 150.3359375 78.8330078125 150.668945312 84.5 150.001953125 c 0
 90.1669921875 149.334960938 95.6669921875 146.66796875 101 142.000976562 c 0
 106.333007812 137.333984375 112 130.666992188 118 122 c 0
 131.333007812 101.333007812 146.666015625 85.166015625 163.999023438 73.4990234375 c 0
 181.33203125 61.83203125 202.33203125 55.9990234375 226.999023438 55.9990234375 c 2
 230.999023438 55.9990234375 l 1
 232.33203125 167.33203125 232.999023438 266.665039062 232.999023438 353.998046875 c 1
 229.666015625 353.998046875 223.833007812 354.665039062 215.5 355.998046875 c 0
 207.166992188 357.331054688 201 357.998046875 197 357.998046875 c 0
 173 360.665039062 151 366.998046875 131 376.998046875 c 0
 111 386.998046875 95.1669921875 399.165039062 83.5 413.498046875 c 0
 71.8330078125 427.831054688 62.666015625 442.831054688 55.9990234375 458.498046875 c 0
 49.33203125 474.165039062 45.9990234375 489.998046875 45.9990234375 505.998046875 c 0
 45.9990234375 529.998046875 49.666015625 552.998046875 56.9990234375 574.998046875 c 0
 64.33203125 596.998046875 75.4990234375 617.498046875 90.4990234375 636.498046875 c 0
 105.499023438 655.498046875 124.999023438 671.831054688 148.999023438 685.498046875 c 0
 172.999023438 699.165039062 201.33203125 708.665039062 233.999023438 713.998046875 c 1
 234.666015625 729.998046875 234.999023438 749.331054688 234.999023438 771.998046875 c 0
 235.666015625 808.665039062 249.333007812 826.998046875 276 826.998046875 c 0
 276.555664062 827.010742188 277.106445312 827.016601562 277.65234375 827.016601562 c 0
 306.55078125 827.016601562 321 809.677734375 321 774.999023438 c 2
 321 721.999023438 l 1
 335.666992188 721.33203125 356.166992188 717.999023438 382.5 711.999023438 c 0
 408.833007812 705.999023438 428.333007812 700.33203125 441 694.999023438 c 0
 453.666992188 690.33203125 462.666992188 682.999023438 468 672.999023438 c 0
 472.266601562 664.999023438 474.399414062 656.572265625 474.399414062 647.71875 c 0
 474.399414062 645.505859375 474.266601562 643.266601562 474 641 c 0
 473.333007812 633 470.833007812 626.833007812 466.5 622.5 c 0
 462.166992188 618.166992188 456.833984375 615.5 450.500976562 614.5 c 0
 444.16796875 613.5 438.16796875 613.333007812 432.500976562 614 c 0
 426.833984375 614.666992188 420.666992188 615.666992188 414 617 c 0
 408 618.333007812 400.5 621.166015625 391.5 625.499023438 c 0
 382.5 629.83203125 372.333007812 633.665039062 361 636.998046875 c 0
 349.666992188 640.331054688 336 642.331054688 320 642.998046875 c 1
 319.333007812 589.665039062 318 518.998046875 316 430.998046875 c 1
 346.666992188 426.998046875 374 419.831054688 398 409.498046875 c 0
 422 399.165039062 441.166992188 387.33203125 455.5 373.999023438 c 0
 469.833007812 360.666015625 482 345.333007812 492 328 c 0
 502 310.666992188 508.666992188 293.666992188 512 277 c 0
 515.333007812 260.333007812 517 243 517 225 c 0
 517 194.333007812 511.833007812 165.333007812 501.5 138 c 0
 491.166992188 110.666992188 476.666992188 87 458 67 c 0
 439.333007812 47 417.666015625 29.6669921875 392.999023438 15 c 0
 368.33203125 0.3330078125 341.33203125 -10.6669921875 311.999023438 -18 c 1
 312.666015625 -58 313.333007812 -85 314 -99 c 0
138 531.006835938 m 0
 138 509.673828125 146.500976562 491.006835938 163.500976562 475.006835938 c 0
 180.500976562 459.006835938 203.66796875 447.673828125 233.000976562 441.006835938 c 1
 233.66796875 487.006835938 234.000976562 551.006835938 234.000976562 633.006835938 c 1
 205.333984375 624.33984375 182.166992188 611.33984375 164.5 594.006835938 c 0
 146.833007812 576.673828125 138 555.673828125 138 531.006835938 c 0
424.000976562 208.006835938 m 0
 424.000976562 220.673828125 422.33203125 232.340820312 418.999023438 243.0078125 c 0
 415.666015625 253.674804688 410.333007812 264.841796875 403 276.508789062 c 0
 395.666992188 288.17578125 384.666992188 299.008789062 370 309.008789062 c 0
 355.333007812 319.008789062 337 327.67578125 315 335.008789062 c 1
 315 305.67578125 314.833007812 261.508789062 314.5 202.508789062 c 0
 314.166992188 143.508789062 313.333984375 100.67578125 312.000976562 74.0087890625 c 1
 344.000976562 87.341796875 370.66796875 105.674804688 392.000976562 129.0078125 c 0
 413.333984375 152.340820312 424.000976562 178.673828125 424.000976562 208.006835938 c 0
EndSplineSet
EndChar

StartChar: percent
Encoding: 37 37 5
Width: 543
GlyphClass: 2
Flags: MW
HStem: -28.0313 75.9731 170.999 74 432 75<140.001 148.334 140.001 151> 632 73
VStem: 13.001 71.919 193.063 70.301 280.931 71.992 399.999 88.8789 459.018 71.7321
LayerCount: 2
Fore
SplineSet
129 432 m 0xfe
 105.666992188 432 84.833984375 438.5 66.5009765625 451.5 c 0
 48.16796875 464.5 34.66796875 480.833007812 26.0009765625 500.5 c 0
 17.333984375 520.166992188 13.0009765625 541.333984375 13.0009765625 564.000976562 c 0
 13.0009765625 605.333984375 24.5009765625 639.166992188 47.5009765625 665.5 c 0
 70.5009765625 691.833007812 103.000976562 705 145.000976562 705 c 0
 161.66796875 705 177.16796875 702.166992188 191.500976562 696.5 c 0
 205.833984375 690.833007812 218.666992188 682.333007812 230 671 c 0
 241.333007812 659.666992188 250 644.166992188 256 624.5 c 0
 260.909179688 608.408203125 263.36328125 590.197265625 263.36328125 569.866210938 c 0
 263.36328125 565.348632812 263.2421875 560.7265625 263 556 c 0
 261 515.333007812 249.166992188 484.5 227.5 463.5 c 0
 205.833007812 442.5 173 432 129 432 c 0xfe
38 19 m 0
 52 47.6669921875 85.16796875 107.833984375 137.500976562 199.500976562 c 0
 189.833984375 291.16796875 242.166992188 383.66796875 294.5 477.000976562 c 0
 346.833007812 570.333984375 382 637.000976562 400 677.000976562 c 0
 408 689.000976562 418.5 696.500976562 431.5 699.500976562 c 0
 435.534179688 700.431640625 439.48828125 700.897460938 443.362304688 700.897460938 c 0
 451.970703125 700.897460938 460.18359375 698.598632812 467.999023438 694.000976562 c 0
 474.669921875 691.036132812 488.877929688 683.4609375 488.877929688 665.655273438 c 0xff
 488.877929688 656.331054688 484.918945312 645.446289062 477 633.001953125 c 0
 452.333007812 592.334960938 393.5 488.66796875 300.5 322.000976562 c 0
 207.5 155.333984375 146 42.6669921875 116 -16 c 0
 103.200195312 -39.630859375 88.7646484375 -51.4462890625 72.693359375 -51.4462890625 c 0
 67.0009765625 -51.4462890625 61.103515625 -49.9638671875 55.0009765625 -47 c 0
 38.0693359375 -38.95703125 29.603515625 -27.15234375 29.603515625 -11.5849609375 c 0
 29.603515625 -2.6337890625 32.40234375 7.5615234375 38 19 c 0
140.000976562 507 m 0
 156.66796875 507 169.166992188 512.333007812 177.5 523 c 0
 189.970703125 538.962890625 193.063476562 561.026367188 193.063476562 570.180664062 c 0
 193.063476562 590.727539062 188.375976562 606.000976562 179.000976562 616.000976562 c 0
 169.000976562 626.66796875 155.000976562 632.000976562 137.000976562 632.000976562 c 0
 121.000976562 632.000976562 108.66796875 626.16796875 100.000976562 614.500976562 c 0
 97.0830078125 610.572265625 84.9208984375 592.4140625 84.9208984375 562.6015625 c 0
 84.9208984375 546.06640625 88.447265625 533.19921875 95.5009765625 524 c 0
 103.16796875 514 118.000976562 508.333007812 140.000976562 507 c 0
396 -28 m 0
 372.666992188 -28 352 -21.5 334 -8.5 c 0
 316 4.5 302.5 20.8330078125 293.5 40.5 c 0
 285.12109375 58.810546875 280.930664062 78.4208984375 280.930664062 99.3310546875 c 0
 280.930664062 122.313476562 282.106445312 167.287109375 315 205.5 c 0
 337.666992188 231.833007812 370 245 412 245 c 0
 428.666992188 245 444.166992188 242.333007812 458.5 237 c 0
 472.833007812 231.666992188 485.833007812 223.166992188 497.5 211.5 c 0
 509.166992188 199.833007812 518 184.166015625 524 164.499023438 c 0
 528.5 149.749023438 530.75 133.217773438 530.75 114.905273438 c 0xfe80
 530.75 108.80078125 530.5 102.499023438 530 95.9990234375 c 0
 528 55.33203125 516.166992188 24.33203125 494.5 2.9990234375 c 0
 473.490234375 -17.6875 441.98046875 -28.0302734375 399.970703125 -28.0302734375 c 0
 398.657226562 -28.0302734375 397.333984375 -28.0205078125 396 -28 c 0
407 48 m 0
 407.915039062 47.9619140625 408.81640625 47.9443359375 409.70703125 47.9443359375 c 0
 424.397460938 47.9443359375 435.828125 53.1298828125 444 63.5009765625 c 0
 445.374023438 65.2451171875 459.017578125 83.193359375 459.017578125 108.302734375 c 0
 459.017578125 150.1015625 441.01171875 171.000976562 405 171.000976562 c 0
 389.666992188 171.000976562 377.5 165.16796875 368.5 153.500976562 c 0
 365.3515625 149.418945312 352.922851562 131.494140625 352.922851562 102.913085938 c 0
 352.922851562 86.8427734375 356.615234375 74.0380859375 364 64.5 c 0
 372 54.1669921875 386.333007812 48.6669921875 407 48 c 0
EndSplineSet
EndChar

StartChar: ampersand
Encoding: 38 38 6
Width: 543
GlyphClass: 2
Flags: MW
HStem: -41.998 93.998 -40.3768 21G 645.001 79
VStem: 13.0029 100.997 100.002 95.998 334 83.002
LayerCount: 2
Fore
SplineSet
497 -35 m 0xac
 491.133789062 -38.5849609375 484.91015625 -40.3779296875 478.327148438 -40.3779296875 c 0x6c
 471.443359375 -40.3779296875 464.16796875 -38.41796875 456.5 -34.4990234375 c 0
 441.5 -26.83203125 428.333007812 -13.6650390625 417 5.001953125 c 0
 415.666992188 8.3349609375 411.833984375 18.3349609375 405.500976562 35.001953125 c 0
 399.16796875 51.6689453125 394.334960938 63.6689453125 391.001953125 71.001953125 c 1
 389.001953125 68.3349609375 384.668945312 62.66796875 378.001953125 54.0009765625 c 0
 371.334960938 45.333984375 366.334960938 39.0009765625 363.001953125 35.0009765625 c 0
 359.668945312 31.0009765625 354.3359375 25.0009765625 347.002929688 17.0009765625 c 0
 339.669921875 9.0009765625 333.169921875 2.833984375 327.502929688 -1.4990234375 c 0
 321.8359375 -5.83203125 314.502929688 -10.9990234375 305.502929688 -16.9990234375 c 0
 296.502929688 -22.9990234375 287.8359375 -27.4990234375 279.502929688 -30.4990234375 c 0
 271.169921875 -33.4990234375 261.169921875 -36.166015625 249.502929688 -38.4990234375 c 0
 237.8359375 -40.83203125 226.002929688 -41.9990234375 214.002929688 -41.9990234375 c 0
 176.669921875 -41.9990234375 142.502929688 -32.33203125 111.502929688 -12.9990234375 c 0
 80.5029296875 6.333984375 56.3359375 31.6669921875 39.0029296875 63 c 0
 21.669921875 94.3330078125 13.0029296875 128.333007812 13.0029296875 165 c 0xb4
 13.0029296875 291 65.0029296875 376.666992188 169.002929688 422 c 1
 163.002929688 432 155.8359375 444 147.502929688 458 c 0
 139.169921875 472 133.002929688 481.833007812 129.002929688 487.5 c 0
 125.002929688 493.166992188 120.669921875 500.5 116.002929688 509.5 c 0
 111.3359375 518.5 108.168945312 526.333007812 106.501953125 533 c 0
 104.834960938 539.666992188 103.334960938 547.833984375 102.001953125 557.500976562 c 0
 100.668945312 567.16796875 100.001953125 577.66796875 100.001953125 589.000976562 c 0
 100.001953125 601.000976562 101.501953125 612.833984375 104.501953125 624.500976562 c 0
 107.501953125 636.16796875 113.168945312 648.16796875 121.501953125 660.500976562 c 0
 129.834960938 672.833984375 139.501953125 683.666992188 150.501953125 693 c 0
 161.501953125 702.333007812 176.501953125 709.833007812 195.501953125 715.5 c 0
 214.501953125 721.166992188 236.001953125 724 260.001953125 724 c 0
 279.334960938 724 298.334960938 721 317.001953125 715 c 0
 335.668945312 709 352.501953125 700.166992188 367.501953125 688.5 c 0
 382.501953125 676.833007812 394.501953125 661.5 403.501953125 642.5 c 0
 412.501953125 623.5 417.001953125 602.333007812 417.001953125 579 c 0
 417.001953125 557.666992188 414.334960938 537.833984375 409.001953125 519.500976562 c 0
 403.668945312 501.16796875 396.8359375 485.834960938 388.502929688 473.501953125 c 0
 380.169921875 461.168945312 369.669921875 449.3359375 357.002929688 438.002929688 c 0
 344.3359375 426.669921875 332.668945312 417.669921875 322.001953125 411.002929688 c 0
 311.334960938 404.3359375 299.001953125 397.668945312 285.001953125 391.001953125 c 1
 297.001953125 370.334960938 317.334960938 339.66796875 346.001953125 299.000976562 c 0
 374.668945312 258.333984375 393.001953125 231.333984375 401.001953125 218.000976562 c 1
 405.668945312 227.333984375 411.001953125 238.166992188 417.001953125 250.5 c 0
 423.001953125 262.833007812 427.501953125 272.833007812 430.501953125 280.5 c 0
 433.501953125 288.166992188 436.334960938 293.666992188 439.001953125 297 c 0
 451.001953125 314.333007812 462.501953125 325.166015625 473.501953125 329.499023438 c 0
 477.834960938 331.206054688 482.296875 332.059570312 486.888671875 332.059570312 c 0
 493.953125 332.059570312 501.32421875 330.0390625 509.001953125 325.998046875 c 0
 520.334960938 320.665039062 527.16796875 310.83203125 529.500976562 296.499023438 c 0
 529.99609375 293.458984375 530.243164062 290.336914062 530.243164062 287.131835938 c 0
 530.243164062 275.225585938 526.829101562 262.181640625 520 247.999023438 c 0
 516.666992188 241.999023438 506.666992188 228.666015625 490 207.999023438 c 0
 473.333007812 187.33203125 460 168.33203125 450 150.999023438 c 1
 457.333007812 138.33203125 467.5 120.165039062 480.5 96.498046875 c 0
 493.5 72.8310546875 501.333007812 58.998046875 504 54.998046875 c 0
 512.108398438 42.025390625 516.162109375 27.9560546875 516.162109375 12.7919921875 c 0
 516.162109375 9.25390625 515.94140625 5.65625 515.5 1.9990234375 c 0
 513.166992188 -17.333984375 507 -29.6669921875 497 -35 c 0xac
196.000976562 572 m 0
 196.000976562 555.333007812 200.333984375 537 209.000976562 517 c 0
 217.66796875 497 228.334960938 479.333007812 241.001953125 464 c 1
 255.668945312 468.666992188 268.168945312 473.5 278.501953125 478.5 c 0
 288.834960938 483.5 298.66796875 490 308.000976562 498 c 0
 317.333984375 506 324.000976562 515.833007812 328.000976562 527.5 c 0
 332.000976562 539.166992188 334.000976562 553 334.000976562 569 c 0
 334.000976562 593.666992188 326.500976562 612.5 311.500976562 625.5 c 0
 296.500976562 638.5 278.333984375 645 257.000976562 645 c 0
 216.333984375 645 196.000976562 620.666992188 196.000976562 572 c 0
114.000976562 174 m 0xb4
 114.000976562 139.333007812 123.33203125 110.33203125 141.999023438 86.9990234375 c 0
 160.666015625 63.666015625 184.999023438 51.9990234375 214.999023438 51.9990234375 c 0
 224.33203125 51.9990234375 233.499023438 52.9990234375 242.499023438 54.9990234375 c 0
 251.499023438 56.9990234375 259.166015625 58.9990234375 265.499023438 60.9990234375 c 0
 271.83203125 62.9990234375 278.499023438 66.33203125 285.499023438 70.9990234375 c 0
 292.499023438 75.666015625 297.999023438 79.4990234375 301.999023438 82.4990234375 c 0
 305.999023438 85.4990234375 310.83203125 90.166015625 316.499023438 96.4990234375 c 0
 322.166015625 102.83203125 325.833007812 107.33203125 327.5 109.999023438 c 0
 329.166992188 112.666015625 332.666992188 117.499023438 338 124.499023438 c 0
 343.333007812 131.499023438 346.333007812 135.666015625 347 136.999023438 c 0
 335 162.999023438 325 183.33203125 317 197.999023438 c 0
 309 213.33203125 292.833007812 238.33203125 268.5 272.999023438 c 0
 244.166992188 307.666015625 227 333.333007812 217 350 c 1
 197 341.333007812 179.833007812 330.5 165.5 317.5 c 0
 151.166992188 304.5 140.333984375 290.166992188 133.000976562 274.5 c 0
 125.66796875 258.833007812 120.66796875 243 118.000976562 227 c 0
 115.333984375 211 114.000976562 193.333007812 114.000976562 174 c 0xb4
EndSplineSet
EndChar

StartChar: quotesingle
Encoding: 39 39 7
Width: 543
GlyphClass: 2
Flags: MW
HStem: 445.91 325.59
VStem: 219.002 106.332
LayerCount: 2
Fore
SplineSet
325 728 m 0
 325.22265625 719.106445312 325.333984375 708.600585938 325.333984375 696.482421875 c 0
 325.333984375 672.263671875 324.889648438 641.603515625 324.000976562 604.500976562 c 0
 322.66796875 548.833984375 320.334960938 509.333984375 317.001953125 486.000976562 c 0
 315.001953125 472.000976562 309.168945312 461.66796875 299.501953125 455.000976562 c 0
 290.713867188 448.940429688 281.512695312 445.91015625 271.8984375 445.91015625 c 0
 270.936523438 445.91015625 269.970703125 445.940429688 269.000976562 446.000976562 c 0
 255.66796875 446.66796875 243.834960938 451.000976562 233.501953125 459.000976562 c 0
 224.349609375 466.086914062 219.7734375 475.526367188 219.7734375 487.319335938 c 0
 219.7734375 490.916015625 222.251953125 520.942382812 222.251953125 578.998046875 c 0
 222.251953125 589.666015625 222.168945312 600.666992188 222.001953125 612.000976562 c 0
 221.334960938 657.333984375 220.334960938 697.666992188 219.001953125 733 c 0
 219.001953125 741 220.501953125 748 223.501953125 754 c 0
 226.501953125 760 231.168945312 764.166992188 237.501953125 766.5 c 0
 243.834960938 768.833007812 250.001953125 770.5 256.001953125 771.5 c 0
 262.001953125 772.5 268.001953125 772.666992188 274.001953125 772 c 0
 280.001953125 772 285.668945312 771.333007812 291.001953125 770 c 0
 296.334960938 768.666992188 301.66796875 766.5 307.000976562 763.5 c 0
 312.333984375 760.5 316.666992188 756 320 750 c 0
 323.333007812 744 325 736.666992188 325 728 c 0
EndSplineSet
EndChar

StartChar: parenleft
Encoding: 40 40 8
Width: 543
GlyphClass: 2
Flags: MW
HStem: -130.998 83.998 733.002 81
VStem: 122.118 97.3819
LayerCount: 2
Fore
SplineSet
420 -93 m 0
 420 -103.666992188 415.66796875 -112.6640625 407.000976562 -119.997070312 c 0
 398.333984375 -127.330078125 389.333984375 -130.997070312 380.000976562 -130.997070312 c 0
 335.333984375 -130.997070312 294.833984375 -114.997070312 258.500976562 -82.9970703125 c 0
 222.16796875 -50.9970703125 192.500976562 -6.6640625 169.500976562 50.0029296875 c 0
 146.500976562 106.669921875 131.66796875 172.002929688 125.000976562 246.002929688 c 0
 123.079101562 266.04296875 122.118164062 288.569335938 122.118164062 313.58203125 c 0
 122.118164062 349.314453125 124.079101562 390.12109375 128.000976562 436.002929688 c 0
 134.66796875 514.002929688 147.66796875 578.3359375 167.000976562 629.002929688 c 0
 175.66796875 651.002929688 187.16796875 672.8359375 201.500976562 694.502929688 c 0
 215.833984375 716.169921875 232.166992188 736.002929688 250.5 754.002929688 c 0
 268.833007812 772.002929688 289.5 786.502929688 312.5 797.502929688 c 0
 335.5 808.502929688 358.333007812 814.002929688 381 814.002929688 c 0
 407.681640625 814.002929688 421.022460938 800.979492188 421.022460938 774.93359375 c 0
 421.022460938 767.493164062 420.876953125 751.90625 408.999023438 742.502929688 c 0
 400.999023438 736.169921875 390.999023438 733.002929688 378.999023438 733.002929688 c 0
 361.666015625 733.002929688 345.499023438 728.002929688 330.499023438 718.002929688 c 0
 315.499023438 708.002929688 302.33203125 694.3359375 290.999023438 677.002929688 c 0
 279.666015625 659.669921875 269.833007812 640.669921875 261.5 620.002929688 c 0
 253.166992188 599.3359375 246 577.002929688 240 553.002929688 c 0
 231.333007812 518.3359375 225.333007812 470.668945312 222 410.001953125 c 0
 220.333984375 379.66796875 219.500976562 352.16796875 219.500976562 327.500976562 c 0
 219.500976562 302.833984375 220.333984375 281.000976562 222 262.000976562 c 0
 225.333007812 221.333984375 232.5 181.833984375 243.5 143.500976562 c 0
 254.5 105.16796875 267.333007812 72.16796875 282 44.5009765625 c 0
 296.666992188 16.833984375 312.666992188 -5.3330078125 330 -22 c 0
 347.333007812 -38.6669921875 364 -47 380 -47 c 0
 393.333007812 -47 403.333007812 -50.3330078125 410 -57 c 0
 416.666992188 -63.6669921875 420 -75.6669921875 420 -93 c 0
EndSplineSet
EndChar

StartChar: parenright
Encoding: 41 41 9
Width: 543
GlyphClass: 2
Flags: MW
HStem: -131.005 84 732.998 81.002
VStem: 322.634 99.2482
LayerCount: 2
Fore
SplineSet
419 246 m 0
 411.666992188 172 396.50390625 106.662109375 373.50390625 49.9951171875 c 0
 350.50390625 -6.671875 321.00390625 -51.0048828125 285.00390625 -83.0048828125 c 0
 249.00390625 -115.004882812 208.670898438 -131.004882812 164.00390625 -131.004882812 c 0
 154.670898438 -131.004882812 145.670898438 -127.337890625 137.00390625 -120.004882812 c 0
 128.336914062 -112.671875 124.00390625 -103.671875 124.00390625 -93.0048828125 c 0
 124.00390625 -75.671875 127.50390625 -63.671875 134.50390625 -57.0048828125 c 0
 141.50390625 -50.337890625 151.336914062 -47.0048828125 164.00390625 -47.0048828125 c 0
 179.336914062 -47.0048828125 195.50390625 -38.671875 212.50390625 -22.0048828125 c 0
 229.50390625 -5.337890625 245.336914062 16.8291015625 260.00390625 44.49609375 c 0
 274.670898438 72.1630859375 287.670898438 105.330078125 299.00390625 143.997070312 c 0
 310.336914062 182.6640625 317.336914062 221.997070312 320.00390625 261.997070312 c 0
 321.7578125 281.998046875 322.634765625 305.137695312 322.634765625 331.416992188 c 0
 322.634765625 355.067382812 321.923828125 381.260742188 320.502929688 409.997070312 c 0
 317.502929688 470.6640625 311.3359375 518.331054688 302.002929688 552.998046875 c 0
 296.669921875 576.998046875 290.002929688 599.331054688 282.002929688 619.998046875 c 0
 274.002929688 640.665039062 264.169921875 659.665039062 252.502929688 676.998046875 c 0
 240.8359375 694.331054688 227.668945312 707.998046875 213.001953125 717.998046875 c 0
 198.334960938 727.998046875 182.66796875 732.998046875 166.000976562 732.998046875 c 0
 153.333984375 732.998046875 143.000976562 736.165039062 135.000976562 742.498046875 c 0
 127.000976562 748.831054688 123.000976562 758.998046875 123.000976562 772.998046875 c 0
 123.000976562 781.665039062 124.000976562 788.83203125 126.000976562 794.499023438 c 0
 128.000976562 800.166015625 131.500976562 804.333007812 136.500976562 807 c 0
 141.500976562 809.666992188 145.833984375 811.5 149.500976562 812.5 c 0
 153.16796875 813.5 157.66796875 814 163.000976562 814 c 0
 185.66796875 814 208.500976562 808.5 231.500976562 797.5 c 0
 254.500976562 786.5 275.000976562 772 293.000976562 754 c 0
 311.000976562 736 327.16796875 716.166992188 341.500976562 694.5 c 0
 355.833984375 672.833007812 367.666992188 651 377 629 c 0
 396.333007812 578.333007812 409.333007812 514 416 436 c 0
 419.921875 390.118164062 421.8828125 349.311523438 421.8828125 313.579101562 c 0
 421.8828125 288.56640625 420.921875 266.040039062 419 246 c 0
EndSplineSet
EndChar

StartChar: asterisk
Encoding: 42 42 10
Width: 543
GlyphClass: 2
Flags: MW
HStem: 292.998 103.999 306.499 76.5001
LayerCount: 2
Fore
SplineSet
219 139 m 0x40
 216.333007812 131 211.830078125 124.999023438 205.497070312 120.999023438 c 0
 199.1640625 116.999023438 192.1640625 114.666015625 184.497070312 113.999023438 c 0
 176.830078125 113.33203125 169.497070312 113.83203125 162.497070312 115.499023438 c 0
 155.497070312 117.166015625 149.330078125 119.333007812 143.997070312 122 c 0
 137.997070312 125.333007812 132.997070312 130.166015625 128.997070312 136.499023438 c 0
 124.997070312 142.83203125 122.330078125 150.665039062 120.997070312 159.998046875 c 0
 119.6640625 169.331054688 121.6640625 178.998046875 126.997070312 188.998046875 c 2
 193.997070312 297.998046875 l 1
 139.330078125 294.665039062 98.9970703125 292.998046875 72.9970703125 292.998046875 c 0
 56.9970703125 292.998046875 44.330078125 298.331054688 34.9970703125 308.998046875 c 0
 25.6640625 319.665039062 20.9970703125 330.998046875 20.9970703125 342.998046875 c 0
 20.9970703125 348.998046875 21.830078125 355.165039062 23.4970703125 361.498046875 c 0
 25.1640625 367.831054688 27.6640625 373.831054688 30.9970703125 379.498046875 c 0
 34.330078125 385.165039062 39.4970703125 389.665039062 46.4970703125 392.998046875 c 0
 53.4970703125 396.331054688 61.330078125 397.6640625 69.9970703125 396.997070312 c 0x80
 100.6640625 394.330078125 145.997070312 390.997070312 205.997070312 386.997070312 c 1
 177.330078125 435.6640625 153.663085938 472.997070312 134.99609375 498.997070312 c 0
 127.077148438 512.006835938 123.118164062 524.776367188 123.118164062 537.306640625 c 0
 123.118164062 539.544921875 123.244140625 541.775390625 123.497070312 543.998046875 c 0
 125.1640625 558.665039062 131.331054688 568.33203125 141.998046875 572.999023438 c 0
 147.998046875 576.999023438 155.498046875 579.166015625 164.498046875 579.499023438 c 0
 173.498046875 579.83203125 182.665039062 577.33203125 191.998046875 571.999023438 c 0
 201.331054688 566.666015625 208.6640625 558.666015625 213.997070312 547.999023438 c 0
 221.330078125 531.999023438 240.997070312 493.666015625 272.997070312 432.999023438 c 1
 299.6640625 478.33203125 319.6640625 516.33203125 332.997070312 546.999023438 c 0
 337.6640625 557.666015625 344.497070312 565.666015625 353.497070312 570.999023438 c 0
 362.497070312 576.33203125 371.1640625 578.83203125 379.497070312 578.499023438 c 0
 387.830078125 578.166015625 394.997070312 575.666015625 400.997070312 570.999023438 c 0
 407.6640625 567.666015625 413.1640625 562.333007812 417.497070312 555 c 0
 421.830078125 547.666992188 423.997070312 539 423.997070312 529 c 0
 423.997070312 519 420.6640625 509.333007812 413.997070312 500 c 0
 392.6640625 468.666992188 369.331054688 429.666992188 343.998046875 383 c 1
 401.998046875 383 443.331054688 386.666992188 467.998046875 394 c 0
 472.665039062 395.485351562 477.12890625 396.227539062 481.390625 396.227539062 c 0
 490.5234375 396.227539062 498.7265625 392.818359375 505.999023438 386 c 0
 516.666015625 376 522.333007812 365.333007812 523 354 c 0
 523 348 522.333007812 342 521 336 c 0
 519.666992188 330 517.333984375 324 514.000976562 318 c 0
 510.66796875 312 506.000976562 307.333007812 500.000976562 304 c 0
 494.000976562 300.666992188 486.66796875 300 478.000976562 302 c 0
 461 305 431.811523438 306.5 390.435546875 306.5 c 0
 376.64453125 306.5 361.499023438 306.333007812 345 306 c 1
 412 190 l 2
 417.974609375 177.506835938 420.961914062 166.23046875 420.961914062 156.170898438 c 0
 420.961914062 153.883789062 420.807617188 151.66015625 420.499023438 149.499023438 c 0
 418.83203125 137.83203125 413.999023438 129.33203125 405.999023438 123.999023438 c 0
 399.33203125 119.999023438 390.83203125 117.666015625 380.499023438 116.999023438 c 0
 379.20703125 116.916015625 377.915039062 116.874023438 376.623046875 116.874023438 c 2
 349.5 122.999023438 l 2
 339.166992188 127.666015625 332.666992188 135.333007812 330 146 c 0
 321.333007812 172.666992188 303.666015625 211 276.999023438 261 c 1
 245.666015625 199.666992188 226.333007812 159 219 139 c 0x40
EndSplineSet
EndChar

StartChar: plus
Encoding: 43 43 11
Width: 543
GlyphClass: 2
Flags: MW
HStem: 359.8 79.1992
VStem: 230.003 80.9971
LayerCount: 2
Fore
SplineSet
311 250 m 0
 311 234.666992188 307.670898438 223.833007812 301.00390625 217.5 c 0
 294.336914062 211.166992188 285.00390625 208 273.00390625 208 c 0
 244.336914062 208 230.00390625 222 230.00390625 250 c 2
 230.00390625 357 l 1
 216.670898438 357 198.670898438 356.833007812 176.00390625 356.5 c 0
 153.336914062 356.166992188 137.669921875 356 129.002929688 356 c 0
 112.3359375 356 100.002929688 360.166992188 92.0029296875 368.5 c 0
 80.3623046875 380.625 79.92578125 393.616210938 79.92578125 401.888671875 c 0
 79.92578125 413.296875 83.6181640625 423.000976562 91.0029296875 431.000976562 c 0
 98.431640625 439.048828125 109.595703125 443.072265625 124.49609375 443.072265625 c 0
 125.642578125 443.072265625 126.811523438 443.048828125 128.002929688 443.000976562 c 0
 174.669921875 441.66796875 208.669921875 441.000976562 230.002929688 441.000976562 c 1
 230.002929688 499.8203125 227.91796875 548.575195312 227.91796875 552.581054688 c 0
 227.91796875 578.860351562 242.279296875 592 271.002929688 592 c 0
 272.336914062 592.06640625 273.645507812 592.099609375 274.928710938 592.099609375 c 0
 286.477539062 592.099609375 296.001953125 589.399414062 303.500976562 584 c 0
 310.684570312 578.827148438 314.276367188 569.69140625 314.276367188 556.590820312 c 0
 314.276367188 554.495117188 314.184570312 552.297851562 314.000976562 549.999023438 c 0
 312.000976562 511.33203125 311.000976562 474.33203125 311.000976562 438.999023438 c 1
 421.000976562 438.999023438 l 2
 436.333984375 438.999023438 447.166992188 435.666015625 453.5 428.999023438 c 0
 459.833007812 422.33203125 463.333007812 413.33203125 464 401.999023438 c 0
 464 395.999023438 463.333007812 390.499023438 462 385.499023438 c 0
 460.666992188 380.499023438 458.666992188 375.666015625 456 370.999023438 c 0
 453.333007812 366.33203125 449 362.83203125 443 360.499023438 c 0
 437 358.166015625 429.666992188 357.333007812 421 358 c 0
 410.600585938 359.200195312 393.12109375 359.799804688 368.561523438 359.799804688 c 0
 352.1875 359.799804688 332.666992188 359.533203125 310 359 c 1
 310 341 310.166992188 319.666992188 310.5 295 c 0
 310.833007812 270.333007812 311 255.333007812 311 250 c 0
EndSplineSet
EndChar

StartChar: comma
Encoding: 44 44 12
Width: 543
GlyphClass: 2
Flags: MW
VStem: 169.499 204.501
LayerCount: 2
Fore
SplineSet
374 96 m 0
 367.333007812 63.3330078125 353 12.9990234375 331 -55.0009765625 c 0
 309 -123.000976562 292 -165.000976562 280 -181.000976562 c 0
 269.333007812 -195.000976562 255.833007812 -205.000976562 239.5 -211.000976562 c 0
 229.700195312 -214.600585938 220.80078125 -216.400390625 212.80078125 -216.400390625 c 0
 207.467773438 -216.400390625 202.534179688 -215.600585938 198.000976562 -214.000976562 c 0
 191.333984375 -212.000976562 185.166992188 -208.000976562 179.5 -202.000976562 c 0
 173.833007812 -196.000976562 170.5 -188.66796875 169.5 -180.000976562 c 0
 168.5 -171.333984375 171 -162.333984375 177 -153.000976562 c 0
 191 -133.000976562 210.333007812 -89.0009765625 235 -21.0009765625 c 0
 259.666992188 46.9990234375 274.666992188 94.33203125 280 120.999023438 c 0
 282 130.33203125 286.666992188 137.665039062 294 142.998046875 c 0
 301.333007812 148.331054688 309 150.998046875 317 150.998046875 c 0
 325 150.998046875 333 150.331054688 341 148.998046875 c 0
 351.666992188 145.665039062 360.333984375 139.33203125 367.000976562 129.999023438 c 0
 372.12890625 122.8203125 374.692382812 114.458007812 374.692382812 104.912109375 c 0
 374.692382812 102.047851562 374.461914062 99.0771484375 374 96 c 0
EndSplineSet
EndChar

StartChar: hyphen
Encoding: 45 45 13
Width: 543
GlyphClass: 2
Flags: MW
HStem: 243 87<146.667 172.333> 251 82<380.001 390.667 380.001 397.333>
VStem: 117.809 308.191
LayerCount: 2
Fore
SplineSet
159 330 m 0xa0
 197 330 242.333984375 330.5 295.000976562 331.5 c 0
 347.66796875 332.5 377.000976562 333 383.000976562 333 c 0
 398.333984375 333 409.166992188 329.5 415.5 322.5 c 0
 421.833007812 315.5 425.333007812 306.333007812 426 295 c 0
 426 265.666992188 411.666992188 251 383 251 c 0x60
 374.333007812 251 340.833007812 249.666992188 282.5 247 c 0
 224.166992188 244.333007812 183.666992188 243 161 243 c 0
 132.333007812 243 118 257.333007812 118 286 c 0
 117.872070312 287.872070312 117.80859375 289.684570312 117.80859375 291.4375 c 0
 117.80859375 317.145507812 131.5390625 330 159 330 c 0xa0
EndSplineSet
EndChar

StartChar: period
Encoding: 46 46 14
Width: 543
GlyphClass: 2
Flags: MW
HStem: -14.5617 154.604
VStem: 189.999 164.001
LayerCount: 2
Fore
SplineSet
274 -14 m 0
 270.536132812 -14.3740234375 267.161132812 -14.5615234375 263.875 -14.5615234375 c 0
 243.7578125 -14.5615234375 226.965820312 -7.5439453125 213.499023438 6.49609375 c 0
 197.83203125 22.8291015625 189.999023438 41.99609375 189.999023438 63.99609375 c 0
 189.999023438 84.6630859375 198.83203125 102.330078125 216.499023438 116.997070312 c 0
 234.166015625 131.6640625 253.333007812 139.331054688 274 139.998046875 c 0
 275.037109375 140.02734375 276.06640625 140.041992188 277.087890625 140.041992188 c 0
 299.029296875 140.041992188 317.166992188 133.194335938 331.5 119.499023438 c 0
 346.5 105.166015625 354 86.9990234375 354 64.9990234375 c 0
 354 43.666015625 346.666992188 25.8330078125 332 11.5 c 0
 317.333007812 -2.8330078125 298 -11.3330078125 274 -14 c 0
EndSplineSet
EndChar

StartChar: slash
Encoding: 47 47 15
Width: 543
GlyphClass: 2
Flags: W
LayerCount: 2
Fore
SplineSet
513 676 m 0
 495.666992188 642 447 558.49609375 367 425.49609375 c 0
 287 292.49609375 238.333007812 209.99609375 221 177.99609375 c 0
 210.333007812 157.329101562 193 122.329101562 169 72.99609375 c 0
 145 23.6630859375 130 -6.3369140625 124 -17.00390625 c 0
 113.333007812 -35.6708984375 99.8330078125 -48.6708984375 83.5 -56.00390625 c 0
 75.3330078125 -59.669921875 67.7080078125 -61.5029296875 60.625 -61.5029296875 c 0
 53.5419921875 -61.5029296875 47 -59.669921875 41 -56.0029296875 c 0
 31 -50.669921875 25 -38.3369140625 23 -19.00390625 c 0
 22.6474609375 -15.5927734375 22.470703125 -12.2333984375 22.470703125 -8.92578125 c 0
 22.470703125 6.51171875 26.314453125 20.8193359375 34.0009765625 33.99609375 c 0
 131.333984375 193.99609375 214.666992188 336.329101562 284 460.99609375 c 0
 327.333007812 537.663085938 373.333007812 624.330078125 422 720.997070312 c 0
 427.333007812 731.6640625 434.666015625 739.831054688 443.999023438 745.498046875 c 0
 453.33203125 751.165039062 462.33203125 753.83203125 470.999023438 753.499023438 c 0
 479.666015625 753.166015625 488.333007812 751.333007812 497 748 c 0
 509 742 516.666992188 732.666992188 520 720 c 0
 520.98046875 716.274414062 521.470703125 712.375976562 521.470703125 708.3046875 c 0
 521.470703125 698.533203125 518.647460938 687.764648438 513 676 c 0
EndSplineSet
EndChar

StartChar: zero
Encoding: 48 48 16
Width: 543
GlyphClass: 2
Flags: MW
HStem: -24 83.999 636.999 81.001
VStem: 36.002 95.502 411.006 96.8403
LayerCount: 2
Fore
SplineSet
250 -24 m 0
 218.666992188 -24 189.8359375 -18.33203125 163.502929688 -6.9990234375 c 0
 137.169921875 4.333984375 114.669921875 20.0009765625 96.0029296875 40.0009765625 c 0
 77.3359375 60.0009765625 62.6689453125 85.0009765625 52.001953125 115.000976562 c 0
 41.962890625 143.235351562 36.943359375 174.126953125 36.943359375 207.67578125 c 0
 36.943359375 209.7734375 36.962890625 211.881835938 37.001953125 214 c 0
 37.001953125 220.666992188 36.8349609375 237.166992188 36.501953125 263.5 c 0
 36.1689453125 289.833007812 36.001953125 310.833007812 36.001953125 326.5 c 0
 36.001953125 342.166992188 36.501953125 363.833984375 37.501953125 391.500976562 c 0
 38.501953125 419.16796875 40.3349609375 443.000976562 43.001953125 463.000976562 c 0
 45.6689453125 483.000976562 49.1689453125 504.500976562 53.501953125 527.500976562 c 0
 57.8349609375 550.500976562 63.66796875 570.66796875 71.0009765625 588.000976562 c 0
 87.0009765625 630.000976562 114.000976562 662.16796875 152.000976562 684.500976562 c 0
 190.000976562 706.833984375 236.333984375 718.000976562 291.000976562 718.000976562 c 0
 318.333984375 718.000976562 344.000976562 713.333984375 368.000976562 704.000976562 c 0
 392.000976562 694.66796875 413.333984375 681.000976562 432.000976562 663.000976562 c 0
 450.66796875 645.000976562 466.16796875 621.66796875 478.500976562 593.000976562 c 0
 490.833984375 564.333984375 498.666992188 531.333984375 502 494.000976562 c 0
 504.666992188 460.66796875 506.5 422.834960938 507.5 380.501953125 c 0
 507.73046875 370.733398438 507.845703125 360.947265625 507.845703125 351.143554688 c 0
 507.845703125 318.459960938 506.563476562 285.579101562 504 252.500976562 c 0
 500.666992188 209.500976562 496 176.66796875 490 154.000976562 c 0
 484 131.333984375 477.333007812 111.333984375 470 94.0009765625 c 0
 462.666992188 76.66796875 454.833984375 61.66796875 446.500976562 49.0009765625 c 0
 438.16796875 36.333984375 428.834960938 25.6669921875 418.501953125 17 c 0
 408.168945312 8.3330078125 397.168945312 1.3330078125 385.501953125 -4 c 0
 373.834960938 -9.3330078125 360.66796875 -13.5 346.000976562 -16.5 c 0
 331.333984375 -19.5 316.666992188 -21.5 302 -22.5 c 0
 287.333007812 -23.5 270 -24 250 -24 c 0
135.001953125 230.000976562 m 0
 135.001953125 227.333984375 135.172851562 223.333984375 135.505859375 218.000976562 c 0
 135.838867188 212.66796875 136.005859375 209.000976562 136.005859375 207.000976562 c 1
 225.338867188 329.000976562 305.671875 454.333984375 377.004882812 583.000976562 c 1
 365.004882812 600.333984375 350.337890625 613.666992188 333.004882812 623 c 0
 315.671875 632.333007812 297.004882812 637 277.004882812 637 c 0
 239.671875 637 210.504882812 626.666992188 189.504882812 606 c 0
 168.504882812 585.333007812 152.671875 552 142.004882812 506 c 0
 138.004882812 489.333007812 135.171875 469.833007812 133.504882812 447.5 c 0
 132.115234375 428.885742188 131.420898438 407.029296875 131.420898438 381.930664062 c 0
 131.420898438 376.916992188 131.448242188 371.7734375 131.50390625 366.500976562 c 0
 131.836914062 334.833984375 132.169921875 312.500976562 132.502929688 299.500976562 c 0
 132.8359375 286.500976562 133.668945312 263.333984375 135.001953125 230.000976562 c 0
396.005859375 168.000976562 m 0
 398.672851562 176.000976562 401.505859375 198 404.505859375 234 c 0
 407.505859375 270 409.672851562 311.166992188 411.005859375 357.5 c 0
 411.38671875 370.736328125 411.577148438 383.823242188 411.577148438 396.760742188 c 0
 411.577148438 429.109375 410.38671875 460.522460938 408.005859375 491 c 1
 336.672851562 344.333007812 252.672851562 221.333007812 156.005859375 122 c 1
 174.005859375 80.6669921875 205.338867188 60 250.005859375 60 c 0
 268.005859375 60 284.172851562 61.5 298.505859375 64.5 c 0
 312.838867188 67.5 326.505859375 72.8330078125 339.505859375 80.5 c 0
 352.505859375 88.1669921875 363.505859375 99.333984375 372.505859375 114.000976562 c 0
 381.505859375 128.66796875 389.338867188 146.66796875 396.005859375 168.000976562 c 0
EndSplineSet
EndChar

StartChar: one
Encoding: 49 49 17
Width: 543
GlyphClass: 2
Flags: MW
HStem: -9 85.5 -5 89<65.002 88.002 65.002 88.002> 511.539 21G
VStem: 224.335 96.6644 234.001 91.498
LayerCount: 2
Fore
SplineSet
515.080078125 34.8388671875 m 0xb0
 515.080078125 22.892578125 511.5546875 12.779296875 504.501953125 4.5 c 0
 496.834960938 -4.5 483.334960938 -9 464.001953125 -9 c 0xb0
 455.334960938 -9 395.834960938 -8.3330078125 285.501953125 -7 c 0
 175.168945312 -5.6669921875 104.001953125 -5 72.001953125 -5 c 0
 57.3349609375 -5 46.501953125 -1 39.501953125 7 c 0
 32.501953125 15 29.001953125 25.3330078125 29.001953125 38 c 0
 28.9443359375 39.16015625 28.9150390625 40.302734375 28.9150390625 41.4267578125 c 0
 28.9150390625 53.2294921875 32.111328125 63.0869140625 38.501953125 71 c 0
 45.501953125 79.6669921875 57.001953125 84 73.001953125 84 c 0
 103.001953125 84 154.001953125 83.6669921875 226.001953125 83 c 1
 226.001953125 109.666992188 225.668945312 131 225.001953125 147 c 0
 224.556640625 150.556640625 224.333984375 159.600585938 224.333984375 174.131835938 c 0x70
 224.333984375 181.38671875 224.389648438 190.009765625 224.500976562 200 c 0
 224.833984375 230 225.000976562 251.666992188 225.000976562 265 c 0
 225.000976562 278.333007812 225.66796875 303 227.000976562 339 c 0
 228.333984375 375 229.333984375 401.833007812 230.000976562 419.5 c 0
 230.66796875 437.166992188 232.000976562 465.166992188 234.000976562 503.5 c 0
 236.000976562 541.833007812 237.333984375 570 238.000976562 588 c 1
 188.66796875 546.666992188 152.66796875 522 130.000976562 514 c 0
 125.8984375 512.359375 121.780273438 511.5390625 117.646484375 511.5390625 c 0
 108.344726562 511.5390625 98.962890625 515.692382812 89.5009765625 524 c 0
 76.4697265625 535.44140625 69.9541015625 546.8828125 69.9541015625 558.32421875 c 0
 69.9541015625 558.8828125 69.9697265625 559.44140625 70.0009765625 560 c 0
 70.0009765625 570.666992188 72.333984375 580.166992188 77.0009765625 588.5 c 0
 81.66796875 596.833007812 90.0009765625 605.333007812 102.000976562 614 c 0
 121.333984375 628.666992188 141.666992188 644.833984375 163 662.500976562 c 0
 184.333007812 680.16796875 199.666015625 693.000976562 208.999023438 701.000976562 c 0
 218.33203125 709.000976562 227.999023438 715.833984375 237.999023438 721.500976562 c 0
 247.999023438 727.16796875 256.666015625 730.000976562 263.999023438 730.000976562 c 0
 277.999023438 730.000976562 292.666015625 724.000976562 307.999023438 712.000976562 c 0
 323.33203125 700.000976562 330.999023438 690.000976562 330.999023438 682.000976562 c 0
 330.999023438 666.66796875 329.166015625 612.16796875 325.499023438 518.500976562 c 0x68
 321.83203125 424.833984375 319.999023438 370.000976562 319.999023438 354.000976562 c 0
 319.999023438 287.333984375 320.33203125 231.666992188 320.999023438 187 c 0
 320.999023438 162.333007812 321.666015625 126.333007812 322.999023438 79 c 1
 342.33203125 79 362.665039062 78.6669921875 383.998046875 78 c 0
 405.331054688 77.3330078125 422.831054688 76.8330078125 436.498046875 76.5 c 0
 450.165039062 76.1669921875 459.998046875 76 465.998046875 76 c 0
 484.665039062 76 497.33203125 72.5 503.999023438 65.5 c 0
 509.423828125 59.8046875 515.080078125 50.1865234375 515.080078125 34.8388671875 c 0xb0
EndSplineSet
EndChar

StartChar: two
Encoding: 50 50 18
Width: 543
GlyphClass: 2
Flags: MW
HStem: -18.0049 84.0049 -14.0059 91.0059 637.997 83.999
VStem: 39.002 99.9971 392.001 98.9971
LayerCount: 2
Fore
SplineSet
472 -12 m 0x78
 444 -12 409.169921875 -12.6728515625 367.502929688 -14.005859375 c 0x78
 325.8359375 -15.3388671875 289.002929688 -16.671875 257.002929688 -18.0048828125 c 0
 225.002929688 -19.337890625 192.169921875 -20.0048828125 158.502929688 -20.0048828125 c 0
 124.8359375 -20.0048828125 98.6689453125 -18.671875 80.001953125 -16.0048828125 c 0
 65.3349609375 -14.671875 54.8349609375 -5.671875 48.501953125 10.9951171875 c 0
 42.1689453125 27.662109375 39.001953125 51.662109375 39.001953125 82.9951171875 c 0
 39.001953125 111.662109375 45.1689453125 141.829101562 57.501953125 173.49609375 c 0
 69.8349609375 205.163085938 88.001953125 235.49609375 112.001953125 264.49609375 c 0
 136.001953125 293.49609375 164.001953125 316.99609375 196.001953125 334.99609375 c 0
 267.334960938 374.99609375 313.334960938 402.99609375 334.001953125 418.99609375 c 0
 361.334960938 440.329101562 378.66796875 462.99609375 386.000976562 486.99609375 c 0
 390.000976562 500.99609375 392.000976562 518.329101562 392.000976562 538.99609375 c 0
 392.000976562 573.663085938 381.833984375 598.830078125 361.500976562 614.497070312 c 0
 341.16796875 630.1640625 312.334960938 637.997070312 275.001953125 637.997070312 c 0
 249.001953125 637.997070312 224.168945312 629.997070312 200.501953125 613.997070312 c 0
 176.834960938 597.997070312 158.66796875 580.330078125 146.000976562 560.997070312 c 0
 140.000976562 552.330078125 134.333984375 545.497070312 129.000976562 540.497070312 c 0
 123.66796875 535.497070312 118.000976562 532.6640625 112.000976562 531.997070312 c 0
 106.000976562 531.330078125 100.66796875 531.663085938 96.0009765625 532.99609375 c 0
 91.333984375 534.329101562 85.0009765625 536.662109375 77.0009765625 539.995117188 c 0
 65.66796875 545.995117188 58.66796875 554.662109375 56.0009765625 565.995117188 c 0
 55.333984375 568.828125 55.0009765625 571.870117188 55.0009765625 575.120117188 c 0
 55.0009765625 584.870117188 58.0009765625 596.495117188 64.0009765625 609.995117188 c 0
 70.66796875 622.662109375 80.66796875 635.329101562 94.0009765625 647.99609375 c 0
 107.333984375 660.663085938 122.666992188 672.663085938 140 683.99609375 c 0
 157.333007812 695.329101562 177.666015625 704.49609375 200.999023438 711.49609375 c 0
 224.33203125 718.49609375 247.665039062 721.99609375 270.998046875 721.99609375 c 0
 342.998046875 721.99609375 397.665039062 705.329101562 434.998046875 671.99609375 c 0
 472.331054688 638.663085938 490.998046875 588.663085938 490.998046875 521.99609375 c 0
 490.998046875 466.663085938 476.998046875 422.330078125 448.998046875 388.997070312 c 0
 428.331054688 364.330078125 390.998046875 336.997070312 336.998046875 306.997070312 c 0
 323.665039062 298.997070312 300.665039062 286.6640625 267.998046875 269.997070312 c 0
 239.331054688 254.6640625 215.331054688 235.831054688 195.998046875 213.498046875 c 0
 176.665039062 191.165039062 162.83203125 168.33203125 154.499023438 144.999023438 c 0
 146.166015625 121.666015625 140.999023438 96.3330078125 138.999023438 69 c 1
 176.33203125 67 212.33203125 66 246.999023438 66 c 0xb8
 281.666015625 66 308.666015625 66.5 327.999023438 67.5 c 0
 347.33203125 68.5 369.665039062 70 394.998046875 72 c 0
 420.331054688 74 436.998046875 75.3330078125 444.998046875 76 c 0
 445.665039062 76 448.83203125 76.1669921875 454.499023438 76.5 c 0
 460.166015625 76.8330078125 463.999023438 77 465.999023438 77 c 2
 475.999023438 77 l 2
 480.666015625 77 484.166015625 76.3330078125 486.499023438 75 c 0
 488.83203125 73.6669921875 491.499023438 72 494.499023438 70 c 0
 497.499023438 68 499.83203125 65.3330078125 501.499023438 62 c 0
 503.166015625 58.6669921875 504.333007812 54.6669921875 505 50 c 0
 505.666992188 42 505.333984375 33.5 504.000976562 24.5 c 0
 502.66796875 15.5 499.16796875 7.1669921875 493.500976562 -0.5 c 0
 487.833984375 -8.1669921875 480.666992188 -12 472 -12 c 0x78
EndSplineSet
EndChar

StartChar: three
Encoding: 51 51 19
Width: 543
GlyphClass: 2
Flags: MW
HStem: -23.9941 84 318.006 100 638.006 83.998
VStem: 379.02 99.0491 401.002 99.998
LayerCount: 2
Fore
SplineSet
501 199 m 0xe8
 501 130.333007812 479.830078125 76.0078125 437.497070312 36.0078125 c 0
 395.1640625 -3.9921875 335.6640625 -23.9921875 258.997070312 -23.9921875 c 0
 235.6640625 -23.9921875 212.331054688 -20.4921875 188.998046875 -13.4921875 c 0
 165.665039062 -6.4921875 145.498046875 2.5078125 128.498046875 13.5078125 c 0
 111.498046875 24.5078125 96.3310546875 36.5078125 82.998046875 49.5078125 c 0
 69.6650390625 62.5078125 59.33203125 75.3408203125 51.9990234375 88.0078125 c 0
 45.9990234375 99.5078125 42.9990234375 110.2578125 42.9990234375 120.2578125 c 0
 42.9990234375 123.590820312 43.33203125 126.840820312 43.9990234375 130.0078125 c 0
 46.666015625 142.674804688 53.9990234375 151.674804688 65.9990234375 157.0078125 c 0
 75.1943359375 161.60546875 83.755859375 163.904296875 91.6826171875 163.904296875 c 0
 95.25 163.904296875 98.689453125 163.438476562 102 162.5078125 c 0
 112.666992188 159.5078125 123.333984375 151.0078125 134.000976562 137.0078125 c 0
 148.66796875 117.0078125 167.334960938 99.1748046875 190.001953125 83.5078125 c 0
 212.668945312 67.8408203125 237.001953125 60.0078125 263.001953125 60.0078125 c 0
 303.001953125 60.0078125 336.001953125 71.3408203125 362.001953125 94.0078125 c 0
 388.001953125 116.674804688 401.001953125 146.0078125 401.001953125 182.0078125 c 0xe8
 401.001953125 204.0078125 397.668945312 223.0078125 391.001953125 239.0078125 c 0
 384.334960938 255.0078125 373.66796875 269.0078125 359.000976562 281.0078125 c 0
 344.333984375 293.0078125 324.166992188 302.174804688 298.5 308.5078125 c 0
 272.833007812 314.840820312 243 318.0078125 209 318.0078125 c 0
 195 318.0078125 182.833007812 323.5078125 172.5 334.5078125 c 0
 162.166992188 345.5078125 157 357.674804688 157 371.0078125 c 0
 157 385.0078125 160.666992188 396.340820312 168 405.0078125 c 0
 175.333007812 413.674804688 186 418.0078125 200 418.0078125 c 0
 256 418.0078125 300 429.174804688 332 451.5078125 c 0
 363.346679688 473.384765625 379.020507812 505.017578125 379.020507812 546.407226562 c 0
 379.020507812 547.26953125 379.013671875 548.13671875 379 549.0078125 c 0
 379.01953125 549.903320312 379.029296875 550.791992188 379.029296875 551.673828125 c 0
 379.029296875 580.333984375 368.51953125 601.778320312 347.5 616.006835938 c 0
 325.833007812 630.673828125 294.666015625 638.006835938 253.999023438 638.006835938 c 0
 245.999023438 638.006835938 238.166015625 637.173828125 230.499023438 635.506835938 c 0
 222.83203125 633.83984375 216.665039062 632.172851562 211.998046875 630.505859375 c 0
 207.331054688 628.838867188 202.331054688 626.005859375 196.998046875 622.005859375 c 0
 191.665039062 618.005859375 187.165039062 614.672851562 183.498046875 612.005859375 c 0
 179.831054688 609.338867188 175.831054688 605.005859375 171.498046875 599.005859375 c 0
 167.165039062 593.005859375 163.83203125 588.838867188 161.499023438 586.505859375 c 0
 159.166015625 584.172851562 155.999023438 579.33984375 151.999023438 572.006835938 c 0
 141.33203125 557.33984375 130.499023438 548.672851562 119.499023438 546.005859375 c 0
 116.356445312 545.244140625 113.118164062 544.86328125 109.784179688 544.86328125 c 0
 101.451171875 544.86328125 92.5224609375 547.244140625 82.9990234375 552.005859375 c 0
 71.666015625 557.338867188 64.8330078125 566.171875 62.5 578.504882812 c 0
 61.8955078125 581.702148438 61.5927734375 585.044921875 61.5927734375 588.533203125 c 0
 61.5927734375 598.500976562 64.0625 609.658203125 69.0009765625 622.004882812 c 0
 75.66796875 635.337890625 84.3349609375 647.504882812 95.001953125 658.504882812 c 0
 105.668945312 669.504882812 118.001953125 680.004882812 132.001953125 690.004882812 c 0
 146.001953125 700.004882812 163.168945312 707.837890625 183.501953125 713.504882812 c 0
 203.834960938 719.171875 225.66796875 722.004882812 249.000976562 722.004882812 c 0
 325.66796875 722.004882812 383.334960938 706.004882812 422.001953125 674.004882812 c 0
 459.379882812 643.071289062 478.069335938 597.809570312 478.069335938 538.21875 c 0xf0
 478.069335938 536.1640625 478.046875 534.092773438 478.002929688 532.00390625 c 0
 478.002929688 512.670898438 475.502929688 495.170898438 470.502929688 479.50390625 c 0
 465.502929688 463.836914062 458.669921875 450.50390625 450.002929688 439.50390625 c 0
 441.3359375 428.50390625 430.668945312 418.836914062 418.001953125 410.50390625 c 0
 405.334960938 402.170898438 392.501953125 395.670898438 379.501953125 391.00390625 c 0
 366.501953125 386.336914062 352.668945312 382.669921875 338.001953125 380.002929688 c 1
 365.334960938 374.002929688 388.66796875 366.669921875 408.000976562 358.002929688 c 0
 427.333984375 349.3359375 444.166992188 338.168945312 458.5 324.501953125 c 0
 472.833007812 310.834960938 483.5 293.66796875 490.5 273.000976562 c 0
 497.5 252.333984375 501 227.666992188 501 199 c 0xe8
EndSplineSet
EndChar

StartChar: four
Encoding: 52 52 20
Width: 543
GlyphClass: 2
Flags: MW
HStem: -23.001 21G 224.234 80.335
VStem: 339.003 87.4971 346.002 88.998 346.002 97.0561
LayerCount: 2
Fore
SplineSet
441 55 m 0xd0
 442.372070312 47.68359375 443.057617188 40.71875 443.057617188 34.107421875 c 0
 443.057617188 21.4423828125 440.540039062 10.072265625 435.502929688 -0.001953125 c 0
 427.8359375 -15.3349609375 416.668945312 -23.001953125 402.001953125 -23.001953125 c 0
 389.334960938 -23.001953125 377.001953125 -18.1689453125 365.001953125 -8.501953125 c 0
 353.001953125 1.1650390625 346.668945312 10.998046875 346.001953125 20.998046875 c 2
 346.001953125 59.998046875 l 1
 346.001953125 137.498046875 l 1xc8
 346.001953125 223.998046875 l 1xd0
 331.729492188 224.155273438 317.973632812 224.233398438 304.734375 224.233398438 c 0
 205.423828125 224.233398438 135.1796875 219.822265625 94.001953125 210.999023438 c 0
 83.3349609375 208.999023438 73.66796875 209.33203125 65.0009765625 211.999023438 c 0
 56.333984375 214.666015625 49.5009765625 219.333007812 44.5009765625 226 c 0
 39.5009765625 232.666992188 35.66796875 240.333984375 33.0009765625 249.000976562 c 0
 30.333984375 257.66796875 29.0009765625 266.66796875 29.0009765625 276.000976562 c 0
 29.0009765625 285.333984375 30.66796875 294.333984375 34.0009765625 303.000976562 c 0
 40.66796875 321.66796875 58.5009765625 352.16796875 87.5009765625 394.500976562 c 0
 116.500976562 436.833984375 154.16796875 489.166992188 200.500976562 551.5 c 0
 246.833984375 613.833007812 279.666992188 659 299 687 c 0
 307.666992188 699.666992188 317.5 709.166992188 328.5 715.5 c 0
 339.5 721.833007812 350 725 360 725 c 0
 362.423828125 725.2421875 364.809570312 725.36328125 367.15625 725.36328125 c 0
 377.71875 725.36328125 387.5 722.909179688 396.5 718 c 0
 407.5 712 414.333007812 701.666992188 417 687 c 0
 421 663.666992188 424.166992188 627.666992188 426.5 579 c 0xe0
 428.833007812 530.333007812 430.333007812 489.166015625 431 455.499023438 c 0
 431.666992188 421.83203125 432.666992188 370.999023438 434 302.999023438 c 1
 445.333007812 302.33203125 458 301.999023438 472 301.999023438 c 0
 487.333007812 301.999023438 498.166015625 298.499023438 504.499023438 291.499023438 c 0
 510.83203125 284.499023438 514.33203125 275.33203125 514.999023438 263.999023438 c 0
 514.999023438 234.666015625 500.666015625 219.999023438 471.999023438 219.999023438 c 0
 458.666015625 219.999023438 446.333007812 220.33203125 435 220.999023438 c 1
 436.333007812 123.666015625 438.333007812 68.3330078125 441 55 c 0xd0
339.001953125 601.997070312 m 1xe0
 240.334960938 472.6640625 173.334960938 372.330078125 138.001953125 300.997070312 c 1
 175.146484375 303.377929688 221.134765625 304.568359375 275.967773438 304.568359375 c 0
 297.897460938 304.568359375 321.2421875 304.377929688 346.001953125 303.997070312 c 1
 346.001953125 428.6640625 343.668945312 527.997070312 339.001953125 601.997070312 c 1xe0
EndSplineSet
EndChar

StartChar: five
Encoding: 53 53 21
Width: 543
GlyphClass: 2
Flags: MW
HStem: -18.001 83.998 419.997 89.0029 619 88.998 630 79.998
VStem: 44.596 93.405 51.9961 88.0029 409.994 100.006
LayerCount: 2
Fore
SplineSet
510 296 m 0xda
 510 246.666992188 503.825195312 202.166015625 491.4921875 162.499023438 c 0
 479.159179688 122.83203125 461.826171875 89.83203125 439.493164062 63.4990234375 c 0
 417.16015625 37.166015625 390.327148438 16.9990234375 358.994140625 2.9990234375 c 0
 327.661132812 -11.0009765625 293.328125 -18.0009765625 255.995117188 -18.0009765625 c 0
 226.662109375 -18.0009765625 199.662109375 -15.0009765625 174.995117188 -9.0009765625 c 0
 150.328125 -3.0009765625 129.661132812 5.33203125 112.994140625 15.9990234375 c 0
 96.3271484375 26.666015625 82.3271484375 37.8330078125 70.994140625 49.5 c 0
 59.6611328125 61.1669921875 50.328125 73.333984375 42.9951171875 86.0009765625 c 0
 36.9951171875 99.5009765625 33.9951171875 111.125976562 33.9951171875 120.875976562 c 0
 33.9951171875 124.125976562 34.328125 127.16796875 34.9951171875 130.000976562 c 0
 37.662109375 141.333984375 44.662109375 150.000976562 55.9951171875 156.000976562 c 0
 63.328125 159.333984375 69.4951171875 161.666992188 74.4951171875 163 c 0
 79.4951171875 164.333007812 84.9951171875 164.666015625 90.9951171875 163.999023438 c 0
 96.9951171875 163.33203125 102.662109375 160.665039062 107.995117188 155.998046875 c 0
 113.328125 151.331054688 118.995117188 144.6640625 124.995117188 135.997070312 c 0
 154.995117188 89.9970703125 195.662109375 66.6640625 246.995117188 65.9970703125 c 0
 296.995117188 65.9970703125 336.662109375 85.830078125 365.995117188 125.497070312 c 0
 395.328125 165.1640625 409.995117188 218.331054688 409.995117188 284.998046875 c 0
 409.995117188 326.331054688 400.828125 359.1640625 382.495117188 383.497070312 c 0
 364.162109375 407.830078125 335.995117188 419.997070312 297.995117188 419.997070312 c 0
 287.995117188 419.997070312 278.328125 419.497070312 268.995117188 418.497070312 c 0
 259.662109375 417.497070312 251.662109375 416.1640625 244.995117188 414.497070312 c 0
 238.328125 412.830078125 231.328125 410.330078125 223.995117188 406.997070312 c 0
 216.662109375 403.6640625 210.829101562 400.997070312 206.49609375 398.997070312 c 0
 202.163085938 396.997070312 196.830078125 393.330078125 190.497070312 387.997070312 c 0
 184.1640625 382.6640625 179.997070312 378.997070312 177.997070312 376.997070312 c 0
 175.997070312 374.997070312 171.6640625 370.830078125 164.997070312 364.497070312 c 0
 158.330078125 358.1640625 154.330078125 354.331054688 152.997070312 352.998046875 c 0
 147.6640625 348.331054688 141.1640625 344.331054688 133.497070312 340.998046875 c 0
 125.830078125 337.665039062 117.330078125 335.498046875 107.997070312 334.498046875 c 0
 98.6640625 333.498046875 89.3310546875 334.998046875 79.998046875 338.998046875 c 0
 68.6650390625 343.665039062 60.1650390625 353.998046875 54.498046875 369.998046875 c 0
 48.8310546875 385.998046875 45.6640625 405.665039062 44.9970703125 428.998046875 c 0
 44.73046875 438.331054688 44.5966796875 447.530273438 44.5966796875 456.596679688 c 0xda
 44.5966796875 470.197265625 44.896484375 483.498046875 45.49609375 496.499023438 c 0
 46.49609375 518.166015625 47.8291015625 541.499023438 49.49609375 566.499023438 c 0
 51.1630859375 591.499023438 51.99609375 608.666015625 51.99609375 617.999023438 c 1
 46.6630859375 626.666015625 43.330078125 636.499023438 41.9970703125 647.499023438 c 0
 40.6640625 658.499023438 41.1640625 668.666015625 43.4970703125 677.999023438 c 0
 45.830078125 687.33203125 50.4970703125 695.33203125 57.4970703125 701.999023438 c 0
 64.4970703125 708.666015625 72.6640625 711.999023438 81.9970703125 711.999023438 c 0
 106.6640625 711.999023438 164.831054688 711.33203125 256.498046875 709.999023438 c 0xd6
 348.165039062 708.666015625 417.998046875 707.999023438 465.998046875 707.999023438 c 0
 474.665039062 707.999023438 481.83203125 704.33203125 487.499023438 696.999023438 c 0
 493.166015625 689.666015625 496.833007812 681.333007812 498.5 672 c 0
 500.166992188 662.666992188 500.333984375 654 499.000976562 646 c 0
 498.333984375 641.333007812 497.166992188 637.333007812 495.5 634 c 0
 493.833007812 630.666992188 491.5 628.166992188 488.5 626.5 c 0
 485.5 624.833007812 482.833007812 623.333007812 480.5 622 c 0
 478.166992188 620.666992188 474.666992188 619.833984375 470 619.500976562 c 0
 465.333007812 619.16796875 462 619.000976562 460 619.000976562 c 0xe6
 458 619.000976562 454.166992188 619.333984375 448.5 620.000976562 c 0
 442.833007812 620.66796875 439.666015625 621.000976562 438.999023438 621.000976562 c 0
 429.666015625 621.000976562 412.999023438 622.000976562 388.999023438 624.000976562 c 0
 364.999023438 626.000976562 343.666015625 627.500976562 324.999023438 628.500976562 c 0
 306.33203125 629.500976562 280.33203125 630.000976562 246.999023438 630.000976562 c 0
 213.666015625 630.000976562 178.666015625 629.000976562 141.999023438 627.000976562 c 1
 141.999023438 620.333984375 141.33203125 601.000976562 139.999023438 569.000976562 c 0xd6
 138.666015625 537.000976562 137.833007812 513.833984375 137.5 499.500976562 c 0
 137.388671875 494.727539062 137.333007812 489.270507812 137.333007812 483.129882812 c 0
 137.333007812 470.830078125 137.555664062 455.787109375 138.000976562 438 c 1
 156.66796875 458.666992188 182.000976562 475.666992188 214.000976562 489 c 0
 246.000976562 502.333007812 282.66796875 509 324.000976562 509 c 0
 353.333984375 509 379.833984375 503.5 403.500976562 492.5 c 0
 427.16796875 481.5 446.66796875 466.333007812 462.000976562 447 c 0
 477.333984375 427.666992188 489.166992188 405.166992188 497.5 379.5 c 0
 505.833007812 353.833007812 510 326 510 296 c 0xda
EndSplineSet
EndChar

StartChar: six
Encoding: 54 54 22
Width: 543
GlyphClass: 2
Flags: MW
HStem: -21.9971 84.0049 393.004 87.9961
VStem: 31.9342 91.0658 414 98<227.333 249.672>
LayerCount: 2
Fore
SplineSet
512 246 m 0
 512 208.666992188 505.833007812 173.502929688 493.5 140.502929688 c 0
 481.166992188 107.502929688 464.333984375 79.169921875 443.000976562 55.5029296875 c 0
 421.66796875 31.8359375 396.16796875 13.0029296875 366.500976562 -0.9970703125 c 0
 336.833984375 -14.9970703125 305.333984375 -21.9970703125 272.000976562 -21.9970703125 c 0
 230.66796875 -21.9970703125 194.66796875 -14.1640625 164.000976562 1.5029296875 c 0
 133.333984375 17.169921875 108.166992188 39.8369140625 88.5 69.50390625 c 0
 68.8330078125 99.1708984375 54.3330078125 134.670898438 45 176.00390625 c 0
 36.2890625 214.580078125 31.93359375 257.51171875 31.93359375 304.798828125 c 0
 31.93359375 308.177734375 31.9560546875 311.579101562 32.0009765625 315.002929688 c 0
 32.66796875 372.3359375 38.3349609375 424.002929688 49.001953125 470.002929688 c 0
 59.6689453125 516.002929688 74.501953125 554.669921875 93.501953125 586.002929688 c 0
 112.501953125 617.3359375 136.001953125 643.8359375 164.001953125 665.502929688 c 0
 192.001953125 687.169921875 222.168945312 703.669921875 254.501953125 715.002929688 c 0
 286.834960938 726.3359375 322.66796875 733.668945312 362.000976562 737.001953125 c 0
 364.920898438 737.255859375 367.774414062 737.3828125 370.561523438 737.3828125 c 0
 382.409179688 737.3828125 393.055664062 735.088867188 402.500976562 730.500976562 c 0
 414.16796875 724.833984375 420.66796875 715.666992188 422.000976562 703 c 0
 422.66796875 695 418.66796875 686.166992188 410.000976562 676.5 c 0
 401.333984375 666.833007812 391.666992188 660.333007812 381 657 c 0
 373.666992188 655 362.5 652.333007812 347.5 649 c 0
 332.5 645.666992188 319.666992188 642.5 309 639.5 c 0
 298.333007812 636.5 285.666015625 632 270.999023438 626 c 0
 256.33203125 620 241.83203125 611.333007812 227.499023438 600 c 0
 213.166015625 588.666992188 198.999023438 575 184.999023438 559 c 0
 170.33203125 541.666992188 156.83203125 518 144.499023438 488 c 0
 132.166015625 458 124.333007812 431.333007812 121 408 c 1
 141.666992188 432.666992188 168.666992188 451 202 463 c 0
 235.333007812 475 272.333007812 481 313 481 c 0
 343.666992188 481 371 476.666992188 395 468 c 0
 419 459.333007812 439.833007812 445.666015625 457.5 426.999023438 c 0
 475.166992188 408.33203125 488.666992188 383.83203125 498 353.499023438 c 0
 507.333007812 323.166015625 512 287.333007812 512 246 c 0
123 230.002929688 m 0
 124.333007812 215.3359375 127.333984375 200.506835938 132.000976562 185.506835938 c 0
 136.66796875 170.506835938 143.16796875 155.33984375 151.500976562 140.006835938 c 0
 159.833984375 124.673828125 169.666992188 111.340820312 181 100.0078125 c 0
 192.333007812 88.6748046875 206 79.5078125 222 72.5078125 c 0
 238 65.5078125 255 62.0078125 273 62.0078125 c 0
 297.666992188 62.0078125 321 70.6748046875 343 88.0078125 c 0
 365 105.340820312 382.333007812 127.173828125 395 153.506835938 c 0
 407.666992188 179.83984375 414 206.672851562 414 234.005859375 c 0
 414 265.338867188 411.333007812 291.671875 406 313.004882812 c 0
 400.666992188 334.337890625 392.166992188 350.670898438 380.5 362.00390625 c 0
 368.833007812 373.336914062 355.666015625 381.336914062 340.999023438 386.00390625 c 0
 326.33203125 390.670898438 308.33203125 393.00390625 286.999023438 393.00390625 c 0
 253.666015625 393.00390625 222.333007812 384.336914062 193 367.00390625 c 0
 163.666992188 349.670898438 139.666992188 327.670898438 121 301.00390625 c 1
 121 272.336914062 121.666992188 248.669921875 123 230.002929688 c 0
EndSplineSet
EndChar

StartChar: seven
Encoding: 55 55 23
Width: 543
GlyphClass: 2
Flags: MW
HStem: -22.9443 21G 622.497 90.5
LayerCount: 2
Fore
SplineSet
172 26 m 0
 164 8.6669921875 153.495117188 -4.3349609375 140.495117188 -13.001953125 c 0
 130.553710938 -19.6298828125 120.709960938 -22.943359375 110.963867188 -22.943359375 c 0
 107.96484375 -22.943359375 104.974609375 -22.6298828125 101.994140625 -22.001953125 c 0
 87.994140625 -18.6689453125 78.1611328125 -10.6689453125 72.494140625 1.998046875 c 0
 69.890625 7.818359375 68.5888671875 13.919921875 68.5888671875 20.302734375 c 0
 68.5888671875 27.8115234375 70.390625 35.7099609375 73.994140625 43.998046875 c 0
 107.994140625 112.665039062 144.494140625 180.998046875 183.494140625 248.998046875 c 0
 222.494140625 316.998046875 254.827148438 371.165039062 280.494140625 411.498046875 c 0
 306.161132812 451.831054688 329.828125 490.998046875 351.495117188 528.998046875 c 0
 373.162109375 566.998046875 387.662109375 597.998046875 394.995117188 621.998046875 c 1
 363.357421875 623.088867188 330.62890625 623.634765625 296.809570312 623.634765625 c 0
 268.62890625 623.634765625 239.690429688 623.255859375 209.995117188 622.498046875 c 0
 144.662109375 620.831054688 101.995117188 617.331054688 81.9951171875 611.998046875 c 0
 73.9951171875 609.998046875 66.828125 610.331054688 60.4951171875 612.998046875 c 0
 54.162109375 615.665039062 48.9951171875 619.665039062 44.9951171875 624.998046875 c 0
 40.9951171875 630.331054688 37.9951171875 635.998046875 35.9951171875 641.998046875 c 0
 33.9951171875 647.998046875 32.9951171875 653.998046875 32.9951171875 659.998046875 c 0
 32.9951171875 671.998046875 35.9951171875 681.498046875 41.9951171875 688.498046875 c 0
 47.9951171875 695.498046875 58.9951171875 700.665039062 74.9951171875 703.998046875 c 0
 99.662109375 708.665039062 133.829101562 711.665039062 177.49609375 712.998046875 c 0
 199.330078125 713.6640625 220.2890625 713.997070312 240.373046875 713.997070312 c 0
 260.45703125 713.997070312 279.666015625 713.6640625 297.999023438 712.998046875 c 0
 334.666015625 711.665039062 370.666015625 710.33203125 405.999023438 708.999023438 c 0
 441.33203125 707.666015625 460.33203125 706.999023438 462.999023438 706.999023438 c 0
 469.666015625 706.999023438 476.499023438 705.499023438 483.499023438 702.499023438 c 0
 490.499023438 699.499023438 496.83203125 694.666015625 502.499023438 687.999023438 c 0
 506.833984375 682.8984375 511.522460938 674.20703125 511.522460938 660.463867188 c 0
 511.522460938 650.153320312 508.34765625 638.331054688 501.998046875 624.997070312 c 0
 492.665039062 604.997070312 475.83203125 574.830078125 451.499023438 534.497070312 c 0
 427.166015625 494.1640625 401.833007812 452.831054688 375.5 410.498046875 c 0
 349.166992188 368.165039062 317.166992188 311.83203125 279.5 241.499023438 c 0
 241.833007812 171.166015625 206 99.3330078125 172 26 c 0
EndSplineSet
EndChar

StartChar: eight
Encoding: 56 56 24
Width: 543
GlyphClass: 2
Flags: W
LayerCount: 2
Fore
SplineSet
518 204 m 0
 518 182.666992188 515.162109375 161.338867188 509.495117188 140.005859375 c 0
 503.828125 118.672851562 494.328125 97.83984375 480.995117188 77.5068359375 c 0
 467.662109375 57.173828125 451.329101562 39.3408203125 431.99609375 24.0078125 c 0
 412.663085938 8.6748046875 387.99609375 -3.8251953125 357.99609375 -13.4921875 c 0
 327.99609375 -23.1591796875 294.663085938 -27.9921875 257.99609375 -27.9921875 c 0
 224.663085938 -27.9921875 194.330078125 -23.3251953125 166.997070312 -13.9921875 c 0
 139.6640625 -4.6591796875 117.497070312 7.173828125 100.497070312 21.5068359375 c 0
 83.4970703125 35.83984375 69.1640625 53.0068359375 57.4970703125 73.0068359375 c 0
 45.830078125 93.0068359375 37.6630859375 113.173828125 32.99609375 133.506835938 c 0
 28.3291015625 153.83984375 25.99609375 174.672851562 25.99609375 196.005859375 c 0
 25.99609375 218.672851562 31.6630859375 243.005859375 42.99609375 269.005859375 c 0
 54.3291015625 295.005859375 70.8291015625 319.005859375 92.49609375 341.005859375 c 0
 114.163085938 363.005859375 138.330078125 378.338867188 164.997070312 387.005859375 c 1
 129.6640625 403.672851562 102.1640625 425.505859375 82.4970703125 452.505859375 c 0
 62.830078125 479.505859375 52.9970703125 507.005859375 52.9970703125 535.005859375 c 0
 52.9970703125 543.005859375 53.6640625 551.505859375 54.9970703125 560.505859375 c 0
 56.330078125 569.505859375 58.830078125 580.172851562 62.4970703125 592.505859375 c 0
 66.1640625 604.838867188 71.1640625 616.671875 77.4970703125 628.004882812 c 0
 83.830078125 639.337890625 92.4970703125 650.504882812 103.497070312 661.504882812 c 0
 114.497070312 672.504882812 126.997070312 682.171875 140.997070312 690.504882812 c 0
 154.997070312 698.837890625 172.497070312 705.504882812 193.497070312 710.504882812 c 0
 214.497070312 715.504882812 237.330078125 718.004882812 261.997070312 718.004882812 c 0
 287.997070312 718.004882812 311.497070312 715.504882812 332.497070312 710.504882812 c 0
 353.497070312 705.504882812 371.1640625 698.837890625 385.497070312 690.504882812 c 0
 399.830078125 682.171875 412.497070312 672.504882812 423.497070312 661.504882812 c 0
 434.497070312 650.504882812 442.997070312 639.337890625 448.997070312 628.004882812 c 0
 454.997070312 616.671875 459.997070312 604.671875 463.997070312 592.004882812 c 0
 467.997070312 579.337890625 470.6640625 568.170898438 471.997070312 558.50390625 c 0
 473.330078125 548.836914062 473.997070312 539.669921875 473.997070312 531.002929688 c 0
 473.997070312 523.002929688 472.997070312 515.002929688 470.997070312 507.002929688 c 0
 468.997070312 499.002929688 466.330078125 492.002929688 462.997070312 486.002929688 c 0
 459.6640625 480.002929688 455.331054688 473.669921875 449.998046875 467.002929688 c 0
 444.665039062 460.3359375 439.665039062 454.668945312 434.998046875 450.001953125 c 0
 430.331054688 445.334960938 424.331054688 440.001953125 416.998046875 434.001953125 c 0
 409.665039062 428.001953125 403.83203125 423.501953125 399.499023438 420.501953125 c 0
 395.166015625 417.501953125 388.999023438 413.334960938 380.999023438 408.001953125 c 0
 372.999023438 402.668945312 367.666015625 399.001953125 364.999023438 397.001953125 c 1
 389.666015625 386.334960938 411.333007812 374.334960938 430 361.001953125 c 0
 448.666992188 347.668945312 463.5 334.501953125 474.5 321.501953125 c 0
 485.5 308.501953125 494.333007812 294.668945312 501 280.001953125 c 0
 507.666992188 265.334960938 512.166992188 252.16796875 514.5 240.500976562 c 0
 516.833007812 228.833984375 518 216.666992188 518 204 c 0
146.995117188 538.004882812 m 0
 146.995117188 516.004882812 157.162109375 496.504882812 177.495117188 479.504882812 c 0
 197.828125 462.504882812 231.328125 445.337890625 277.995117188 428.004882812 c 1
 305.995117188 439.337890625 330.662109375 454.670898438 351.995117188 474.00390625 c 0
 373.328125 493.336914062 383.995117188 511.336914062 383.995117188 528.00390625 c 0
 383.995117188 546.670898438 378.662109375 565.00390625 367.995117188 583.00390625 c 0
 357.328125 601.00390625 342.495117188 616.00390625 323.495117188 628.00390625 c 0
 304.495117188 640.00390625 283.995117188 646.00390625 261.995117188 646.00390625 c 0
 230.662109375 646.00390625 203.662109375 634.836914062 180.995117188 612.50390625 c 0
 158.328125 590.170898438 146.995117188 565.337890625 146.995117188 538.004882812 c 0
261.995117188 58.0048828125 m 0
 281.328125 58.0048828125 300.66015625 60.8330078125 319.993164062 66.5 c 0
 339.326171875 72.1669921875 356.826171875 80.333984375 372.493164062 91.0009765625 c 0
 388.16015625 101.66796875 400.827148438 115.66796875 410.494140625 133.000976562 c 0
 420.161132812 150.333984375 424.994140625 168.666992188 424.994140625 188 c 0
 424.994140625 198.666992188 423.994140625 208.833984375 421.994140625 218.500976562 c 0
 419.994140625 228.16796875 415.994140625 239.334960938 409.994140625 252.001953125 c 0
 403.994140625 264.668945312 395.661132812 276.3359375 384.994140625 287.002929688 c 0
 374.327148438 297.669921875 359.494140625 308.836914062 340.494140625 320.50390625 c 0
 321.494140625 332.170898438 299.327148438 342.670898438 273.994140625 352.00390625 c 1
 225.994140625 339.336914062 186.994140625 317.336914062 156.994140625 286.00390625 c 0
 126.994140625 254.670898438 111.994140625 221.337890625 111.994140625 186.004882812 c 0
 111.994140625 161.337890625 119.494140625 139.004882812 134.494140625 119.004882812 c 0
 149.494140625 99.0048828125 168.327148438 83.837890625 190.994140625 73.5048828125 c 0
 213.661132812 63.171875 237.328125 58.0048828125 261.995117188 58.0048828125 c 0
EndSplineSet
EndChar

StartChar: nine
Encoding: 57 57 25
Width: 543
GlyphClass: 2
Flags: MW
HStem: -22.3812 21G 234.998 89 654.995 84.0049
VStem: 31.002 98.0049 424.172 87.8928
LayerCount: 2
Fore
SplineSet
158 -22 m 0
 155.077148438 -22.25390625 152.219726562 -22.3828125 149.430664062 -22.3828125 c 0
 137.587890625 -22.3828125 126.94921875 -20.091796875 117.506835938 -15.5048828125 c 0
 105.83984375 -9.837890625 99.33984375 -0.6708984375 98.0068359375 11.99609375 c 0
 97.33984375 20.6630859375 101.172851562 29.6630859375 109.505859375 38.99609375 c 0
 117.838867188 48.3291015625 127.671875 54.662109375 139.004882812 57.9951171875 c 0
 146.337890625 59.9951171875 158.170898438 62.662109375 174.50390625 65.9951171875 c 0
 190.836914062 69.328125 205.50390625 72.828125 218.50390625 76.4951171875 c 0
 231.50390625 80.162109375 246.170898438 84.9951171875 262.50390625 90.9951171875 c 0
 278.836914062 96.9951171875 294.669921875 105.328125 310.002929688 115.995117188 c 0
 325.3359375 126.662109375 339.3359375 139.329101562 352.002929688 153.99609375 c 0
 368.669921875 173.329101562 383.502929688 195.829101562 396.502929688 221.49609375 c 0
 409.502929688 247.163085938 418.669921875 270.330078125 424.002929688 290.997070312 c 1
 405.3359375 269.6640625 381.3359375 254.997070312 352.002929688 246.997070312 c 0
 322.669921875 238.997070312 286.669921875 234.997070312 244.002929688 234.997070312 c 0
 214.669921875 234.997070312 186.669921875 241.830078125 160.002929688 255.497070312 c 0
 133.3359375 269.1640625 110.668945312 287.331054688 92.001953125 309.998046875 c 0
 73.3349609375 332.665039062 58.501953125 358.83203125 47.501953125 388.499023438 c 0
 36.501953125 418.166015625 31.001953125 448.333007812 31.001953125 479 c 0
 31.001953125 516.333007812 37.3349609375 551.166015625 50.001953125 583.499023438 c 0
 62.6689453125 615.83203125 79.6689453125 643.33203125 101.001953125 665.999023438 c 0
 122.334960938 688.666015625 147.66796875 706.499023438 177.000976562 719.499023438 c 0
 206.333984375 732.499023438 237.666992188 738.999023438 271 738.999023438 c 0
 353 738.999023438 414 707.999023438 454 645.999023438 c 0
 492.709960938 585.999023438 512.064453125 500.711914062 512.064453125 390.138671875 c 0
 512.064453125 386.454101562 512.04296875 382.741210938 512 379 c 0
 511.333007812 325.666992188 504.666015625 277.5 491.999023438 234.5 c 0
 479.33203125 191.5 462.33203125 155 440.999023438 125 c 0
 419.666015625 95 394.166015625 69.3330078125 364.499023438 48 c 0
 334.83203125 26.6669921875 302.83203125 10.5 268.499023438 -0.5 c 0
 234.166015625 -11.5 197.333007812 -18.6669921875 158 -22 c 0
129.005859375 490.993164062 m 0
 129.005859375 436.326171875 140.8359375 394.829101562 164.502929688 366.49609375 c 0
 188.169921875 338.163085938 223.336914062 323.99609375 270.00390625 323.99609375 c 0
 299.336914062 323.99609375 328.00390625 330.663085938 356.00390625 343.99609375 c 0
 384.00390625 357.329101562 406.670898438 375.662109375 424.00390625 398.995117188 c 0
 424.115234375 402.21875 424.170898438 405.720703125 424.170898438 409.500976562 c 0
 424.170898438 428.388671875 422.782226562 454.219726562 420.004882812 486.994140625 c 0
 418.671875 501.661132812 415.838867188 516.494140625 411.505859375 531.494140625 c 0
 407.172851562 546.494140625 400.672851562 561.661132812 392.005859375 576.994140625 c 0
 383.338867188 592.327148438 373.338867188 605.66015625 362.005859375 616.993164062 c 0
 350.672851562 628.326171875 337.005859375 637.493164062 321.005859375 644.493164062 c 0
 305.005859375 651.493164062 288.005859375 654.993164062 270.005859375 654.993164062 c 0
 245.338867188 654.993164062 222.005859375 646.993164062 200.005859375 630.993164062 c 0
 178.005859375 614.993164062 160.672851562 594.493164062 148.005859375 569.493164062 c 0
 135.338867188 544.493164062 129.005859375 518.326171875 129.005859375 490.993164062 c 0
EndSplineSet
EndChar

StartChar: colon
Encoding: 58 58 26
Width: 543
GlyphClass: 2
Flags: MW
HStem: 39.8998 155.096 306.91 155.09
VStem: 206.668 127.695
LayerCount: 2
Fore
SplineSet
334 417 m 0
 334.2421875 413 334.36328125 408.956054688 334.36328125 404.868164062 c 0
 334.36328125 386.470703125 331.909179688 367.1796875 327 346.997070312 c 0
 323.666992188 333.6640625 316.333984375 323.497070312 305.000976562 316.497070312 c 0
 294.653320312 310.106445312 284.583984375 306.91015625 274.791992188 306.91015625 c 0
 273.859375 306.91015625 272.928710938 306.939453125 272.000976562 306.997070312 c 0
 232.000976562 308.997070312 210.66796875 324.330078125 208.000976562 352.997070312 c 0
 207.112304688 364.994140625 206.66796875 379.211914062 206.66796875 395.651367188 c 0
 206.66796875 403.876953125 206.779296875 412.659179688 207.001953125 421.997070312 c 0
 207.001953125 430.6640625 209.501953125 437.831054688 214.501953125 443.498046875 c 0
 219.501953125 449.165039062 225.668945312 453.33203125 233.001953125 455.999023438 c 0
 240.334960938 458.666015625 247.334960938 460.333007812 254.001953125 461 c 0
 260.668945312 461.666992188 267.001953125 462 273.001953125 462 c 0
 279.001953125 462 285.168945312 461.333007812 291.501953125 460 c 0
 297.834960938 458.666992188 304.16796875 456.5 310.500976562 453.5 c 0
 316.833984375 450.5 322.166992188 445.833007812 326.5 439.5 c 0
 330.833007812 433.166992188 333.333007812 425.666992188 334 417 c 0
335 149.997070312 m 0
 336.5 141.249023438 337.249023438 132.40625 337.249023438 123.469726562 c 0
 337.249023438 108.571289062 335.165039062 93.412109375 330.998046875 77.9931640625 c 0
 327.665039062 64.66015625 319.33203125 54.8271484375 305.999023438 48.494140625 c 0
 293.936523438 42.7646484375 282.692382812 39.8994140625 272.266601562 39.8994140625 c 0
 271.168945312 39.8994140625 270.080078125 39.931640625 269 39.9951171875 c 0
 255.666992188 40.662109375 242.666992188 44.8291015625 230 52.49609375 c 0
 217.333007812 60.1630859375 210.333007812 70.99609375 209 84.99609375 c 0
 208.333007812 98.99609375 207.833007812 107.829101562 207.5 111.49609375 c 0
 207.166992188 115.163085938 207.5 121.99609375 208.5 131.99609375 c 0
 209.5 141.99609375 210 149.663085938 210 154.99609375 c 0
 210 162.99609375 212.333007812 169.99609375 217 175.99609375 c 0
 221.666992188 181.99609375 227.5 186.163085938 234.5 188.49609375 c 0
 241.5 190.829101562 248.333007812 192.49609375 255 193.49609375 c 0
 261.666992188 194.49609375 268 194.99609375 274 194.99609375 c 0
 282 194.99609375 290 193.829101562 298 191.49609375 c 0
 306 189.163085938 313.666992188 184.330078125 321 176.997070312 c 0
 328.333007812 169.6640625 333 160.6640625 335 149.997070312 c 0
EndSplineSet
EndChar

StartChar: semicolon
Encoding: 59 59 27
Width: 543
GlyphClass: 2
Flags: MW
HStem: 264.912 155.087
VStem: 236.665 127.698
LayerCount: 2
Fore
SplineSet
364 375 m 0
 364.2421875 371.000976562 364.36328125 366.958984375 364.36328125 362.872070312 c 0
 364.36328125 344.473632812 361.908203125 325.182617188 356.999023438 304.999023438 c 0
 353.666015625 291.666015625 346.499023438 281.499023438 335.499023438 274.499023438 c 0
 325.456054688 268.108398438 315.2734375 264.912109375 304.952148438 264.912109375 c 0
 303.96875 264.912109375 302.984375 264.94140625 301.999023438 264.999023438 c 0
 293.33203125 265.666015625 284.499023438 267.499023438 275.499023438 270.499023438 c 0
 266.499023438 273.499023438 258.166015625 278.666015625 250.499023438 285.999023438 c 0
 242.83203125 293.33203125 238.665039062 301.999023438 237.998046875 311.999023438 c 0
 237.109375 323.99609375 236.665039062 338.213867188 236.665039062 354.653320312 c 0
 236.665039062 362.87890625 236.776367188 371.661132812 236.999023438 380.999023438 c 0
 236.999023438 388.999023438 239.33203125 395.999023438 243.999023438 401.999023438 c 0
 248.666015625 407.999023438 254.833007812 412.166015625 262.5 414.499023438 c 0
 270.166992188 416.83203125 277.5 418.499023438 284.5 419.499023438 c 0
 291.5 420.499023438 297.666992188 420.666015625 303 419.999023438 c 0
 309 419.999023438 315 419.499023438 321 418.499023438 c 0
 327 417.499023438 333.333007812 415.33203125 340 411.999023438 c 0
 346.666992188 408.666015625 352.166992188 403.833007812 356.5 397.5 c 0
 360.833007812 391.166992188 363.333007812 383.666992188 364 375 c 0
344.999023438 74 m 0
 343.666015625 52.6669921875 321.999023438 -34.333984375 279.999023438 -187.000976562 c 0
 276.666015625 -201.000976562 269.833007812 -211.16796875 259.5 -217.500976562 c 0
 250.151367188 -223.23046875 240.666015625 -226.095703125 231.043945312 -226.095703125 c 0
 230.030273438 -226.095703125 229.015625 -226.063476562 227.999023438 -226 c 0
 214.666015625 -225.333007812 202.833007812 -221 192.5 -213 c 0
 183.34765625 -205.9140625 178.771484375 -196.474609375 178.771484375 -184.681640625 c 0
 178.771484375 -172.114257812 186.672851562 -128.228515625 199.999023438 -63 c 0
 212.666015625 -1 222.666015625 46.3330078125 229.999023438 79 c 0
 231.999023438 89 234.999023438 97 238.999023438 103 c 0
 242.999023438 109 247.499023438 113 252.499023438 115 c 0
 257.499023438 117 262.83203125 118.333007812 268.499023438 119 c 0
 274.166015625 119.666992188 278.999023438 119.666992188 282.999023438 119 c 0
 288.999023438 119 295.499023438 118.166992188 302.499023438 116.5 c 0
 309.499023438 114.833007812 316.499023438 112.5 323.499023438 109.5 c 0
 330.499023438 106.5 335.999023438 102 339.999023438 96 c 0
 343.999023438 90 345.666015625 82.6669921875 344.999023438 74 c 0
EndSplineSet
EndChar

StartChar: less
Encoding: 60 60 28
Width: 543
GlyphClass: 2
Flags: MW
HStem: -12.3989 21G
LayerCount: 2
Fore
SplineSet
517 14 m 0
 513.666992188 7.3330078125 508.666992188 1.6689453125 502 -2.998046875 c 0
 495.333007812 -7.6650390625 486.5 -10.6650390625 475.5 -11.998046875 c 0
 473.30078125 -12.2646484375 471.000976562 -12.3974609375 468.6015625 -12.3974609375 c 0
 459.000976562 -12.3974609375 447.80078125 -10.2646484375 435 -5.998046875 c 0
 418.333007812 -0.6650390625 397.833007812 11.001953125 373.5 29.001953125 c 0
 349.166992188 47.001953125 322.833984375 68.501953125 294.500976562 93.501953125 c 0
 266.16796875 118.501953125 238.000976562 144.001953125 210.000976562 170.001953125 c 0
 182.000976562 196.001953125 152.500976562 222.834960938 121.500976562 250.501953125 c 0
 90.5009765625 278.168945312 64.333984375 299.668945312 43.0009765625 315.001953125 c 0
 34.333984375 321.001953125 28.6669921875 330.001953125 26 342.001953125 c 0
 24.7451171875 347.6484375 24.1171875 353.184570312 24.1171875 358.610351562 c 0
 24.1171875 364.713867188 24.9111328125 370.677734375 26.4990234375 376.500976562 c 0
 29.4990234375 387.500976562 35.33203125 395.333984375 43.9990234375 400.000976562 c 0
 81.9990234375 428.000976562 126.499023438 463.16796875 177.499023438 505.500976562 c 0
 228.499023438 547.833984375 275.166015625 586.166992188 317.499023438 620.5 c 0
 359.83203125 654.833007812 397.33203125 682 429.999023438 702 c 0
 440.666015625 708.666992188 450.499023438 712.166992188 459.499023438 712.5 c 0
 468.499023438 712.833007812 476.33203125 711.166015625 482.999023438 707.499023438 c 0
 489.666015625 703.83203125 495.499023438 699.33203125 500.499023438 693.999023438 c 0
 505.499023438 688.666015625 509.33203125 682.999023438 511.999023438 676.999023438 c 0
 514.6328125 672.0234375 515.950195312 667.015625 515.950195312 661.975585938 c 0
 515.950195312 655.536132812 513.799804688 649.043945312 509.499023438 642.499023438 c 0
 501.83203125 630.83203125 486.999023438 616.999023438 464.999023438 600.999023438 c 0
 427.666015625 574.999023438 370.833007812 532.33203125 294.5 472.999023438 c 0
 218.166992188 413.666015625 170 375.999023438 150 359.999023438 c 1
 176 339.999023438 204.666992188 315.83203125 236 287.499023438 c 0
 267.333007812 259.166015625 295.333007812 233.499023438 320 210.499023438 c 0
 344.666992188 187.499023438 371 163.999023438 399 139.999023438 c 0
 427 115.999023438 451 96.9990234375 471 82.9990234375 c 0
 492.333007812 68.9990234375 506.5 56.83203125 513.5 46.4990234375 c 0
 517.700195312 40.298828125 519.80078125 33.9189453125 519.80078125 27.359375 c 0
 519.80078125 22.986328125 518.8671875 18.533203125 517 14 c 0
EndSplineSet
EndChar

StartChar: equal
Encoding: 61 61 29
Width: 543
GlyphClass: 2
Flags: MW
HStem: 246.996 83 442.999 85.0725
LayerCount: 2
Fore
SplineSet
128 528 m 0
 166 526.666992188 205.168945312 525.99609375 245.501953125 525.99609375 c 0
 285.834960938 525.99609375 323.501953125 526.329101562 358.501953125 526.99609375 c 0
 393.501953125 527.663085938 414.334960938 527.99609375 421.001953125 527.99609375 c 0
 436.334960938 527.99609375 447.16796875 524.663085938 453.500976562 517.99609375 c 0
 459.833984375 511.329101562 463.333984375 502.329101562 464.000976562 490.99609375 c 0
 464.000976562 484.99609375 463.333984375 479.49609375 462.000976562 474.49609375 c 0
 460.66796875 469.49609375 458.66796875 464.663085938 456.000976562 459.99609375 c 0
 453.333984375 455.329101562 449.000976562 451.829101562 443.000976562 449.49609375 c 0
 437.000976562 447.163085938 429.66796875 446.330078125 421.000976562 446.997070312 c 0
 404.993164062 447.442382812 388.465820312 447.665039062 371.419921875 447.665039062 c 0
 362.909179688 447.665039062 354.26953125 447.609375 345.5 447.498046875 c 0
 319.166992188 447.165039062 282.666992188 446.33203125 236 444.999023438 c 0
 189.333007812 443.666015625 155 442.999023438 133 442.999023438 c 0
 116.333007812 442.999023438 103.333007812 446.999023438 94 454.999023438 c 0
 80.0576171875 466.950195312 79.9228515625 479.587890625 79.9228515625 486.887695312 c 0
 79.9228515625 498.295898438 83.615234375 508 91 516 c 0
 98.4287109375 524.047851562 109.592773438 528.071289062 124.493164062 528.071289062 c 0
 125.639648438 528.071289062 126.80859375 528.047851562 128 528 c 0
131.001953125 329.99609375 m 0
 148.588867188 329.7734375 167.142578125 329.662109375 186.662109375 329.662109375 c 0
 225.59765625 329.662109375 268.377929688 330.10546875 315.002929688 330.993164062 c 0
 385.002929688 332.326171875 420.3359375 332.993164062 421.002929688 332.993164062 c 0
 436.3359375 332.993164062 447.168945312 329.493164062 453.501953125 322.493164062 c 0
 459.834960938 315.493164062 463.334960938 306.326171875 464.001953125 294.993164062 c 0
 464.001953125 288.993164062 463.334960938 283.493164062 462.001953125 278.493164062 c 0
 460.668945312 273.493164062 458.668945312 268.66015625 456.001953125 263.993164062 c 0
 453.334960938 259.326171875 449.001953125 255.826171875 443.001953125 253.493164062 c 0
 437.001953125 251.16015625 429.668945312 250.327148438 421.001953125 250.994140625 c 0
 404.994140625 251.439453125 388.319335938 251.662109375 370.9765625 251.662109375 c 0
 362.318359375 251.662109375 353.493164062 251.606445312 344.501953125 251.495117188 c 0
 317.501953125 251.162109375 280.334960938 250.329101562 233.001953125 248.99609375 c 0
 185.668945312 247.663085938 151.001953125 246.99609375 129.001953125 246.99609375 c 0
 112.334960938 246.99609375 100.001953125 251.163085938 92.001953125 259.49609375 c 0
 80.625 271.346679688 79.9306640625 284.059570312 79.9306640625 292.397460938 c 0
 79.9306640625 302.677734375 83.9541015625 311.376953125 92.001953125 318.49609375 c 0
 100.668945312 326.163085938 113.668945312 329.99609375 131.001953125 329.99609375 c 0
EndSplineSet
EndChar

StartChar: greater
Encoding: 62 62 30
Width: 543
GlyphClass: 2
Flags: W
LayerCount: 2
Fore
SplineSet
114 5 m 0
 104 -1 94.3310546875 -4.33203125 84.998046875 -4.9990234375 c 0
 75.6650390625 -5.666015625 67.6650390625 -4.166015625 60.998046875 -0.4990234375 c 0
 54.3310546875 3.16796875 48.6640625 7.66796875 43.9970703125 13.0009765625 c 0
 39.330078125 18.333984375 35.6630859375 24.0009765625 32.99609375 30.0009765625 c 0
 30.2958984375 35.1005859375 28.9462890625 40.234375 28.9462890625 45.4013671875 c 0
 28.9462890625 51.716796875 30.962890625 58.0830078125 34.99609375 64.5 c 0
 42.3291015625 76.1669921875 57.3291015625 90 79.99609375 106 c 0
 117.329101562 132 173.99609375 174.666992188 249.99609375 234 c 0
 325.99609375 293.333007812 374.663085938 331 395.99609375 347 c 1
 369.99609375 367 340.829101562 391.166992188 308.49609375 419.5 c 0
 276.163085938 447.833007812 247.99609375 473.5 223.99609375 496.5 c 0
 199.99609375 519.5 173.99609375 543 145.99609375 567 c 0
 117.99609375 591 93.3291015625 610 71.99609375 624 c 0
 50.6630859375 638 36.49609375 650.166992188 29.49609375 660.5 c 0
 25.5234375 666.364257812 23.537109375 672.389648438 23.537109375 678.576171875 c 0
 23.537109375 683.290039062 24.6904296875 688.09765625 26.9970703125 692.998046875 c 0
 30.330078125 699.665039062 35.1630859375 705.33203125 41.49609375 709.999023438 c 0
 47.8291015625 714.666015625 56.8291015625 717.666015625 68.49609375 718.999023438 c 0
 70.8291015625 719.265625 73.2353515625 719.3984375 75.71484375 719.3984375 c 0
 85.6357421875 719.3984375 96.7294921875 717.265625 108.99609375 712.999023438 c 0
 125.663085938 707.666015625 146.330078125 696.166015625 170.997070312 678.499023438 c 0
 195.6640625 660.83203125 222.1640625 639.33203125 250.497070312 613.999023438 c 0
 278.830078125 588.666015625 306.997070312 562.999023438 334.997070312 536.999023438 c 0
 362.997070312 510.999023438 392.330078125 484.33203125 422.997070312 456.999023438 c 0
 453.6640625 429.666015625 480.331054688 407.999023438 502.998046875 391.999023438 c 0
 510.998046875 385.999023438 516.331054688 376.999023438 518.998046875 364.999023438 c 0
 520.18359375 359.665039062 520.776367188 354.4296875 520.776367188 349.29296875 c 0
 520.776367188 342.874023438 519.850585938 336.609375 517.999023438 330.499023438 c 0
 514.666015625 319.499023438 508.999023438 311.666015625 500.999023438 306.999023438 c 0
 462.999023438 278.999023438 418.499023438 243.83203125 367.499023438 201.499023438 c 0
 316.499023438 159.166015625 269.83203125 120.833007812 227.499023438 86.5 c 0
 185.166015625 52.1669921875 147.333007812 25 114 5 c 0
EndSplineSet
EndChar

StartChar: question
Encoding: 63 63 31
Width: 543
GlyphClass: 2
Flags: MW
HStem: -14.5656 154.604 637.999 84.001
VStem: 167.997 163 379.999 99
LayerCount: 2
Fore
SplineSet
303 262 m 0
 300.333007812 244.666992188 294.162109375 231.330078125 284.495117188 221.997070312 c 0
 278.05078125 215.775390625 269.754882812 212.6640625 259.607421875 212.6640625 c 0
 254.533203125 212.6640625 248.99609375 213.442382812 242.99609375 214.998046875 c 0
 224.329101562 219.665039062 211.99609375 228.33203125 205.99609375 240.999023438 c 0
 202.819335938 247.705078125 201.231445312 255.625 201.231445312 264.759765625 c 0
 201.231445312 272.879882812 202.486328125 281.959960938 204.99609375 291.999023438 c 0
 209.663085938 309.999023438 216.49609375 326.999023438 225.49609375 342.999023438 c 0
 234.49609375 358.999023438 244.329101562 372.666015625 254.99609375 383.999023438 c 0
 265.663085938 395.33203125 276.830078125 406.165039062 288.497070312 416.498046875 c 0
 300.1640625 426.831054688 311.331054688 436.498046875 321.998046875 445.498046875 c 0
 332.665039062 454.498046875 342.33203125 463.665039062 350.999023438 472.998046875 c 0
 359.666015625 482.331054688 366.666015625 492.498046875 371.999023438 503.498046875 c 0
 377.33203125 514.498046875 379.999023438 526.331054688 379.999023438 538.998046875 c 0
 379.999023438 573.665039062 369.83203125 598.83203125 349.499023438 614.499023438 c 0
 329.166015625 630.166015625 300.333007812 637.999023438 263 637.999023438 c 0
 253.666992188 637.999023438 244.333984375 635.83203125 235.000976562 631.499023438 c 0
 225.66796875 627.166015625 217.500976562 622.333007812 210.500976562 617 c 0
 203.500976562 611.666992188 196.16796875 604.5 188.500976562 595.5 c 0
 180.833984375 586.5 174.833984375 578.833007812 170.500976562 572.5 c 0
 166.16796875 566.166992188 161.000976562 558.666992188 155.000976562 550 c 0
 149.000976562 541.333007812 143.333984375 534.5 138.000976562 529.5 c 0
 132.66796875 524.5 127.000976562 521.833007812 121.000976562 521.5 c 0
 115.000976562 521.166992188 109.66796875 521.5 105.000976562 522.5 c 0
 100.333984375 523.5 94.333984375 525.666992188 87.0009765625 529 c 0
 75.66796875 535 68.5009765625 543.666992188 65.5009765625 555 c 0
 64.7294921875 557.9140625 64.34375 561.048828125 64.34375 564.404296875 c 0
 64.34375 574.096679688 67.5625 585.62890625 74.0009765625 599 c 0
 81.333984375 613 90.1669921875 626.5 100.5 639.5 c 0
 110.833007812 652.5 123.666015625 665.5 138.999023438 678.5 c 0
 154.33203125 691.5 172.499023438 702 193.499023438 710 c 0
 214.499023438 718 236.33203125 722 258.999023438 722 c 0
 330.999023438 722 385.666015625 705.333007812 422.999023438 672 c 0
 460.33203125 638.666992188 478.999023438 588.666992188 478.999023438 522 c 0
 478.999023438 504 476.166015625 487.666992188 470.499023438 473 c 0
 464.83203125 458.333007812 457.33203125 445.666015625 447.999023438 434.999023438 c 0
 438.666015625 424.33203125 428.166015625 414.33203125 416.499023438 404.999023438 c 0
 404.83203125 395.666015625 392.83203125 386.333007812 380.499023438 377 c 0
 368.166015625 367.666992188 356.833007812 358 346.5 348 c 0
 336.166992188 338 327 325.5 319 310.5 c 0
 311 295.5 305.666992188 279.333007812 303 262 c 0
251.99609375 -14.00390625 m 0
 248.533203125 -14.3779296875 245.158203125 -14.5654296875 241.872070312 -14.5654296875 c 0
 221.754882812 -14.5654296875 204.962890625 -7.5478515625 191.49609375 6.4921875 c 0
 175.829101562 22.8251953125 167.99609375 41.9921875 167.99609375 63.9921875 c 0
 167.99609375 84.6591796875 176.49609375 102.326171875 193.49609375 116.993164062 c 0
 210.49609375 131.66015625 229.99609375 139.327148438 251.99609375 139.994140625 c 0
 253.033203125 140.0234375 254.0625 140.038085938 255.083007812 140.038085938 c 0
 277.010742188 140.038085938 294.981445312 133.190429688 308.99609375 119.495117188 c 0
 323.663085938 105.162109375 330.99609375 86.9951171875 330.99609375 64.9951171875 c 0
 330.99609375 43.662109375 323.829101562 25.8291015625 309.49609375 11.49609375 c 0
 295.163085938 -2.8369140625 275.99609375 -11.3369140625 251.99609375 -14.00390625 c 0
EndSplineSet
EndChar

StartChar: at
Encoding: 64 64 32
Width: 543
GlyphClass: 2
Flags: MW
HStem: -129.182 85.178 102.002 77.9951 118.002 79.9941 381 77.1335 612.994 90.0078
VStem: 13.9941 87.0029 136.995 76.999 318.993 80.002 456.997 72.998
LayerCount: 2
Fore
SplineSet
479 5 m 0xdf80
 475.666992188 -4.3330078125 472.16015625 -12.5009765625 468.493164062 -19.5009765625 c 0
 464.826171875 -26.5009765625 459.826171875 -35.16796875 453.493164062 -45.5009765625 c 0
 447.16015625 -55.833984375 440.493164062 -64.6669921875 433.493164062 -72 c 0
 426.493164062 -79.3330078125 417.326171875 -86.8330078125 405.993164062 -94.5 c 0
 394.66015625 -102.166992188 382.493164062 -108.5 369.493164062 -113.5 c 0
 356.493164062 -118.5 340.993164062 -122.5 322.993164062 -125.5 c 0
 308.266601562 -127.954101562 292.647460938 -129.181640625 276.135742188 -129.181640625 c 0
 272.465820312 -129.181640625 268.751953125 -129.12109375 264.993164062 -129 c 0
 229.66015625 -129 196.66015625 -120.333007812 165.993164062 -103 c 0
 135.326171875 -85.6669921875 108.826171875 -61.5 86.4931640625 -30.5 c 0
 64.16015625 0.5 46.4931640625 38.1669921875 33.4931640625 82.5 c 0
 20.4931640625 126.833007812 13.9931640625 175.333007812 13.9931640625 228 c 0
 13.9931640625 286.666992188 18.4931640625 341.333984375 27.4931640625 392.000976562 c 0
 36.4931640625 442.66796875 49.326171875 486.834960938 65.9931640625 524.501953125 c 0
 82.66015625 562.168945312 102.327148438 594.501953125 124.994140625 621.501953125 c 0
 147.661132812 648.501953125 172.661132812 668.834960938 199.994140625 682.501953125 c 0
 227.327148438 696.168945312 255.994140625 703.001953125 285.994140625 703.001953125 c 0
 308.661132812 703.001953125 328.994140625 701.168945312 346.994140625 697.501953125 c 0
 364.994140625 693.834960938 382.494140625 687.834960938 399.494140625 679.501953125 c 0
 416.494140625 671.168945312 431.494140625 660.001953125 444.494140625 646.001953125 c 0
 457.494140625 632.001953125 469.494140625 614.501953125 480.494140625 593.501953125 c 0
 491.494140625 572.501953125 500.494140625 548.001953125 507.494140625 520.001953125 c 0
 514.494140625 492.001953125 519.994140625 459.001953125 523.994140625 421.001953125 c 0
 527.994140625 383.001953125 529.994140625 340.334960938 529.994140625 293.001953125 c 0
 529.994140625 269.001953125 528.161132812 246.168945312 524.494140625 224.501953125 c 0
 520.827148438 202.834960938 515.494140625 182.501953125 508.494140625 163.501953125 c 0
 501.494140625 144.501953125 491.161132812 129.501953125 477.494140625 118.501953125 c 0
 463.827148438 107.501953125 447.994140625 102.001953125 429.994140625 102.001953125 c 0xdf80
 381.994140625 102.001953125 354.994140625 130.001953125 348.994140625 186.001953125 c 1
 333.661132812 140.668945312 304.661132812 118.001953125 261.994140625 118.001953125 c 0
 222.661132812 118.001953125 191.994140625 130.334960938 169.994140625 155.001953125 c 0
 147.994140625 179.668945312 136.994140625 217.3359375 136.994140625 268.002929688 c 0
 136.994140625 293.3359375 139.827148438 316.668945312 145.494140625 338.001953125 c 0
 151.161132812 359.334960938 158.828125 377.501953125 168.495117188 392.501953125 c 0
 178.162109375 407.501953125 189.495117188 420.168945312 202.495117188 430.501953125 c 0
 215.495117188 440.834960938 229.662109375 448.16796875 244.995117188 452.500976562 c 0
 258.283203125 456.255859375 271.821289062 458.133789062 285.610351562 458.133789062 c 0
 287.732421875 458.133789062 289.861328125 458.088867188 291.99609375 458 c 0
 307.99609375 457.333007812 323.99609375 453.666015625 339.99609375 446.999023438 c 0
 355.329101562 440.999023438 367.662109375 432.999023438 376.995117188 422.999023438 c 0
 386.328125 412.999023438 388.661132812 403.999023438 383.994140625 395.999023438 c 0
 381.327148438 390.666015625 378.327148438 386.333007812 374.994140625 383 c 0
 371.661132812 379.666992188 367.661132812 377.333984375 362.994140625 376.000976562 c 0
 358.327148438 374.66796875 353.994140625 373.66796875 349.994140625 373.000976562 c 0
 345.994140625 372.333984375 340.994140625 372.500976562 334.994140625 373.500976562 c 0
 328.994140625 374.500976562 324.327148438 375.333984375 320.994140625 376.000976562 c 0
 317.661132812 376.66796875 312.661132812 378.000976562 305.994140625 380.000976562 c 0
 297.327148438 381.333984375 288.827148438 381.666992188 280.494140625 381 c 0
 272.161132812 380.333007812 263.994140625 377.5 255.994140625 372.5 c 0
 247.994140625 367.5 240.994140625 361.166992188 234.994140625 353.5 c 0
 228.994140625 345.833007812 223.994140625 335.666015625 219.994140625 322.999023438 c 0
 215.994140625 310.33203125 213.994140625 295.999023438 213.994140625 279.999023438 c 0
 213.994140625 271.33203125 214.494140625 263.165039062 215.494140625 255.498046875 c 0
 216.494140625 247.831054688 218.494140625 239.1640625 221.494140625 229.497070312 c 0
 224.494140625 219.830078125 229.161132812 212.163085938 235.494140625 206.49609375 c 0
 241.827148438 200.829101562 249.66015625 197.99609375 258.993164062 197.99609375 c 0xbf80
 280.326171875 197.99609375 295.326171875 206.163085938 303.993164062 222.49609375 c 0
 312.66015625 238.829101562 317.66015625 265.99609375 318.993164062 303.99609375 c 0
 318.993164062 314.663085938 327.66015625 323.330078125 344.993164062 329.997070312 c 0
 355.80078125 334.2421875 365.602539062 336.365234375 374.3984375 336.365234375 c 0
 380.795898438 336.365234375 386.661132812 335.2421875 391.994140625 332.997070312 c 0
 400.661132812 329.6640625 404.328125 322.997070312 402.995117188 312.997070312 c 0
 400.328125 289.44140625 398.995117188 269.3671875 398.995117188 252.774414062 c 0
 398.995117188 244.478515625 399.328125 237.052734375 399.995117188 230.497070312 c 0
 401.995117188 210.830078125 405.328125 197.497070312 409.995117188 190.497070312 c 0
 414.662109375 183.497070312 421.329101562 179.997070312 429.99609375 179.997070312 c 0
 435.329101562 179.997070312 439.99609375 184.330078125 443.99609375 192.997070312 c 0
 447.99609375 201.6640625 450.829101562 212.997070312 452.49609375 226.997070312 c 0
 454.163085938 240.997070312 455.330078125 253.330078125 455.997070312 263.997070312 c 0
 456.6640625 274.6640625 456.997070312 284.997070312 456.997070312 294.997070312 c 0
 456.997070312 328.997070312 455.497070312 360.330078125 452.497070312 388.997070312 c 0
 449.497070312 417.6640625 445.830078125 442.1640625 441.497070312 462.497070312 c 0
 437.1640625 482.830078125 431.331054688 501.163085938 423.998046875 517.49609375 c 0
 416.665039062 533.829101562 409.665039062 547.162109375 402.998046875 557.495117188 c 0
 396.331054688 567.828125 388.331054688 576.661132812 378.998046875 583.994140625 c 0
 369.665039062 591.327148438 361.498046875 596.827148438 354.498046875 600.494140625 c 0
 347.498046875 604.161132812 339.498046875 606.994140625 330.498046875 608.994140625 c 0
 321.498046875 610.994140625 314.665039062 612.161132812 309.998046875 612.494140625 c 0
 305.331054688 612.827148438 299.6640625 612.994140625 292.997070312 612.994140625 c 0
 266.330078125 612.994140625 241.497070312 604.661132812 218.497070312 587.994140625 c 0
 195.497070312 571.327148438 175.1640625 548.16015625 157.497070312 518.493164062 c 0
 139.830078125 488.826171875 125.997070312 451.993164062 115.997070312 407.993164062 c 0
 105.997070312 363.993164062 100.997070312 315.993164062 100.997070312 263.993164062 c 0
 100.997070312 218.66015625 104.330078125 177.827148438 110.997070312 141.494140625 c 0
 117.6640625 105.161132812 126.6640625 75.828125 137.997070312 53.4951171875 c 0
 149.330078125 31.162109375 162.497070312 12.3291015625 177.497070312 -3.00390625 c 0
 192.497070312 -18.3369140625 207.497070312 -29.00390625 222.497070312 -35.00390625 c 0
 237.497070312 -41.00390625 252.997070312 -44.00390625 268.997070312 -44.00390625 c 0
 286.330078125 -44.00390625 302.330078125 -42.3369140625 316.997070312 -39.00390625 c 0
 331.6640625 -35.6708984375 343.831054688 -31.6708984375 353.498046875 -27.00390625 c 0
 363.165039062 -22.3369140625 372.33203125 -16.00390625 380.999023438 -8.00390625 c 0
 389.666015625 -0.00390625 396.333007812 7.3291015625 401 13.99609375 c 0
 405.666992188 20.6630859375 411 29.330078125 417 39.9970703125 c 0
 419.666992188 44.6640625 422 48.3310546875 424 50.998046875 c 0
 426 53.6650390625 428.333007812 56.83203125 431 60.4990234375 c 0
 433.666992188 64.166015625 436 66.8330078125 438 68.5 c 0
 440 70.1669921875 442.5 71.6669921875 445.5 73 c 0
 448.5 74.3330078125 451.5 75 454.5 75 c 0
 457.5 75 460.666992188 74.3330078125 464 73 c 0
 469.333007812 71 473.833007812 68.5 477.5 65.5 c 0
 481.166992188 62.5 484 58.5 486 53.5 c 0
 488 48.5 488.333007812 41.8330078125 487 33.5 c 0
 485.666992188 25.1669921875 483 15.6669921875 479 5 c 0xdf80
EndSplineSet
EndChar

StartChar: A
Encoding: 65 65 33
Width: 543
GlyphClass: 2
Flags: MW
HStem: -5.55122 21G 251 81.0059
VStem: 5.47694 90.5231
LayerCount: 2
Fore
SplineSet
96 41 m 2
 89.3330078125 20.3330078125 80 6.6708984375 68 0.00390625 c 0
 61.3330078125 -3.7001953125 54.5634765625 -5.5517578125 47.6904296875 -5.5517578125 c 0
 42.1923828125 -5.5517578125 36.62890625 -4.3671875 30.9990234375 -1.9970703125 c 0
 13.9853515625 5.78125 5.478515625 21.3564453125 5.478515625 44.7294921875 c 0
 5.478515625 53.4111328125 6.65234375 63.1689453125 9 74.0029296875 c 0
 13 95.3359375 32.3330078125 147.3359375 67 230.002929688 c 1
 55 238.002929688 49 247.669921875 49 259.002929688 c 0
 48.3330078125 268.3359375 52.5 277.168945312 61.5 285.501953125 c 0
 70.5 293.834960938 82.3330078125 300.334960938 97 305.001953125 c 1
 179 495.668945312 242 623.001953125 286 687.001953125 c 0
 296 700.334960938 304.833007812 710.001953125 312.5 716.001953125 c 0
 320.166992188 722.001953125 328.666992188 725.001953125 338 725.001953125 c 0
 340.302734375 725.244140625 342.567382812 725.365234375 344.79296875 725.365234375 c 0
 354.809570312 725.365234375 364.044921875 722.911132812 372.499023438 718.001953125 c 0
 382.83203125 712.001953125 388.999023438 701.668945312 390.999023438 687.001953125 c 0
 404.999023438 604.334960938 428.499023438 487.16796875 461.499023438 335.500976562 c 0
 494.499023438 183.833984375 517.33203125 96.6669921875 529.999023438 74 c 0
 535.5546875 63.443359375 538.333007812 53.697265625 538.333007812 44.76171875 c 0
 538.333007812 42.9755859375 538.221679688 41.2216796875 538 39.5 c 0
 536.666992188 29.1669921875 533.333984375 20.5 528.000976562 13.5 c 0
 522.66796875 6.5 516.334960938 1.3330078125 509.001953125 -2 c 0
 503.2109375 -4.4375 497.419921875 -5.65625 491.62890625 -5.65625 c 2
 471 -0.4990234375 l 2
 458.333007812 5.833984375 448 19.6669921875 440 41 c 0
 431.333007812 61.6669921875 414.666015625 131.666992188 389.999023438 251 c 1
 304.666015625 247.666992188 228.333007812 240.666992188 161 230 c 1
 96 41 l 2
318 602.004882812 m 1
 288.666992188 557.337890625 247 462.671875 193 318.004882812 c 1
 261 326.004882812 321.333007812 330.671875 374 332.004882812 c 1
 318 602.004882812 l 1
EndSplineSet
EndChar

StartChar: B
Encoding: 66 66 34
Width: 543
GlyphClass: 2
Flags: MW
HStem: -22.9961 21G 297.004 72 630.004 78.999
VStem: 30 96.4978 383.997 90.0384 417.998 98.001
LayerCount: 2
Fore
SplineSet
221 -14 m 0xf4
 209.666992188 -14.6669921875 196.998046875 -15.6640625 182.998046875 -16.9970703125 c 0
 168.998046875 -18.330078125 157.665039062 -19.330078125 148.998046875 -19.9970703125 c 2
 122.998046875 -21.9970703125 l 2
 114.331054688 -22.6640625 106.498046875 -22.9970703125 99.498046875 -22.9970703125 c 0
 92.498046875 -22.9970703125 85.998046875 -22.330078125 79.998046875 -20.9970703125 c 2
 75.998046875 -20.9970703125 l 2
 62.6650390625 -20.9970703125 51.83203125 -16.4970703125 43.4990234375 -7.4970703125 c 0
 35.783203125 0.8359375 31.92578125 12.1689453125 31.92578125 26.5029296875 c 0
 31.92578125 33.943359375 34.25 48.533203125 34.25 135.748046875 c 0
 34.25 152.249023438 34.1669921875 170.333984375 34 190.002929688 c 0
 33.3330078125 268.669921875 32 349.669921875 30 433.002929688 c 0
 28.6669921875 477.669921875 28 507.669921875 28 523.002929688 c 0
 28 538.3359375 28.5 559.002929688 29.5 585.002929688 c 0
 30.5 611.002929688 31 629.002929688 31 639.002929688 c 0
 31.6669921875 657.002929688 36.5 670.502929688 45.5 679.502929688 c 0
 54.5 688.502929688 66 693.002929688 80 693.002929688 c 2
 85 693.002929688 l 2
 95.6669921875 696.3359375 106.666992188 699.168945312 118 701.501953125 c 0
 129.333007812 703.834960938 139.833007812 705.501953125 149.5 706.501953125 c 0
 159.166992188 707.501953125 169.666992188 708.168945312 181 708.501953125 c 0
 192.333007812 708.834960938 201.166015625 709.001953125 207.499023438 709.001953125 c 2
 227.999023438 709.001953125 l 1
 238.999023438 709.001953125 l 2
 284.33203125 709.001953125 324.499023438 700.668945312 359.499023438 684.001953125 c 0
 394.499023438 667.334960938 422.166015625 643.16796875 442.499023438 611.500976562 c 0
 464.920898438 576.581054688 474.03515625 537.415039062 474.03515625 496.803710938 c 0xf8
 474.03515625 459.928710938 465.5234375 428.161132812 448.499023438 401.500976562 c 0
 430.83203125 373.833984375 406.33203125 353.666992188 374.999023438 341 c 1
 397.666015625 333.666992188 419.499023438 322.833984375 440.499023438 308.500976562 c 0
 461.499023438 294.16796875 479.33203125 278.16796875 493.999023438 260.500976562 c 0
 508.666015625 242.833984375 515.999023438 226.333984375 515.999023438 211.000976562 c 0
 515.999023438 185.66796875 509.666015625 160.500976562 496.999023438 135.500976562 c 0
 484.33203125 110.500976562 465.83203125 87.66796875 441.499023438 67.0009765625 c 0
 417.166015625 46.333984375 385.833007812 28.6669921875 347.5 14 c 0
 309.166992188 -0.6669921875 267 -10 221 -14 c 0xf4
236.998046875 630.002929688 m 0
 200.998046875 630.002929688 165.998046875 625.668945312 131.998046875 617.001953125 c 1
 131.998046875 604.334960938 131.331054688 584.001953125 129.998046875 556.001953125 c 0
 128.665039062 528.001953125 127.665039062 498.334960938 126.998046875 467.001953125 c 0
 126.6640625 451.3359375 126.497070312 435.502929688 126.497070312 419.502929688 c 0
 126.497070312 403.502929688 126.6640625 387.3359375 126.998046875 371.002929688 c 1
 158.331054688 369.669921875 187.998046875 369.002929688 215.998046875 369.002929688 c 0
 235.998046875 369.002929688 254.331054688 370.669921875 270.998046875 374.002929688 c 0
 287.665039062 377.3359375 301.498046875 381.668945312 312.498046875 387.001953125 c 0
 323.498046875 392.334960938 333.498046875 398.834960938 342.498046875 406.501953125 c 0
 351.498046875 414.168945312 358.331054688 422.001953125 362.998046875 430.001953125 c 0
 367.665039062 438.001953125 371.665039062 446.834960938 374.998046875 456.501953125 c 0
 378.331054688 466.168945312 380.6640625 474.8359375 381.997070312 482.502929688 c 0
 383.330078125 490.169921875 383.997070312 498.336914062 383.997070312 507.00390625 c 0
 383.997070312 524.336914062 380.497070312 540.336914062 373.497070312 555.00390625 c 0
 366.497070312 569.670898438 357.830078125 581.50390625 347.497070312 590.50390625 c 0
 337.1640625 599.50390625 325.331054688 607.170898438 311.998046875 613.50390625 c 0
 298.665039062 619.836914062 285.665039062 624.169921875 272.998046875 626.502929688 c 0
 260.331054688 628.8359375 248.331054688 630.002929688 236.998046875 630.002929688 c 0
222.998046875 297.001953125 m 1
 174.331054688 297.001953125 142.998046875 296.66796875 128.998046875 296.000976562 c 1
 131.665039062 188.66796875 133.665039062 112.334960938 134.998046875 67.001953125 c 1
 142.331054688 67.001953125 154.498046875 67.3349609375 171.498046875 68.001953125 c 0
 188.498046875 68.6689453125 201.331054688 69.001953125 209.998046875 69.001953125 c 0
 240.665039062 70.3349609375 269.498046875 75.66796875 296.498046875 85.0009765625 c 0
 323.498046875 94.333984375 345.331054688 105.500976562 361.998046875 118.500976562 c 0
 378.665039062 131.500976562 392.165039062 145.16796875 402.498046875 159.500976562 c 0
 412.831054688 173.833984375 417.998046875 187.000976562 417.998046875 199.000976562 c 0xf4
 417.998046875 207.66796875 414.331054688 216.334960938 406.998046875 225.001953125 c 0
 399.665039062 233.668945312 388.498046875 242.668945312 373.498046875 252.001953125 c 0
 358.498046875 261.334960938 337.998046875 270.001953125 311.998046875 278.001953125 c 0
 285.998046875 286.001953125 256.331054688 292.334960938 222.998046875 297.001953125 c 1
EndSplineSet
EndChar

StartChar: C
Encoding: 67 67 35
Width: 543
GlyphClass: 2
Flags: MW
HStem: -31.0911 90.092 518.417 222.246 632.001 80.9961
VStem: 14.0039 100.998 427.005 103.001
LayerCount: 2
Fore
SplineSet
502 64 m 0xb8
 447.015625 0.607421875 362.850585938 -31.091796875 249.495117188 -31.091796875 c 0
 246.025390625 -31.091796875 242.528320312 -31.0625 239.00390625 -31.0029296875 c 0
 211.670898438 -31.0029296875 185.670898438 -26.3359375 161.00390625 -17.0029296875 c 0
 136.336914062 -7.669921875 115.50390625 4.6630859375 98.50390625 19.99609375 c 0
 81.50390625 35.3291015625 66.3369140625 53.162109375 53.00390625 73.4951171875 c 0
 39.6708984375 93.828125 29.837890625 115.495117188 23.5048828125 138.495117188 c 0
 17.171875 161.495117188 14.0048828125 184.662109375 14.0048828125 207.995117188 c 0
 14.0048828125 256.662109375 19.0048828125 303.662109375 29.0048828125 348.995117188 c 0
 39.0048828125 394.328125 52.5048828125 435.328125 69.5048828125 471.995117188 c 0
 86.5048828125 508.662109375 106.337890625 542.329101562 129.004882812 572.99609375 c 0
 151.671875 603.663085938 175.838867188 629.163085938 201.505859375 649.49609375 c 0
 227.172851562 669.829101562 253.505859375 685.49609375 280.505859375 696.49609375 c 0
 307.505859375 707.49609375 333.338867188 712.99609375 358.005859375 712.99609375 c 0xb8
 382.672851562 712.99609375 405.33984375 710.329101562 426.006835938 704.99609375 c 1
 428.673828125 714.99609375 433.673828125 723.163085938 441.006835938 729.49609375 c 0
 448.33984375 735.829101562 457.006835938 739.329101562 467.006835938 739.99609375 c 0
 469.376953125 740.440429688 471.755859375 740.663085938 474.142578125 740.663085938 c 0
 482.49609375 740.663085938 490.950195312 737.940429688 499.505859375 732.49609375 c 0
 510.505859375 725.49609375 517.338867188 715.329101562 520.005859375 701.99609375 c 0
 522.005859375 691.99609375 524.005859375 682.163085938 526.005859375 672.49609375 c 0
 528.005859375 662.829101562 529.172851562 653.329101562 529.505859375 643.99609375 c 0
 529.838867188 634.663085938 530.005859375 626.99609375 530.005859375 620.99609375 c 2
 530.005859375 599.99609375 l 1
 530.005859375 584.99609375 l 2
 530.005859375 570.99609375 524.672851562 556.829101562 514.005859375 542.49609375 c 0
 503.338867188 528.163085938 492.671875 520.330078125 482.004882812 518.997070312 c 0
 479.682617188 518.610351562 477.353515625 518.416992188 475.018554688 518.416992188 c 0xd8
 465.2890625 518.416992188 455.451171875 521.77734375 445.504882812 528.498046875 c 0
 433.171875 536.831054688 427.004882812 547.998046875 427.004882812 561.998046875 c 0
 427.004882812 567.331054688 427.337890625 581.331054688 428.004882812 603.998046875 c 0
 427.337890625 604.665039062 424.170898438 606.83203125 418.50390625 610.499023438 c 0
 412.836914062 614.166015625 408.836914062 616.833007812 406.50390625 618.5 c 0
 404.170898438 620.166992188 400.337890625 622.333984375 395.004882812 625.000976562 c 0
 389.671875 627.66796875 384.504882812 629.500976562 379.504882812 630.500976562 c 0
 374.504882812 631.500976562 369.671875 632.000976562 365.004882812 632.000976562 c 0
 344.337890625 632.000976562 322.170898438 625.333984375 298.50390625 612.000976562 c 0
 274.836914062 598.66796875 252.169921875 579.66796875 230.502929688 555.000976562 c 0
 208.8359375 530.333984375 189.168945312 502.000976562 171.501953125 470.000976562 c 0
 153.834960938 438.000976562 140.001953125 401.833984375 130.001953125 361.500976562 c 0
 120.001953125 321.16796875 115.001953125 280.66796875 115.001953125 240.000976562 c 0
 115.001953125 210.66796875 120.668945312 182.000976562 132.001953125 154.000976562 c 0
 143.334960938 126.000976562 159.501953125 103.16796875 180.501953125 85.5009765625 c 0
 201.501953125 67.833984375 224.334960938 59.0009765625 249.001953125 59.0009765625 c 0
 270.334960938 59.0009765625 291.501953125 61.16796875 312.501953125 65.5009765625 c 0
 333.501953125 69.833984375 352.001953125 75.5009765625 368.001953125 82.5009765625 c 0
 384.001953125 89.5009765625 397.834960938 96.5009765625 409.501953125 103.500976562 c 0
 421.168945312 110.500976562 432.001953125 118.000976562 442.001953125 126.000976562 c 0
 450.668945312 132.000976562 458.168945312 136.66796875 464.501953125 140.000976562 c 0
 470.834960938 143.333984375 477.66796875 145.000976562 485.000976562 145.000976562 c 0
 492.333984375 145.000976562 499.666992188 142.66796875 507 138.000976562 c 0
 518.220703125 129.2734375 523.831054688 119.234375 523.831054688 107.883789062 c 0
 523.831054688 94.95703125 516.553710938 80.3291015625 502 64 c 0xb8
EndSplineSet
EndChar

StartChar: D
Encoding: 68 68 36
Width: 543
GlyphClass: 2
Flags: MW
HStem: -31 85.998 694.001 20G
VStem: 12.3732 98.6278 16.999 102.002 436.001 95.9971
LayerCount: 2
Fore
SplineSet
112.000976562 348 m 0xe8
 112.66796875 319.333007812 113.831054688 276.1640625 115.498046875 218.497070312 c 0
 117.165039062 160.830078125 118.333984375 117.330078125 119.000976562 87.9970703125 c 1
 146.333984375 75.9970703125 174.999023438 67.4970703125 204.999023438 62.4970703125 c 0
 234.999023438 57.4970703125 268.999023438 54.9970703125 306.999023438 54.9970703125 c 0
 325.666015625 54.9970703125 343.333007812 61.1640625 360 73.4970703125 c 0
 376.666992188 85.830078125 390.333984375 101.830078125 401.000976562 121.497070312 c 0
 411.66796875 141.1640625 420.16796875 162.831054688 426.500976562 186.498046875 c 0
 432.833984375 210.165039062 436.000976562 233.33203125 436.000976562 255.999023438 c 0
 436.000976562 381.33203125 384.66796875 476.999023438 282.000976562 542.999023438 c 0
 245.333984375 566.33203125 193.000976562 590.33203125 125.000976562 614.999023438 c 1
 124.000976562 615.999023438 l 1
 123.000976562 615.999023438 l 1
 122.000976562 615.999023438 l 1
 121.000976562 616.999023438 l 1
 120.000976562 616.999023438 l 1
 119.000976562 616.999023438 l 1
 119.000976562 617.999023438 l 1xd8
 118.000976562 617.999023438 l 1
 117.000976562 617.999023438 l 1
 116.000976562 618.999023438 l 1
 115.000976562 618.999023438 l 1
 114.000976562 618.999023438 l 1
 113.000976562 619.999023438 l 1
 112.000976562 619.999023438 l 1
 111.000976562 619.999023438 l 1
 111.000976562 620.999023438 l 1
 110.143554688 583.854492188 109.71484375 545.9140625 109.71484375 507.177734375 c 0
 109.71484375 455.533203125 110.4765625 402.473632812 112.000976562 348 c 0xe8
308 -31.0009765625 m 0
 274.666992188 -31.0009765625 242.16796875 -29.5 210.500976562 -26.5 c 0
 178.833984375 -23.5 153.666992188 -20 135 -16 c 0
 116.333007812 -12 100 -8.3330078125 86 -5 c 0
 72 -1.6669921875 63.6669921875 0 61 0 c 0
 47.6669921875 0 36.6669921875 4.5 28 13.5 c 0
 20.48828125 21.2998046875 16.732421875 31.7294921875 16.732421875 44.7880859375 c 0
 16.732421875 46.796875 16.8212890625 48.8671875 16.9990234375 51 c 0xd8
 18.4990234375 74.9990234375 19.2490234375 112.965820312 19.2490234375 164.901367188 c 0
 19.2490234375 182.21484375 19.166015625 201.081054688 18.9990234375 221.5 c 0
 18.33203125 303.166992188 16.6650390625 391.666992188 13.998046875 487 c 0
 13.3310546875 524.333007812 12.8310546875 548.833007812 12.498046875 560.5 c 0
 12.4150390625 563.416015625 12.373046875 566.73828125 12.373046875 570.466796875 c 0xe8
 12.373046875 581.654296875 12.748046875 596.498046875 13.498046875 614.999023438 c 0
 14.498046875 639.666015625 14.998046875 654.666992188 14.998046875 660 c 0
 15.6650390625 678 20.6650390625 691.5 29.998046875 700.5 c 0
 39.3310546875 709.5 50.998046875 714 64.998046875 714 c 0
 73.6650390625 714 84.6650390625 713.333007812 97.998046875 712 c 0
 111.331054688 710.666992188 128.498046875 708 149.498046875 704 c 0
 170.498046875 700 191.998046875 694.5 213.998046875 687.5 c 0
 235.998046875 680.5 259.831054688 670.666992188 285.498046875 658 c 0
 311.165039062 645.333007812 335.498046875 630.666015625 358.498046875 613.999023438 c 0
 381.498046875 597.33203125 403.665039062 576.499023438 424.998046875 551.499023438 c 0
 446.331054688 526.499023438 464.831054688 499.166015625 480.498046875 469.499023438 c 0
 496.165039062 439.83203125 508.665039062 404.499023438 517.998046875 363.499023438 c 0
 527.331054688 322.499023438 531.998046875 278.33203125 531.998046875 230.999023438 c 0
 531.998046875 207.666015625 528.831054688 183.999023438 522.498046875 159.999023438 c 0
 516.165039062 135.999023438 506.498046875 112.499023438 493.498046875 89.4990234375 c 0
 480.498046875 66.4990234375 465.331054688 45.9990234375 447.998046875 27.9990234375 c 0
 430.665039062 9.9990234375 409.83203125 -4.333984375 385.499023438 -15.0009765625 c 0
 361.166015625 -25.66796875 335.333007812 -31.0009765625 308 -31.0009765625 c 0
EndSplineSet
EndChar

StartChar: E
Encoding: 69 69 37
Width: 543
GlyphClass: 2
Flags: MW
HStem: -17.498 85.4132 -6.2352 90.7323 312.001 85.999 332.001 80.999 615.159 82.8417
VStem: 25.0049 97.4971
LayerCount: 2
Fore
SplineSet
468 -6 m 0x4c
 465.815429688 -5.87890625 463.068359375 -5.818359375 459.7578125 -5.818359375 c 0
 444.880859375 -5.818359375 418.630859375 -7.044921875 381.002929688 -9.4990234375 c 0
 335.002929688 -12.4990234375 284.502929688 -15.166015625 229.502929688 -17.4990234375 c 0
 199.88671875 -18.7548828125 173.701171875 -19.3828125 150.947265625 -19.3828125 c 0
 131.4453125 -19.3828125 114.463867188 -18.9208984375 100.002929688 -17.998046875 c 0
 84.669921875 -17.3310546875 69.3369140625 -9.8310546875 54.00390625 4.501953125 c 0
 38.6708984375 18.8349609375 29.6708984375 36.3349609375 27.00390625 57.001953125 c 0
 25.00390625 74.3349609375 24.00390625 105.501953125 24.00390625 150.501953125 c 0
 24.00390625 195.501953125 24.3369140625 243.334960938 25.00390625 294.001953125 c 0
 25.2265625 310.899414062 25.337890625 328.500976562 25.337890625 346.806640625 c 0
 25.337890625 383.391601562 24.8935546875 422.790039062 24.0048828125 465.001953125 c 0
 23.337890625 505.001953125 22.837890625 531.501953125 22.5048828125 544.501953125 c 0
 22.421875 547.750976562 22.3798828125 551.385742188 22.3798828125 555.405273438 c 0
 22.3798828125 567.467773438 22.7548828125 583 23.5048828125 602.000976562 c 0
 24.5048828125 627.333984375 25.0048828125 643.000976562 25.0048828125 649.000976562 c 0
 25.671875 667.000976562 30.671875 680.66796875 40.0048828125 690.000976562 c 0
 49.337890625 699.333984375 61.0048828125 704.000976562 75.0048828125 704.000976562 c 0
 75.91796875 704.036132812 76.8193359375 704.053710938 77.7099609375 704.053710938 c 0
 93.7314453125 704.053710938 106.163085938 698.369140625 115.004882812 687.000976562 c 1
 153.004882812 692.333984375 197.504882812 695.666992188 248.504882812 697 c 0
 274.004882812 697.666015625 298.046875 697.999023438 320.629882812 697.999023438 c 0
 343.212890625 697.999023438 364.337890625 697.666015625 384.00390625 697 c 0
 423.336914062 695.666992188 454.669921875 693.666992188 478.002929688 691 c 0
 494.002929688 689 505.002929688 685 511.002929688 679 c 0
 517.002929688 673 520.3359375 664.666992188 521.002929688 654 c 0
 521.002929688 648 520.3359375 642.333007812 519.002929688 637 c 0
 517.669921875 631.666992188 515.502929688 626.833984375 512.502929688 622.500976562 c 0
 509.502929688 618.16796875 505.002929688 614.66796875 499.002929688 612.000976562 c 0
 493.002929688 609.333984375 486.002929688 608.666992188 478.002929688 610 c 0
 431.829101562 613.438476562 385.383789062 615.158203125 338.666992188 615.158203125 c 0
 321.98046875 615.158203125 305.258789062 614.938476562 288.502929688 614.5 c 0
 224.8359375 612.833007812 170.3359375 608.666015625 125.002929688 601.999023438 c 1
 122.3359375 532.666015625 121.002929688 464.666015625 121.002929688 397.999023438 c 1xac
 169.669921875 397.999023438 236.002929688 400.499023438 320.002929688 405.499023438 c 0
 404.002929688 410.499023438 451.3359375 412.999023438 462.002929688 412.999023438 c 0
 477.3359375 412.999023438 488.168945312 409.666015625 494.501953125 402.999023438 c 0
 500.834960938 396.33203125 504.001953125 386.999023438 504.001953125 374.999023438 c 0
 504.001953125 346.318359375 490.6171875 331.977539062 463.848632812 331.977539062 c 0
 463.240234375 331.977539062 462.625 331.985351562 462.002929688 332 c 0x1c
 450.002929688 332 398.502929688 328.666992188 307.502929688 322 c 0
 216.502929688 315.333007812 154.669921875 312 122.002929688 312 c 1
 122.002929688 297.333007812 122.169921875 278.166015625 122.502929688 254.499023438 c 0
 122.8359375 230.83203125 123.168945312 210.499023438 123.501953125 193.499023438 c 0
 123.834960938 176.499023438 124.16796875 158.999023438 124.500976562 140.999023438 c 0
 124.833984375 122.999023438 125.500976562 108.166015625 126.500976562 96.4990234375 c 0
 127.500976562 84.83203125 129.000976562 76.6650390625 131.000976562 71.998046875 c 0
 141.112304688 69.275390625 163.079101562 67.9140625 196.900390625 67.9140625 c 0xac
 221.0546875 67.9140625 251.254882812 68.6083984375 287.500976562 69.9970703125 c 0
 374.500976562 73.330078125 430.333984375 77.6630859375 455.000976562 82.99609375 c 0
 464.333984375 84.3291015625 472.333984375 84.8291015625 479.000976562 84.49609375 c 0
 485.66796875 84.1630859375 491.500976562 82.830078125 496.500976562 80.4970703125 c 0
 501.500976562 78.1640625 505.500976562 75.6640625 508.500976562 72.9970703125 c 0
 511.500976562 70.330078125 513.833984375 66.830078125 515.500976562 62.4970703125 c 0
 517.16796875 58.1640625 518.500976562 54.3310546875 519.500976562 50.998046875 c 0
 520.500976562 47.6650390625 521.000976562 44.33203125 521.000976562 40.9990234375 c 0
 521.000976562 28.33203125 516.500976562 16.9990234375 507.500976562 6.9990234375 c 0
 499.559570312 -1.82421875 488.374023438 -6.2353515625 473.944335938 -6.2353515625 c 0
 472.020507812 -6.2353515625 470.0390625 -6.1572265625 468 -6 c 0x4c
EndSplineSet
EndChar

StartChar: F
Encoding: 70 70 38
Width: 543
GlyphClass: 2
Flags: MW
HStem: -21.0722 21G 322.534 84.6107 621.784 84.7164 694.192 20G
VStem: 26.7383 103.262 29.255 93.745
LayerCount: 2
Fore
SplineSet
130 24 m 0xe8
 128.666992188 10 122.172851562 -1.166015625 110.505859375 -9.4990234375 c 0
 99.703125 -17.21484375 87.615234375 -21.072265625 74.2412109375 -21.072265625 c 0
 73.1708984375 -21.072265625 72.091796875 -21.0478515625 71.0048828125 -20.998046875 c 0
 57.671875 -20.998046875 46.671875 -16.498046875 38.0048828125 -7.498046875 c 0
 30.4931640625 0.302734375 26.7373046875 10.732421875 26.7373046875 23.791015625 c 0xe8
 26.7373046875 25.7998046875 26.826171875 27.8701171875 27.00390625 30.0029296875 c 0
 28.50390625 52.001953125 29.25390625 89.09375 29.25390625 141.279296875 c 0
 29.25390625 158.676757812 29.1708984375 177.750976562 29.00390625 198.502929688 c 0
 28.3369140625 281.502929688 26.669921875 367.002929688 24.0029296875 455.002929688 c 0
 22.669921875 499.669921875 22.0029296875 529.669921875 22.0029296875 545.002929688 c 0
 22.0029296875 560.3359375 22.5029296875 581.002929688 23.5029296875 607.002929688 c 0
 24.5029296875 633.002929688 25.0029296875 650.669921875 25.0029296875 660.002929688 c 0
 25.669921875 678.002929688 30.669921875 691.502929688 40.0029296875 700.502929688 c 0
 49.3359375 709.502929688 61.0029296875 714.002929688 75.0029296875 714.002929688 c 0
 76.716796875 714.129882812 78.3916015625 714.193359375 80.02734375 714.193359375 c 0xd4
 95.56640625 714.193359375 107.55859375 708.462890625 116.002929688 697.001953125 c 1
 181.3359375 701.668945312 247.502929688 704.668945312 314.502929688 706.001953125 c 0
 331.251953125 706.334960938 347.241210938 706.501953125 362.469726562 706.501953125 c 0
 408.158203125 706.501953125 447.002929688 705.001953125 479.00390625 702.001953125 c 0
 494.336914062 700.668945312 505.169921875 696.8359375 511.502929688 690.502929688 c 0
 517.8359375 684.169921875 521.002929688 675.336914062 521.002929688 664.00390625 c 0
 521.002929688 651.336914062 517.3359375 640.669921875 510.002929688 632.002929688 c 0
 502.669921875 623.3359375 491.002929688 619.002929688 475.002929688 619.002929688 c 0
 437.669921875 620.857421875 399.20703125 621.78515625 359.615234375 621.78515625 c 0
 285.380859375 621.78515625 207.176757812 618.524414062 125.002929688 612.002929688 c 1
 125.002929688 600.669921875 124.669921875 582.502929688 124.002929688 557.502929688 c 0
 123.3359375 532.502929688 122.668945312 507.002929688 122.001953125 481.002929688 c 0
 121.66796875 468.002929688 121.500976562 454.919921875 121.500976562 441.752929688 c 0
 121.500976562 428.5859375 121.66796875 415.3359375 122.001953125 402.001953125 c 1
 152.286132812 405.430664062 185.508789062 407.145507812 221.669921875 407.145507812 c 0
 227.698242188 407.145507812 233.80859375 407.09765625 240.000976562 407.001953125 c 0
 283.333984375 406.334960938 322.666992188 404.501953125 358 401.501953125 c 0
 393.333007812 398.501953125 421 395.334960938 441 392.001953125 c 0
 457 389.334960938 468 385.001953125 474 379.001953125 c 0
 480 373.001953125 483.333007812 364.668945312 484 354.001953125 c 0
 484 348.001953125 483.5 342.501953125 482.5 337.501953125 c 0
 481.5 332.501953125 479.666992188 327.668945312 477 323.001953125 c 0
 474.333007812 318.334960938 470 314.834960938 464 312.501953125 c 0
 458 310.168945312 450.333007812 309.3359375 441 310.002929688 c 0
 420.333007812 313.3359375 392 316.168945312 356 318.501953125 c 0
 320 320.834960938 279.5 322.16796875 234.5 322.500976562 c 0
 231.502929688 322.5234375 228.541015625 322.534179688 225.61328125 322.534179688 c 0
 184.583984375 322.534179688 150.37890625 320.356445312 123 316 c 1xe4
 127 139.333007812 129.333007812 42 130 24 c 0xe8
EndSplineSet
EndChar

StartChar: G
Encoding: 71 71 39
Width: 543
GlyphClass: 2
Flags: MW
HStem: -31.0616 90.0616 278 81.8571 643.002 80.999
VStem: 12.9951 100.001
LayerCount: 2
Fore
SplineSet
501 244 m 0
 499.666992188 230 495.4921875 213.669921875 488.4921875 195.002929688 c 0
 481.4921875 176.3359375 472.825195312 156.502929688 462.4921875 135.502929688 c 0
 452.159179688 114.502929688 438.826171875 94.169921875 422.493164062 74.5029296875 c 0
 406.16015625 54.8359375 388.993164062 37.0029296875 370.993164062 21.0029296875 c 0
 352.993164062 5.0029296875 331.993164062 -7.830078125 307.993164062 -17.4970703125 c 0
 285.541992188 -26.5400390625 263.3828125 -31.0615234375 241.515625 -31.0615234375 c 0
 240.006835938 -31.0615234375 238.499023438 -31.0400390625 236.993164062 -30.9970703125 c 0
 209.66015625 -30.9970703125 183.827148438 -26.330078125 159.494140625 -16.9970703125 c 0
 135.161132812 -7.6640625 114.328125 4.6689453125 96.9951171875 20.001953125 c 0
 79.662109375 35.3349609375 64.4951171875 53.16796875 51.4951171875 73.5009765625 c 0
 38.4951171875 93.833984375 28.828125 115.500976562 22.4951171875 138.500976562 c 0
 16.162109375 161.500976562 12.9951171875 184.66796875 12.9951171875 208.000976562 c 0
 12.9951171875 257.333984375 17.828125 305.333984375 27.4951171875 352.000976562 c 0
 37.162109375 398.66796875 50.662109375 440.66796875 67.9951171875 478.000976562 c 0
 85.328125 515.333984375 105.328125 549.500976562 127.995117188 580.500976562 c 0
 150.662109375 611.500976562 174.829101562 637.500976562 200.49609375 658.500976562 c 0
 226.163085938 679.500976562 252.330078125 695.66796875 278.997070312 707.000976562 c 0
 305.6640625 718.333984375 331.331054688 724.000976562 355.998046875 724.000976562 c 0
 383.998046875 724.000976562 415.165039062 717.500976562 449.498046875 704.500976562 c 0
 483.831054688 691.500976562 506.331054688 680.333984375 516.998046875 671.000976562 c 0
 526.776367188 661.22265625 531.665039062 649.518554688 531.665039062 635.888671875 c 0
 531.665039062 629.07421875 530.443359375 621.778320312 527.999023438 614.000976562 c 0
 525.33203125 605.333984375 518.999023438 599.000976562 508.999023438 595.000976562 c 0
 503.999023438 593.000976562 498.83203125 592.000976562 493.499023438 592.000976562 c 0
 488.166015625 592.000976562 482.666015625 593.000976562 477 595.000976562 c 0
 473 596.333984375 463.833007812 601.333984375 449.5 610.000976562 c 0
 435.166992188 618.66796875 420.5 626.334960938 405.5 633.001953125 c 0
 390.5 639.668945312 376.666992188 643.001953125 364 643.001953125 c 0
 343.333007812 643.001953125 321.166015625 636.168945312 297.499023438 622.501953125 c 0
 273.83203125 608.834960938 251.165039062 589.16796875 229.498046875 563.500976562 c 0
 207.831054688 537.833984375 188.1640625 508.666992188 170.497070312 476 c 0
 152.830078125 443.333007812 138.830078125 406.333007812 128.497070312 365 c 0
 118.1640625 323.666992188 112.997070312 282 112.997070312 240 c 0
 112.997070312 210.666992188 118.6640625 182 129.997070312 154 c 0
 141.330078125 126 157.497070312 103.166992188 178.497070312 85.5 c 0
 199.497070312 67.8330078125 222.6640625 59 247.997070312 59 c 0
 263.997070312 59 280.497070312 64.1669921875 297.497070312 74.5 c 0
 314.497070312 84.8330078125 329.6640625 98 342.997070312 114 c 0
 356.330078125 130 368.830078125 148 380.497070312 168 c 0
 392.1640625 188 402.1640625 207.333007812 410.497070312 226 c 0
 418.830078125 244.666992188 425.330078125 262 429.997070312 278 c 1
 387.997070312 276 346.830078125 272.333007812 306.497070312 267 c 0
 266.1640625 261.666992188 238.331054688 254.666992188 222.998046875 246 c 0
 217.629882812 243.158203125 212.374023438 241.737304688 207.23046875 241.737304688 c 0
 201.514648438 241.737304688 195.9375 243.491210938 190.499023438 247 c 0
 180.166015625 253.666992188 174.333007812 262.666992188 173 274 c 0
 172.509765625 277.1015625 172.264648438 280.118164062 172.264648438 283.05078125 c 0
 172.264648438 304.064453125 184.842773438 320.713867188 209.999023438 333 c 0
 228.666015625 342.333007812 269.499023438 349.5 332.499023438 354.5 c 0
 377.499023438 358.071289062 415.44140625 359.857421875 446.326171875 359.857421875 c 0
 458.6796875 359.857421875 469.904296875 359.571289062 479.999023438 359 c 0
 496.666015625 358.333007812 508.166015625 355.5 514.499023438 350.5 c 0
 520.83203125 345.5 525.33203125 337.666992188 527.999023438 327 c 0
 528.354492188 323.7109375 528.532226562 320.587890625 528.532226562 317.630859375 c 0
 528.532226562 298.41015625 521.021484375 286.200195312 506 281 c 0
 506 279 505.166992188 273.666992188 503.5 265 c 0
 501.833007812 256.333007812 501 249.333007812 501 244 c 0
EndSplineSet
EndChar

StartChar: H
Encoding: 72 72 40
Width: 543
GlyphClass: 2
Flags: MW
HStem: -21.0741 21G 311.999 86.001 694.074 20G
VStem: 39.9971 98.002 411.09 99.5773
LayerCount: 2
Fore
SplineSet
504 24 m 0
 502.666992188 10 496.166015625 -1.169921875 484.499023438 -9.5029296875 c 0
 473.696289062 -17.21875 461.89453125 -21.076171875 449.091796875 -21.076171875 c 0
 448.067382812 -21.076171875 447.036132812 -21.0517578125 445.999023438 -21.001953125 c 0
 432.666015625 -21.001953125 421.666015625 -16.501953125 412.999023438 -7.501953125 c 0
 405.487304688 0.2978515625 401.731445312 10.7275390625 401.731445312 23.7861328125 c 0
 401.731445312 25.794921875 401.8203125 27.865234375 401.998046875 29.998046875 c 0
 408.05859375 114.237304688 411.088867188 207.841796875 411.088867188 310.811523438 c 0
 411.088867188 321.11328125 411.05859375 331.508789062 410.998046875 341.998046875 c 1
 399.665039062 341.331054688 358.83203125 336.1640625 288.499023438 326.497070312 c 0
 218.166015625 316.830078125 167.999023438 311.997070312 137.999023438 311.997070312 c 1
 137.999023438 309.997070312 137.83203125 306.497070312 137.499023438 301.497070312 c 0
 137.166015625 296.497070312 136.999023438 292.997070312 136.999023438 290.997070312 c 0
 134.999023438 257.997070312 133.999023438 219.247070312 133.999023438 174.747070312 c 0
 133.999023438 130.247070312 134.999023438 79.9970703125 136.999023438 23.9970703125 c 0
 135.666015625 9.9970703125 128.999023438 -1.169921875 116.999023438 -9.5029296875 c 0
 105.888671875 -17.21875 93.9208984375 -21.076171875 81.095703125 -21.076171875 c 0
 80.0693359375 -21.076171875 79.037109375 -21.0517578125 78 -21.001953125 c 0
 64.6669921875 -21.001953125 53.6669921875 -16.501953125 45 -7.501953125 c 0
 37.48828125 0.298828125 33.732421875 10.728515625 33.732421875 23.787109375 c 0
 33.732421875 25.7958984375 33.8212890625 27.8662109375 33.9990234375 29.9990234375 c 0
 34.666015625 39.33203125 35.166015625 54.33203125 35.4990234375 74.9990234375 c 0
 35.83203125 95.666015625 35.9990234375 123.333007812 35.9990234375 158 c 0
 35.9990234375 192.666992188 36.33203125 224 36.9990234375 252 c 0
 36.9990234375 274.666992188 37.666015625 307.166992188 38.9990234375 349.5 c 0
 40.33203125 391.833007812 41.1650390625 423.166015625 41.498046875 443.499023438 c 0
 41.609375 450.270507812 41.6650390625 458.168945312 41.6650390625 467.1953125 c 0
 41.6650390625 485.2734375 41.4423828125 507.875 40.9970703125 535 c 0
 40.330078125 565 39.9970703125 584.166992188 39.9970703125 592.5 c 0
 39.9970703125 600.833007812 40.330078125 612.333007812 40.9970703125 627 c 0
 41.6640625 641.666992188 42.3310546875 652.666992188 42.998046875 660 c 0
 43.6650390625 678 48.498046875 691.5 57.498046875 700.5 c 0
 66.498046875 709.5 77.998046875 714 91.998046875 714 c 0
 93.0849609375 714.049804688 94.158203125 714.07421875 95.2177734375 714.07421875 c 0
 108.455078125 714.07421875 119.548828125 710.216796875 128.499023438 702.500976562 c 0
 138.166015625 694.16796875 142.999023438 681.000976562 142.999023438 663.000976562 c 0
 142.999023438 656.333984375 142.166015625 642.000976562 140.499023438 620.000976562 c 0
 138.83203125 598.000976562 137.999023438 577.66796875 137.999023438 559.000976562 c 0
 137.999023438 541.66796875 138.33203125 515.16796875 138.999023438 479.500976562 c 0
 139.666015625 443.833984375 139.999023438 416.666992188 139.999023438 398 c 1
 174.666015625 398 210.333007812 400 247 404 c 0
 283.666992188 408 317 412 347 416 c 0
 377 420 398 422.666992188 410 424 c 1
 410 428.666992188 409.666992188 435.5 409 444.5 c 0
 408.333007812 453.5 408 460.333007812 408 465 c 0
 407.333007812 506.333007812 407 533.666015625 407 546.999023438 c 0
 407 560.33203125 407.5 580.999023438 408.5 608.999023438 c 0
 409.5 636.999023438 410.333007812 653.999023438 411 659.999023438 c 0
 411 677.999023438 415.833007812 691.499023438 425.5 700.499023438 c 0
 435.166992188 709.499023438 446.666992188 713.999023438 460 713.999023438 c 0
 461.086914062 714.048828125 462.16015625 714.073242188 463.219726562 714.073242188 c 0
 476.45703125 714.073242188 487.55078125 710.215820312 496.500976562 702.5 c 0
 506.16796875 694.166992188 511.000976562 681 511.000976562 663 c 0
 511.000976562 650.333007812 510.66796875 624.333007812 510.000976562 585 c 0
 509.333984375 545.666992188 508.833984375 511.166992188 508.500976562 481.5 c 0
 508.434570312 475.5703125 508.401367188 469.114257812 508.401367188 462.131835938 c 0
 508.401367188 434.18359375 508.934570312 397.806640625 510.000976562 353 c 0
 510.4453125 337.448242188 510.666992188 320.267578125 510.666992188 301.458007812 c 0
 510.666992188 263.825195312 509.778320312 219.672851562 508 169 c 0
 505.333007812 93 504 44.6669921875 504 24 c 0
EndSplineSet
EndChar

StartChar: I
Encoding: 73 73 41
Width: 543
GlyphClass: 2
Flags: MW
HStem: -13.998 80.001 -6.39919 77.8992 612.001 89.001 625.002 85.3327
VStem: 217.007 101.995 225.073 100.596
LayerCount: 2
Fore
SplineSet
480 -11 m 0x68
 462.666992188 -8.3330078125 434.177734375 -6.8310546875 394.510742188 -6.498046875 c 0
 386.58203125 -6.431640625 378.70703125 -6.3984375 370.884765625 -6.3984375 c 0x68
 339.573242188 -6.3984375 309.115234375 -6.931640625 279.510742188 -7.998046875 c 0
 242.510742188 -9.3310546875 202.84375 -10.6640625 160.510742188 -11.9970703125 c 0
 118.177734375 -13.330078125 88.677734375 -13.9970703125 72.0107421875 -13.9970703125 c 0
 54.677734375 -13.9970703125 42.0107421875 -10.6640625 34.0107421875 -3.9970703125 c 0
 22.2138671875 5.833984375 21.927734375 17.4921875 21.927734375 24.966796875 c 0
 21.927734375 35.6865234375 25.2880859375 44.865234375 32.009765625 52.50390625 c 0
 39.3427734375 60.8369140625 51.67578125 65.3369140625 69.0087890625 66.00390625 c 0
 97.0087890625 67.3369140625 146.341796875 69.00390625 217.008789062 71.00390625 c 1x88
 222.385742188 154.600585938 225.07421875 241.782226562 225.07421875 332.547851562 c 0
 225.07421875 365.559570312 224.71875 399.044921875 224.0078125 433.004882812 c 0
 223.340820312 457.004882812 222.840820312 479.671875 222.5078125 501.004882812 c 0
 222.174804688 522.337890625 222.0078125 537.670898438 222.0078125 547.00390625 c 0
 222.0078125 556.336914062 222.674804688 570.836914062 224.0078125 590.50390625 c 0
 225.340820312 610.170898438 226.0078125 621.670898438 226.0078125 625.00390625 c 0
 195.673828125 625.669921875 168.33984375 626.002929688 144.005859375 626.002929688 c 0
 119.671875 626.002929688 98.337890625 625.669921875 80.0048828125 625.002929688 c 0
 63.337890625 625.002929688 50.5048828125 628.669921875 41.5048828125 636.002929688 c 0
 28.23046875 646.818359375 27.9306640625 659.26953125 27.9306640625 666.641601562 c 0
 27.9306640625 677.5234375 31.7880859375 686.9765625 39.50390625 695.000976562 c 0
 47.8369140625 703.66796875 61.00390625 708.000976562 79.00390625 708.000976562 c 0
 134.563476562 709.556640625 186.270507812 710.334960938 234.125 710.334960938 c 0x94
 329.82421875 710.334960938 410.1171875 707.223632812 475.00390625 701.001953125 c 0
 504.336914062 698.334960938 519.669921875 684.66796875 521.002929688 660.000976562 c 0
 521.002929688 654.000976562 520.169921875 648.16796875 518.502929688 642.500976562 c 0
 516.8359375 636.833984375 514.002929688 631.333984375 510.002929688 626.000976562 c 0
 506.002929688 620.66796875 500.669921875 616.500976562 494.002929688 613.500976562 c 0
 487.3359375 610.500976562 480.3359375 610.000976562 473.002929688 612.000976562 c 0
 453.002929688 615.333984375 404.002929688 619.000976562 326.002929688 623.000976562 c 1
 326.002929688 617.66796875 325.669921875 602.66796875 325.002929688 578.000976562 c 0
 324.3359375 553.333984375 324.002929688 533.666992188 324.002929688 519 c 2
 324.002929688 456 l 2
 324.002929688 428.666992188 324.3359375 401.666992188 325.002929688 375 c 0
 325.447265625 359.2265625 325.668945312 342.157226562 325.668945312 323.791992188 c 0x24
 325.668945312 287.047851562 324.780273438 245.1171875 323.001953125 198 c 0
 320.334960938 127.333007812 319.001953125 85.3330078125 319.001953125 72 c 1
 347.668945312 72 381.001953125 71.8330078125 419.001953125 71.5 c 0
 457.001953125 71.1669921875 477.334960938 71 480.001953125 71 c 0
 495.334960938 71 506.16796875 67.5 512.500976562 60.5 c 0
 518.833984375 53.5 522.000976562 44.3330078125 522.000976562 33 c 0
 522.000976562 27 521.66796875 21.5 521.000976562 16.5 c 0
 520.333984375 11.5 518.333984375 6.5 515.000976562 1.5 c 0
 511.66796875 -3.5 507.16796875 -7.1669921875 501.500976562 -9.5 c 0
 495.833984375 -11.8330078125 488.666992188 -12.3330078125 480 -11 c 0x68
EndSplineSet
EndChar

StartChar: J
Encoding: 74 74 42
Width: 543
GlyphClass: 2
Flags: MW
HStem: -35.001 101.001 625 82.999
VStem: 19.0039 89 282.003 93.9971
LayerCount: 2
Fore
SplineSet
373 215 m 0
 367.666992188 155 359.66796875 106.33203125 349.000976562 68.9990234375 c 0
 338.333984375 31.666015625 325.333984375 4.9990234375 310.000976562 -11.0009765625 c 0
 294.66796875 -27.0009765625 276.66796875 -35.0009765625 256.000976562 -35.0009765625 c 0
 233.333984375 -35.0009765625 211.000976562 -31.0009765625 189.000976562 -23.0009765625 c 0
 167.000976562 -15.0009765625 147.833984375 -4.333984375 131.500976562 8.9990234375 c 0
 115.16796875 22.33203125 100.000976562 36.83203125 86.0009765625 52.4990234375 c 0
 72.0009765625 68.166015625 60.333984375 83.8330078125 51.0009765625 99.5 c 0
 41.66796875 115.166992188 34.3349609375 129.166992188 29.001953125 141.5 c 0
 23.6689453125 153.833007812 20.6689453125 163.666015625 20.001953125 170.999023438 c 0
 18.6689453125 176.999023438 18.3359375 184.166015625 19.0029296875 192.499023438 c 0
 19.669921875 200.83203125 21.169921875 208.665039062 23.5029296875 215.998046875 c 0
 25.8359375 223.331054688 29.8359375 229.831054688 35.5029296875 235.498046875 c 0
 41.169921875 241.165039062 49.0029296875 244.665039062 59.0029296875 245.998046875 c 0
 62.55859375 246.64453125 65.9482421875 246.967773438 69.1708984375 246.967773438 c 0
 79.2412109375 246.967773438 87.6845703125 243.811523438 94.5029296875 237.499023438 c 0
 103.502929688 229.166015625 108.002929688 218.666015625 108.002929688 205.999023438 c 0
 108.002929688 198.666015625 109.3359375 189.833007812 112.002929688 179.5 c 0
 114.669921875 169.166992188 119.169921875 157.166992188 125.502929688 143.5 c 0
 131.8359375 129.833007812 139.668945312 117.333007812 149.001953125 106 c 0
 158.334960938 94.6669921875 171.501953125 85.1669921875 188.501953125 77.5 c 0
 205.501953125 69.8330078125 223.668945312 66 243.001953125 66 c 0
 267.001953125 66 280.668945312 124 284.001953125 240 c 0
 284.001953125 254.666992188 283.334960938 301.666992188 282.001953125 381 c 0
 281.3359375 420.666015625 281.002929688 460.749023438 281.002929688 501.249023438 c 0
 281.002929688 541.749023438 281.3359375 582.666015625 282.001953125 624 c 1
 237.203125 625.200195312 195.5234375 625.799804688 156.963867188 625.799804688 c 0
 131.256835938 625.799804688 106.936523438 625.533203125 84.0029296875 625 c 0
 67.3359375 625 54.6689453125 628.666992188 46.001953125 636 c 0
 33.2734375 646.76953125 32.927734375 659.155273438 32.927734375 666.639648438 c 0
 32.927734375 677.521484375 36.78515625 686.974609375 44.5009765625 694.999023438 c 0
 52.833984375 703.666015625 65.6669921875 707.999023438 83 707.999023438 c 0
 138.559570312 709.5546875 190.229492188 710.333007812 238.009765625 710.333007812 c 0
 333.561523438 710.333007812 413.55859375 707.221679688 478.000976562 701 c 0
 507.333984375 698.333007812 523.000976562 684.666015625 525.000976562 659.999023438 c 0
 525.000976562 653.999023438 524.000976562 648.166015625 522.000976562 642.499023438 c 0
 520.000976562 636.83203125 517.333984375 631.33203125 514.000976562 625.999023438 c 0
 510.66796875 620.666015625 505.66796875 616.499023438 499.000976562 613.499023438 c 0
 492.333984375 610.499023438 484.666992188 609.999023438 476 611.999023438 c 0
 452.666992188 615.33203125 417 618.33203125 369 620.999023438 c 1
 369 601.666015625 369.666992188 572.333007812 371 533 c 0
 372.333007812 493.666992188 373.5 457.833984375 374.5 425.500976562 c 0
 375.5 393.16796875 376 357.16796875 376 317.500976562 c 0
 376 277.833984375 375 243.666992188 373 215 c 0
EndSplineSet
EndChar

StartChar: K
Encoding: 75 75 43
Width: 543
GlyphClass: 2
Flags: MW
HStem: -21.0751 21G 694.072 20G
VStem: 28.7354 95.2646
LayerCount: 2
Fore
SplineSet
132 24 m 0
 130.666992188 10 124.171875 -1.16796875 112.504882812 -9.5009765625 c 0
 101.702148438 -17.216796875 89.6142578125 -21.07421875 76.240234375 -21.07421875 c 0
 75.169921875 -21.07421875 74.0908203125 -21.0498046875 73.00390625 -21 c 0
 59.6708984375 -21 48.6708984375 -16.5 40.00390625 -7.5 c 0
 32.4921875 0.30078125 28.736328125 10.73046875 28.736328125 23.7890625 c 0
 28.736328125 25.7978515625 28.8251953125 27.8681640625 29.0029296875 30.0009765625 c 0
 30.5029296875 52 31.2529296875 89.091796875 31.2529296875 141.276367188 c 0
 31.2529296875 158.673828125 31.169921875 177.748046875 31.0029296875 198.5 c 0
 30.3359375 281.5 28.6689453125 367 26.001953125 455 c 0
 24.6689453125 497.666992188 24.001953125 526.5 24.001953125 541.5 c 0
 24.001953125 556.5 24.501953125 578.166992188 25.501953125 606.5 c 0
 26.501953125 634.833007812 27.001953125 652.666015625 27.001953125 659.999023438 c 0
 27.6689453125 677.999023438 32.6689453125 691.499023438 42.001953125 700.499023438 c 0
 51.3349609375 709.499023438 63.001953125 713.999023438 77.001953125 713.999023438 c 0
 78.0888671875 714.048828125 79.162109375 714.073242188 80.2216796875 714.073242188 c 0
 93.458984375 714.073242188 104.552734375 710.215820312 113.502929688 702.5 c 0
 123.169921875 694.166992188 128.002929688 681 128.002929688 663 c 0
 128.002929688 647 127.3359375 612 126.002929688 558 c 0
 124.669921875 504 124.002929688 459.333007812 124.002929688 424 c 1
 148.002929688 447.333007812 184.002929688 482.666015625 232.002929688 529.999023438 c 0
 280.002929688 577.33203125 318.3359375 614.83203125 347.002929688 642.499023438 c 0
 375.669921875 670.166015625 394.002929688 687.333007812 402.002929688 694 c 0
 411.3359375 702.666992188 420.3359375 708.5 429.002929688 711.5 c 0
 437.669921875 714.5 445.169921875 715.166992188 451.502929688 713.5 c 0
 457.8359375 711.833007812 463.668945312 708.333007812 469.001953125 703 c 0
 476.512695312 694.911132812 480.268554688 685.946289062 480.268554688 676.10546875 c 0
 480.268554688 663.235351562 473.845703125 648.8671875 461.000976562 633 c 0
 451.000976562 621 415.66796875 584.5 355.000976562 523.5 c 0
 294.333984375 462.5 240.333984375 409.333007812 193.000976562 364 c 1
 215.66796875 340 254.16796875 302.5 308.500976562 251.5 c 0
 362.833984375 200.5 410.000976562 155.666992188 450.000976562 117 c 0
 490.000976562 78.3330078125 512.333984375 54 517.000976562 44 c 0
 519.000976562 37.666015625 520.000976562 31.666015625 520.000976562 25.9990234375 c 0
 520.000976562 20.33203125 519.000976562 14.9990234375 517.000976562 9.9990234375 c 0
 513.000976562 -0.0009765625 507.000976562 -7.66796875 499.000976562 -13.0009765625 c 0
 490.725585938 -18.5986328125 482.495117188 -21.3974609375 474.30859375 -21.3974609375 c 0
 460.071289062 -21.3974609375 445.96875 -12.931640625 432 4 c 0
 425.333007812 12.6669921875 401.5 35.6669921875 360.5 73 c 0
 319.5 110.333007812 275.333007812 151.5 228 196.5 c 0
 180.666992188 241.5 146 277.333007812 124 304 c 1
 124 284 l 2
 124 272.666992188 126.666992188 186 132 24 c 0
EndSplineSet
EndChar

StartChar: L
Encoding: 76 76 44
Width: 543
GlyphClass: 2
Flags: MW
HStem: -15.0049 86.9159
VStem: 23.998 103.002 53.7979 91.7021
LayerCount: 2
Fore
SplineSet
477 10 m 0xc0
 431.666992188 1.3330078125 362.999023438 -5.005859375 270.999023438 -9.005859375 c 0
 178.999023438 -13.005859375 111.33203125 -15.005859375 67.9990234375 -15.005859375 c 0
 54.666015625 -15.005859375 43.666015625 -10.505859375 34.9990234375 -1.505859375 c 0
 27.4873046875 6.294921875 23.7314453125 16.724609375 23.7314453125 29.783203125 c 0
 23.7314453125 31.7919921875 23.8203125 33.8623046875 23.998046875 35.9951171875 c 0xc0
 23.998046875 41.328125 27.8310546875 79.4951171875 35.498046875 150.495117188 c 0
 43.1650390625 221.495117188 48.6650390625 289.995117188 51.998046875 355.995117188 c 0
 53.1982421875 373.995117188 53.7978515625 400.994140625 53.7978515625 436.993164062 c 0
 53.7978515625 460.993164062 53.53125 488.994140625 52.998046875 520.995117188 c 0
 51.6650390625 600.995117188 50.998046875 644.328125 50.998046875 650.995117188 c 0
 51.6650390625 668.995117188 56.83203125 682.662109375 66.4990234375 691.995117188 c 0
 76.166015625 701.328125 87.666015625 705.995117188 100.999023438 705.995117188 c 0
 102.0859375 706.044921875 103.159179688 706.069335938 104.21875 706.069335938 c 0
 117.456054688 706.069335938 128.549804688 702.211914062 137.5 694.49609375 c 0
 147.166992188 686.163085938 152 672.99609375 152 654.99609375 c 0
 152 635.663085938 151.333007812 609.330078125 150 575.997070312 c 0
 148.666992188 542.6640625 147.166992188 500.6640625 145.5 449.997070312 c 0xa0
 143.833007812 399.330078125 142.333007812 355.330078125 141 317.997070312 c 0
 140.333007812 289.997070312 137.833007812 249.330078125 133.5 195.997070312 c 0
 129.166992188 142.6640625 127 101.331054688 127 71.998046875 c 1
 131.87109375 71.9404296875 136.811523438 71.9111328125 141.821289062 71.9111328125 c 0
 194.40625 71.9111328125 254.6328125 75.107421875 322.5 81.498046875 c 0
 396.833007812 88.498046875 446.333007812 95.3310546875 471 101.998046875 c 0
 479 103.998046875 486.166992188 103.665039062 492.5 100.998046875 c 0
 498.833007812 98.3310546875 503.833007812 94.3310546875 507.5 88.998046875 c 0
 511.166992188 83.6650390625 514.166992188 77.83203125 516.5 71.4990234375 c 0
 518.833007812 65.166015625 520 59.3330078125 520 54 c 0
 520 42 517 32.3330078125 511 25 c 0
 505 17.6669921875 493.666992188 12.6669921875 477 10 c 0xc0
EndSplineSet
EndChar

StartChar: M
Encoding: 77 77 45
Width: 543
GlyphClass: 2
Flags: MW
HStem: -9.99414 21G<42.001 48.6675>
VStem: 5.99902 83.001 218.001 104.999
LayerCount: 2
Fore
SplineSet
89 59 m 0
 89.044921875 57.578125 89.068359375 56.17578125 89.068359375 54.7939453125 c 0
 89.068359375 35.443359375 84.7109375 20.0166015625 76 8.505859375 c 0
 66.6669921875 -3.8271484375 55.333984375 -9.994140625 42.0009765625 -9.994140625 c 0
 18.0009765625 -9.3271484375 6.0009765625 15.33984375 6.0009765625 64.0068359375 c 0
 6.0009765625 72.0068359375 7.0009765625 85.673828125 9.0009765625 105.006835938 c 0
 11.0009765625 124.33984375 13.5009765625 149.672851562 16.5009765625 181.005859375 c 0
 19.5009765625 212.338867188 22.0009765625 239.671875 24.0009765625 263.004882812 c 0
 24.66796875 271.004882812 25.66796875 283.337890625 27.0009765625 300.004882812 c 0
 31.0009765625 349.337890625 34.16796875 387.837890625 36.5009765625 415.504882812 c 0
 38.833984375 443.171875 42.333984375 477.671875 47.0009765625 519.004882812 c 0
 51.66796875 560.337890625 55.8349609375 592.837890625 59.501953125 616.504882812 c 0
 63.1689453125 640.171875 67.6689453125 656.671875 73.001953125 666.004882812 c 0
 79.6689453125 680.004882812 89.8359375 690.171875 103.502929688 696.504882812 c 0
 114.79296875 701.736328125 125.7421875 704.352539062 136.350585938 704.352539062 c 0
 138.583007812 704.352539062 140.80078125 704.236328125 143.002929688 704.004882812 c 0
 173.002929688 704.004882812 191.669921875 691.671875 199.002929688 667.004882812 c 0
 207.002929688 637.671875 215.669921875 589.171875 225.002929688 521.504882812 c 0
 234.3359375 453.837890625 243.8359375 376.670898438 253.502929688 290.00390625 c 0
 263.169921875 203.336914062 270.002929688 146.00390625 274.002929688 118.00390625 c 1
 280.669921875 212.00390625 288.336914062 296.670898438 297.00390625 372.00390625 c 0
 303.00390625 427.336914062 311.170898438 483.00390625 321.50390625 539.00390625 c 0
 331.836914062 595.00390625 341.00390625 637.670898438 349.00390625 667.00390625 c 0
 351.670898438 677.00390625 357.170898438 685.170898438 365.50390625 691.50390625 c 0
 373.836914062 697.836914062 382.669921875 701.669921875 392.002929688 703.002929688 c 0
 398.223632812 703.891601562 404 704.3359375 409.33203125 704.3359375 c 0
 412 704.3359375 414.556640625 704.224609375 417.001953125 704.001953125 c 2
 421.001953125 704.001953125 l 1
 434.501953125 704.001953125 l 2
 438.168945312 704.001953125 443.168945312 703.168945312 449.501953125 701.501953125 c 0
 455.834960938 699.834960938 461.001953125 697.66796875 465.001953125 695.000976562 c 0
 469.001953125 692.333984375 472.668945312 688.166992188 476.001953125 682.5 c 0
 479.334960938 676.833007812 481.66796875 670 483.000976562 662 c 0
 485.66796875 642 493.334960938 544.333007812 506.001953125 369 c 0
 518.668945312 193.666992188 528.001953125 94.6669921875 534.001953125 72 c 0
 536.668945312 60.5712890625 538.001953125 50.33984375 538.001953125 41.3056640625 c 0
 538.001953125 18.720703125 529.668945312 3.6181640625 513.001953125 -4.0009765625 c 0
 507.2109375 -6.4384765625 501.419921875 -7.6572265625 495.62890625 -7.6572265625 c 2
 475 -2.5 l 2
 462.333007812 3.8330078125 453 17.666015625 447 38.9990234375 c 0
 433 83.666015625 420.666992188 278.333007812 410 623 c 1
 390.666992188 526.333007812 378 438.333007812 372 359 c 0
 366 283 357.833007812 210.833007812 347.5 142.5 c 0
 337.166992188 74.1669921875 329 32.333984375 323 17.0009765625 c 0
 315.666992188 1.0009765625 297 -6.9990234375 267 -6.9990234375 c 0
 265.333007812 -7.08203125 263.705078125 -7.1240234375 262.116210938 -7.1240234375 c 0
 250.997070312 -7.1240234375 241.791992188 -5.08203125 234.500976562 -0.9990234375 c 0
 226.16796875 3.66796875 220.66796875 10.3349609375 218.000976562 19.001953125 c 0
 210.000976562 51.001953125 196.66796875 124.501953125 178.000976562 239.501953125 c 0
 159.333984375 354.501953125 142.333984375 464.668945312 127.000976562 570.001953125 c 1
 125.000976562 548.668945312 123.16796875 524.668945312 121.500976562 498.001953125 c 0
 119.833984375 471.334960938 118.333984375 448.16796875 117.000976562 428.500976562 c 0
 115.66796875 408.833984375 113.500976562 379.666992188 110.500976562 341 c 0
 107.500976562 302.333007812 105.333984375 273 104.000976562 253 c 0
 102.66796875 225 100.66796875 196.166992188 98.0009765625 166.5 c 0
 95.333984375 136.833007812 93.1669921875 113.5 91.5 96.5 c 0
 89.8330078125 79.5 89 67 89 59 c 0
EndSplineSet
EndChar

StartChar: N
Encoding: 78 78 46
Width: 543
GlyphClass: 2
Flags: MW
HStem: -14.1178 21G
VStem: 26.001 82.7479 425.421 92.5787 435.002 83.18
LayerCount: 2
Fore
SplineSet
444 -14 m 0xd0
 442.5078125 -14.078125 441.045898438 -14.1181640625 439.614257812 -14.1181640625 c 0
 428.888671875 -14.1181640625 419.848632812 -11.9140625 412.497070312 -7.5029296875 c 0
 404.1640625 -2.5029296875 398.331054688 4.330078125 394.998046875 12.9970703125 c 0
 388.998046875 26.330078125 372.998046875 55.6630859375 346.998046875 100.99609375 c 0
 320.998046875 146.329101562 294.165039062 193.49609375 266.498046875 242.49609375 c 0
 238.831054688 291.49609375 209.831054688 346.329101562 179.498046875 406.99609375 c 0
 149.165039062 467.663085938 126.33203125 519.330078125 110.999023438 561.997070312 c 1
 114.19921875 503.86328125 115.798828125 448.9296875 115.798828125 397.196289062 c 0
 115.798828125 384.262695312 115.69921875 371.529296875 115.499023438 358.99609375 c 0
 114.499023438 296.329101562 112.999023438 232.49609375 110.999023438 167.49609375 c 0
 109.499023438 118.748046875 108.749023438 84.3427734375 108.749023438 64.2802734375 c 0
 108.749023438 55.919921875 109.065429688 44.9990234375 109.065429688 44.8046875 c 0
 109.065429688 25.599609375 104.709960938 11.330078125 95.9990234375 1.9970703125 c 0
 87.25 -7.3779296875 76.7431640625 -12.0654296875 64.478515625 -12.0654296875 c 0
 63.66015625 -12.0654296875 62.833984375 -12.044921875 62 -12.0029296875 c 0
 48 -12.0029296875 38.5 -6.3359375 33.5 4.9970703125 c 0
 28.5 16.330078125 26 32.9970703125 26 54.9970703125 c 0
 26 68.330078125 27 119.997070312 29 209.997070312 c 0
 31 299.997070312 32.3330078125 378.6640625 33 445.997070312 c 0
 33.1669921875 462.83203125 33.25 479.5 33.25 496.001953125 c 0
 33.25 545.5 32.5 593.499023438 31 639.998046875 c 0
 30.904296875 641.903320312 30.8564453125 643.767578125 30.8564453125 645.590820312 c 0
 30.8564453125 656.528320312 32.5712890625 665.997070312 36 673.99609375 c 0
 40 683.329101562 45.6669921875 690.162109375 53 694.495117188 c 0
 60.3330078125 698.828125 68 701.828125 76 703.495117188 c 0
 84 705.162109375 92.6669921875 705.329101562 102 703.99609375 c 0
 130.666992188 703.99609375 148.666992188 691.663085938 156 666.99609375 c 0
 170 622.99609375 208.666992188 541.99609375 272 423.99609375 c 0
 335.333007812 305.99609375 389 210.663085938 433 137.99609375 c 1
 434.778320312 179.779296875 435.666992188 234.232421875 435.666992188 301.35546875 c 0
 435.666992188 334.904296875 435.4453125 371.618164062 435.000976562 411.497070312 c 0xd0
 433.66796875 531.1640625 430.66796875 609.997070312 426.000976562 647.997070312 c 0
 425.614257812 651.09375 425.420898438 654.096679688 425.420898438 657.005859375 c 0
 425.420898438 669.12890625 428.78125 679.625976562 435.501953125 688.497070312 c 0
 443.834960938 699.497070312 454.66796875 704.997070312 468.000976562 704.997070312 c 0
 475.333984375 704.997070312 481.666992188 704.1640625 487 702.497070312 c 0
 492.333007812 700.830078125 496.5 698.830078125 499.5 696.497070312 c 0
 502.5 694.1640625 505 690.331054688 507 684.998046875 c 0
 509 679.665039062 510.5 674.83203125 511.5 670.499023438 c 0
 512.5 666.166015625 513.666992188 659.333007812 515 650 c 0
 516.333007812 639.333007812 517.333007812 585.833007812 518 489.5 c 0xe0
 518.12109375 471.981445312 518.181640625 454.34765625 518.181640625 436.59765625 c 0
 518.181640625 356.741210938 516.954101562 274.541992188 514.5 190 c 0
 511.5 86.6669921875 506.333007812 27 499 11 c 0
 492.333007812 -5.6669921875 474 -14 444 -14 c 0xd0
EndSplineSet
EndChar

StartChar: O
Encoding: 79 79 47
Width: 543
GlyphClass: 2
Flags: MW
HStem: -24 83.998 636.997 81.001
VStem: 26.999 96.3855 420.499 96.0643
LayerCount: 2
Fore
SplineSet
239 -24 m 0
 197.666992188 -23.3330078125 160.666992188 -10.8369140625 128 13.49609375 c 0
 95.3330078125 37.8291015625 70.166015625 70.49609375 52.4990234375 111.49609375 c 0
 35.474609375 151.004882812 26.962890625 194.072265625 26.962890625 240.700195312 c 0
 26.962890625 242.4609375 26.974609375 244.2265625 26.9990234375 245.997070312 c 2
 26.9990234375 262.997070312 l 2
 26.9990234375 292.997070312 27.166015625 316.997070312 27.4990234375 334.997070312 c 0
 27.83203125 352.997070312 29.1650390625 376.997070312 31.498046875 406.997070312 c 0
 33.8310546875 436.997070312 37.8310546875 465.497070312 43.498046875 492.497070312 c 0
 49.1650390625 519.497070312 56.33203125 544.997070312 64.9990234375 568.997070312 c 0
 81.666015625 612.330078125 111.333007812 647.997070312 154 675.997070312 c 0
 196.666992188 703.997070312 244 717.997070312 296 717.997070312 c 0
 322.666992188 717.997070312 348.333984375 712.830078125 373.000976562 702.497070312 c 0
 397.66796875 692.1640625 419.66796875 677.331054688 439.000976562 657.998046875 c 0
 458.333984375 638.665039062 474.500976562 613.998046875 487.500976562 583.998046875 c 0
 500.500976562 553.998046875 508.66796875 520.331054688 512.000976562 482.998046875 c 0
 514.66796875 449.665039062 516.16796875 413.998046875 516.500976562 375.998046875 c 0
 516.54296875 371.251953125 516.563476562 366.498046875 516.563476562 361.736328125 c 0
 516.563476562 328.374023438 515.54296875 294.627929688 513.500976562 260.499023438 c 0
 511.16796875 221.499023438 506.66796875 190.666015625 500.000976562 167.999023438 c 0
 491.333984375 136.666015625 480.666992188 109.666015625 468 86.9990234375 c 0
 455.333007812 64.33203125 441.333007812 45.83203125 426 31.4990234375 c 0
 410.666992188 17.166015625 393 5.8330078125 373 -2.5 c 0
 353 -10.8330078125 332.5 -16.5 311.5 -19.5 c 0
 290.5 -22.5 266.333007812 -24 239 -24 c 0
239 59.99609375 m 0
 257 59.99609375 273.997070312 62.1640625 289.997070312 66.4970703125 c 0
 305.997070312 70.830078125 321.6640625 77.830078125 336.997070312 87.4970703125 c 0
 352.330078125 97.1640625 365.997070312 109.997070312 377.997070312 125.997070312 c 0
 389.997070312 141.997070312 399.330078125 160.6640625 405.997070312 181.997070312 c 0
 408.6640625 190.6640625 411.331054688 210.6640625 413.998046875 241.997070312 c 0
 416.665039062 273.330078125 418.83203125 310.663085938 420.499023438 353.99609375 c 0
 420.989257812 366.741210938 421.234375 379.428710938 421.234375 392.05859375 c 0
 421.234375 422.370117188 419.822265625 452.349609375 416.999023438 481.99609375 c 0
 412.999023438 525.99609375 398.83203125 562.829101562 374.499023438 592.49609375 c 0
 350.166015625 622.163085938 320.333007812 636.99609375 285 636.99609375 c 0
 249 636.99609375 218.833007812 623.829101562 194.5 597.49609375 c 0
 170.166992188 571.163085938 152.666992188 534.330078125 142 486.997070312 c 0
 129.58984375 433.408203125 123.384765625 371.466796875 123.384765625 301.171875 c 0
 123.384765625 288.389648438 123.58984375 275.331054688 124 261.99609375 c 0
 124.666992188 240.663085938 126.5 220.99609375 129.5 202.99609375 c 0
 132.5 184.99609375 136.666992188 166.99609375 142 148.99609375 c 0
 147.333007812 130.99609375 154.333007812 115.49609375 163 102.49609375 c 0
 171.666992188 89.49609375 182.5 79.1630859375 195.5 71.49609375 c 0
 208.5 63.8291015625 223 59.99609375 239 59.99609375 c 0
EndSplineSet
EndChar

StartChar: P
Encoding: 80 80 48
Width: 543
GlyphClass: 2
Flags: MW
HStem: -19.0771 21G 230.001 81.9374 630.003 80.998
VStem: 46.6644 94.3366 51.7401 102.314 415.997 92.0029
LayerCount: 2
Fore
SplineSet
154.053710938 21.7568359375 m 0xec
 154.053710938 8.837890625 148.53515625 -1.2421875 137.499023438 -8.4951171875 c 0
 126.765625 -15.548828125 114.762695312 -19.0751953125 101.490234375 -19.0751953125 c 0
 100.3359375 -19.0751953125 99.171875 -19.048828125 97.998046875 -18.9951171875 c 0
 83.998046875 -18.9951171875 72.498046875 -14.828125 63.498046875 -6.4951171875 c 0
 55.6591796875 0.7626953125 51.740234375 10.9287109375 51.740234375 24.0029296875 c 0xec
 51.740234375 25.939453125 51.826171875 27.939453125 51.998046875 30.00390625 c 0
 52.6650390625 40.6708984375 52.998046875 56.50390625 52.998046875 77.50390625 c 0
 52.998046875 98.50390625 52.8310546875 124.50390625 52.498046875 155.50390625 c 0
 52.1650390625 186.50390625 51.6650390625 216.50390625 50.998046875 245.50390625 c 0
 50.3310546875 274.50390625 49.498046875 310.00390625 48.498046875 352.00390625 c 0
 47.498046875 394.00390625 46.998046875 429.00390625 46.998046875 457.00390625 c 0
 46.775390625 471.455078125 46.6640625 487.463867188 46.6640625 505.029296875 c 0xf4
 46.6640625 540.134765625 47.1083984375 581.458984375 47.9970703125 629.002929688 c 0
 44.6640625 632.3359375 42.6640625 634.002929688 41.9970703125 634.002929688 c 0
 36.6640625 642.002929688 34.8310546875 650.169921875 36.498046875 658.502929688 c 0
 38.1650390625 666.8359375 41.83203125 674.3359375 47.4990234375 681.002929688 c 0
 53.166015625 687.669921875 59.3330078125 691.669921875 66 693.002929688 c 0
 90 698.3359375 125.166992188 702.668945312 171.5 706.001953125 c 0
 217.833007812 709.334960938 250.333007812 711.001953125 269 711.001953125 c 0
 314.333007812 711.001953125 354.833007812 703.001953125 390.5 687.001953125 c 0
 426.166992188 671.001953125 454.5 646.834960938 475.5 614.501953125 c 0
 496.5 582.168945312 507.333007812 543.668945312 508 499.001953125 c 0
 508 461.668945312 501.833007812 426.501953125 489.5 393.501953125 c 0
 477.166992188 360.501953125 460.5 332.001953125 439.5 308.001953125 c 0
 418.5 284.001953125 392.666992188 265.001953125 362 251.001953125 c 0
 331.333007812 237.001953125 298 230.001953125 262 230.001953125 c 0
 210 230.001953125 169 233.668945312 139 241.001953125 c 1
 140.333007812 213.001953125 142 186.168945312 144 160.501953125 c 0
 146 134.834960938 148 108.16796875 150 80.5009765625 c 0
 152.264648438 49.16796875 154.053710938 24.41796875 154.053710938 21.7568359375 c 0xec
268.999023438 630.005859375 m 0
 245.666015625 630.005859375 203.66796875 627.336914062 143.000976562 622.00390625 c 1
 143.000976562 608.670898438 142.333984375 584.00390625 141.000976562 548.00390625 c 0xf4
 139.66796875 512.00390625 138.66796875 475.00390625 138.000976562 437.00390625 c 0
 137.333984375 399.00390625 137.000976562 362.00390625 137.000976562 326.00390625 c 1
 162.625 316.62890625 192.350585938 311.94140625 226.177734375 311.94140625 c 0
 228.43359375 311.94140625 230.708007812 311.961914062 233.000976562 312.00390625 c 0
 252.333984375 312.00390625 269.833984375 313.336914062 285.500976562 316.00390625 c 0
 301.16796875 318.670898438 314.834960938 322.337890625 326.501953125 327.004882812 c 0
 338.168945312 331.671875 348.668945312 337.838867188 358.001953125 345.505859375 c 0
 367.334960938 353.172851562 375.16796875 360.83984375 381.500976562 368.506835938 c 0
 387.833984375 376.173828125 393.166992188 385.173828125 397.5 395.506835938 c 0
 401.833007812 405.83984375 405.166015625 415.172851562 407.499023438 423.505859375 c 0
 409.83203125 431.838867188 411.665039062 441.505859375 412.998046875 452.505859375 c 0
 414.331054688 463.505859375 415.1640625 472.505859375 415.497070312 479.505859375 c 0
 415.830078125 486.505859375 415.997070312 495.005859375 415.997070312 505.005859375 c 0
 415.997070312 523.672851562 412.497070312 540.505859375 405.497070312 555.505859375 c 0
 398.497070312 570.505859375 389.830078125 582.505859375 379.497070312 591.505859375 c 0
 369.1640625 600.505859375 357.331054688 608.005859375 343.998046875 614.005859375 c 0
 330.665039062 620.005859375 317.83203125 624.172851562 305.499023438 626.505859375 c 0
 293.166015625 628.838867188 280.999023438 630.005859375 268.999023438 630.005859375 c 0
EndSplineSet
EndChar

StartChar: Q
Encoding: 81 81 49
Width: 543
GlyphClass: 2
Flags: MW
HStem: -24.1963 84.2021 637.005 80.9971
VStem: 23.0695 95.6075 227.858 73.1323 421.101 93.3379
LayerCount: 2
Fore
SplineSet
498 -206 m 0
 490.890625 -210.443359375 483.481445312 -212.6640625 475.77734375 -212.6640625 c 0
 471.921875 -212.6640625 467.993164062 -212.108398438 463.991210938 -210.997070312 c 0
 451.991210938 -207.6640625 441.32421875 -199.997070312 431.991210938 -187.997070312 c 0
 422.658203125 -175.997070312 406.658203125 -153.6640625 383.991210938 -120.997070312 c 0
 361.32421875 -88.330078125 339.32421875 -54.9970703125 317.991210938 -20.9970703125 c 1
 304.125976562 -23.130859375 289.194335938 -24.197265625 273.1953125 -24.197265625 c 0
 269.194335938 -24.197265625 265.125976562 -24.130859375 260.991210938 -23.9970703125 c 0
 231.658203125 -23.9970703125 204.325195312 -19.330078125 178.9921875 -9.9970703125 c 0
 153.659179688 -0.6640625 131.826171875 12.3359375 113.493164062 29.0029296875 c 0
 95.16015625 45.669921875 79.3271484375 65.5029296875 65.994140625 88.5029296875 c 0
 52.6611328125 111.502929688 42.6611328125 136.169921875 35.994140625 162.502929688 c 0
 29.3271484375 188.8359375 25.3271484375 216.668945312 23.994140625 246.001953125 c 0
 23.3779296875 263.084960938 23.0693359375 279.766601562 23.0693359375 296.046875 c 0
 23.0693359375 403.024414062 36.3779296875 492.67578125 62.994140625 565.001953125 c 0
 80.3271484375 609.001953125 109.994140625 645.501953125 151.994140625 674.501953125 c 0
 193.994140625 703.501953125 240.994140625 718.001953125 292.994140625 718.001953125 c 0
 320.327148438 718.001953125 345.827148438 713.334960938 369.494140625 704.001953125 c 0
 393.161132812 694.668945312 414.661132812 681.001953125 433.994140625 663.001953125 c 0
 453.327148438 645.001953125 469.494140625 620.668945312 482.494140625 590.001953125 c 0
 495.494140625 559.334960938 504.327148438 523.66796875 508.994140625 483.000976562 c 0
 512.624023438 447.220703125 514.439453125 405.2890625 514.439453125 357.20703125 c 0
 514.439453125 343.473632812 514.291015625 329.23828125 513.995117188 314.500976562 c 0
 512.662109375 248.16796875 508.329101562 197.66796875 500.99609375 163.000976562 c 0
 486.99609375 91.0009765625 454.329101562 39.66796875 402.99609375 9.0009765625 c 1
 416.329101562 -10.33203125 430.49609375 -29.9990234375 445.49609375 -49.9990234375 c 0
 460.49609375 -69.9990234375 474.829101562 -88.666015625 488.49609375 -105.999023438 c 0
 502.163085938 -123.33203125 511.330078125 -134.999023438 515.997070312 -140.999023438 c 0
 520.6640625 -148.33203125 522.331054688 -156.33203125 520.998046875 -164.999023438 c 0
 519.665039062 -173.666015625 516.83203125 -181.833007812 512.499023438 -189.5 c 0
 508.166015625 -197.166992188 503.333007812 -202.666992188 498 -206 c 0
120.991210938 262.004882812 m 0
 122.991210938 224.004882812 130.157226562 189.837890625 142.490234375 159.504882812 c 0
 154.823242188 129.171875 171.323242188 105.004882812 191.990234375 87.0048828125 c 0
 212.657226562 69.0048828125 235.657226562 60.0048828125 260.990234375 60.0048828125 c 2
 270.990234375 60.0048828125 l 1
 254.990234375 90.0048828125 243.657226562 113.337890625 236.990234375 130.004882812 c 0
 230.90234375 146.33203125 227.858398438 160.706054688 227.858398438 173.127929688 c 0
 227.858398438 190.630859375 233.90234375 204.256835938 245.990234375 214.005859375 c 0
 251.990234375 218.672851562 258.490234375 221.505859375 265.490234375 222.505859375 c 0
 272.490234375 223.505859375 279.157226562 221.505859375 285.490234375 216.505859375 c 0
 291.823242188 211.505859375 296.990234375 204.005859375 300.990234375 194.005859375 c 0
 312.990234375 160.672851562 330.323242188 124.33984375 352.990234375 85.0068359375 c 1
 381.657226562 104.33984375 400.657226562 135.33984375 409.990234375 178.006835938 c 0
 411.990234375 188.006835938 414.157226562 208.173828125 416.490234375 238.506835938 c 0
 418.823242188 268.83984375 420.323242188 306.672851562 420.990234375 352.005859375 c 0
 421.064453125 357.044921875 421.1015625 362.059570312 421.1015625 367.049804688 c 0
 421.1015625 406.948242188 418.731445312 445.266601562 413.991210938 482.004882812 c 0
 408.658203125 529.337890625 394.158203125 567.004882812 370.491210938 595.004882812 c 0
 346.82421875 623.004882812 317.32421875 637.004882812 281.991210938 637.004882812 c 0
 245.32421875 637.004882812 214.82421875 624.004882812 190.491210938 598.004882812 c 0
 166.158203125 572.004882812 148.658203125 535.671875 137.991210938 489.004882812 c 0
 125.115234375 437.5 118.676757812 382.5 118.676757812 324.004882812 c 0
 118.676757812 303.756835938 119.448242188 283.08984375 120.991210938 262.004882812 c 0
EndSplineSet
EndChar

StartChar: R
Encoding: 82 82 50
Width: 543
GlyphClass: 2
Flags: MW
HStem: -19.0801 21G 694.06 20G
VStem: 28.002 95 32.4565 102.598 32.502 93.498 36.002 81 413.002 92
LayerCount: 2
Fore
SplineSet
135.053710938 21.755859375 m 0xd2
 135.053710938 8.8369140625 129.5390625 -1.248046875 118.502929688 -8.5 c 0
 107.76953125 -15.5537109375 95.4853515625 -19.080078125 81.6494140625 -19.080078125 c 0
 80.4453125 -19.080078125 79.2294921875 -19.0537109375 78.001953125 -19 c 0
 64.001953125 -19 52.501953125 -14.8330078125 43.501953125 -6.5 c 0
 36.138671875 0.318359375 32.45703125 9.703125 32.45703125 21.6533203125 c 0xd2
 32.45703125 24.30859375 32.638671875 27.0908203125 33.001953125 30 c 0
 35.6689453125 64.6669921875 37.001953125 94.1669921875 37.001953125 118.5 c 0
 37.001953125 142.833007812 36.6689453125 202.666015625 36.001953125 297.999023438 c 0xc6
 36.001953125 310.666015625 36.6689453125 337.833007812 38.001953125 379.5 c 0
 38.66796875 400.333984375 39.0009765625 420.625976562 39.0009765625 440.375976562 c 0
 39.0009765625 460.125976562 38.66796875 479.333984375 38.001953125 498 c 0
 37.3349609375 520.666992188 35.501953125 551.333984375 32.501953125 590.000976562 c 0xca
 29.501953125 628.66796875 28.001953125 652.000976562 28.001953125 660.000976562 c 2
 28.001953125 666.000976562 l 2xe2
 27.95703125 666.845703125 27.9345703125 667.68359375 27.9345703125 668.513671875 c 0
 27.9345703125 680.127929688 32.2900390625 690.290039062 41.0009765625 699.000976562 c 0
 49.158203125 709.040039062 60.267578125 714.059570312 74.3291015625 714.059570312 c 0
 75.2080078125 714.059570312 76.0986328125 714.040039062 77.0009765625 714.000976562 c 0
 90.333984375 714.000976562 101.000976562 711.333984375 109.000976562 706.000976562 c 1
 164.333984375 703.333984375 214.500976562 696.166992188 259.500976562 684.5 c 0
 304.500976562 672.833007812 342.000976562 658.333007812 372.000976562 641 c 0
 402.000976562 623.666992188 427.333984375 604 448.000976562 582 c 0
 468.66796875 560 483.334960938 538 492.001953125 516 c 0
 500.668945312 494 505.001953125 471.666992188 505.001953125 449 c 0
 505.001953125 432.333007812 502.834960938 417 498.501953125 403 c 0
 494.168945312 389 488.001953125 376.833007812 480.001953125 366.5 c 0
 472.001953125 356.166992188 461.668945312 347 449.001953125 339 c 0
 436.334960938 331 422.834960938 324.166992188 408.501953125 318.5 c 0
 394.168945312 312.833007812 377.168945312 307.833007812 357.501953125 303.5 c 0
 337.834960938 299.166992188 318.334960938 295.833984375 299.001953125 293.500976562 c 0
 279.668945312 291.16796875 258.001953125 289.000976562 234.001953125 287.000976562 c 1
 301.334960938 252.333984375 360.66796875 211.833984375 412.000976562 165.500976562 c 0
 463.333984375 119.16796875 497.000976562 79.66796875 513.000976562 47.0009765625 c 0
 515.000976562 41.0009765625 516.000976562 35.2509765625 516.000976562 29.7509765625 c 0
 516.000976562 24.2509765625 515.000976562 19.0009765625 513.000976562 14.0009765625 c 0
 509.000976562 4.0009765625 502.66796875 -3.9990234375 494.000976562 -9.9990234375 c 0
 486.66796875 -15.3759765625 478.88671875 -18.064453125 470.657226562 -18.064453125 c 0
 467.6640625 -18.064453125 464.611328125 -17.708984375 461.5 -16.998046875 c 0
 449.833007812 -14.3310546875 439 -6.3310546875 429 7.001953125 c 0
 418.333007812 21.001953125 403.166015625 38.1689453125 383.499023438 58.501953125 c 0
 363.83203125 78.8349609375 340.165039062 101.501953125 312.498046875 126.501953125 c 0
 284.831054688 151.501953125 253.331054688 176.168945312 217.998046875 200.501953125 c 0
 182.665039062 224.834960938 148.33203125 244.334960938 114.999023438 259.001953125 c 1
 116.999023438 220.334960938 120.666015625 174.66796875 125.999023438 122.000976562 c 0xca
 128.875 93.6025390625 135.053710938 31.578125 135.053710938 21.755859375 c 0xd2
128.00390625 498 m 0
 128.00390625 490.666992188 127.505859375 480.833984375 126.505859375 468.500976562 c 0
 125.505859375 456.16796875 124.672851562 445.16796875 124.005859375 435.500976562 c 0
 123.338867188 425.833984375 122.171875 412.500976562 120.504882812 395.500976562 c 0
 118.837890625 378.500976562 117.670898438 366.333984375 117.00390625 359.000976562 c 1xc6
 125.00390625 357.4765625 135.2890625 356.71484375 147.859375 356.71484375 c 0
 157.288085938 356.71484375 168.002929688 357.143554688 180.00390625 358.000976562 c 0
 207.336914062 359.333984375 230.336914062 360.833984375 249.00390625 362.500976562 c 0
 267.670898438 364.16796875 286.50390625 366.500976562 305.50390625 369.500976562 c 0
 324.50390625 372.500976562 340.00390625 376.000976562 352.00390625 380.000976562 c 0
 364.00390625 384.000976562 375.00390625 389.000976562 385.00390625 395.000976562 c 0
 395.00390625 401.000976562 402.170898438 408.16796875 406.50390625 416.500976562 c 0
 410.836914062 424.833984375 413.00390625 434.333984375 413.00390625 445.000976562 c 0
 413.00390625 463.66796875 406.170898438 481.66796875 392.50390625 499.000976562 c 0
 378.836914062 516.333984375 361.50390625 531.666992188 340.50390625 545 c 0
 319.50390625 558.333007812 295.670898438 570.5 269.00390625 581.5 c 0
 242.336914062 592.5 216.836914062 601.333007812 192.50390625 608 c 0
 168.170898438 614.666992188 145.00390625 620 123.00390625 624 c 1xe2
 125.00390625 575.333007812 126.670898438 533.333007812 128.00390625 498 c 0
EndSplineSet
EndChar

StartChar: S
Encoding: 83 83 51
Width: 543
GlyphClass: 2
Flags: MW
HStem: -29 85<220.663 241.996 220.663 245.333> 645.001 79.001
VStem: 51.998 100.001 423.996 99.0029
LayerCount: 2
Fore
SplineSet
31 66 m 0
 24.560546875 79.3740234375 21.3388671875 90.9111328125 21.3388671875 100.60546875 c 0
 21.3388671875 103.958984375 21.724609375 107.091796875 22.4951171875 110.00390625 c 0
 25.4951171875 121.336914062 32.662109375 130.00390625 43.9951171875 136.00390625 c 0
 51.9951171875 139.336914062 58.328125 141.669921875 62.9951171875 143.002929688 c 0
 67.662109375 144.3359375 72.8291015625 144.668945312 78.49609375 144.001953125 c 0
 84.1630859375 143.334960938 89.6630859375 140.66796875 94.99609375 136.000976562 c 0
 100.329101562 131.333984375 106.329101562 124.666992188 112.99609375 116 c 0
 124.99609375 98 141.49609375 83.5 162.49609375 72.5 c 0
 183.49609375 61.5 207.329101562 56 233.99609375 56 c 0
 249.99609375 56 266.663085938 58.1669921875 283.99609375 62.5 c 0
 301.329101562 66.8330078125 318.329101562 73.5 334.99609375 82.5 c 0
 351.663085938 91.5 366.663085938 102 379.99609375 114 c 0
 393.329101562 126 403.99609375 140.166992188 411.99609375 156.5 c 0
 419.99609375 172.833007812 423.99609375 190 423.99609375 208 c 0
 423.99609375 218 423.329101562 227 421.99609375 235 c 0
 420.663085938 243 418.163085938 251.666992188 414.49609375 261 c 0
 410.829101562 270.333007812 405.829101562 278.833007812 399.49609375 286.5 c 0
 393.163085938 294.166992188 384.330078125 301.833984375 372.997070312 309.500976562 c 0
 361.6640625 317.16796875 348.331054688 324.000976562 332.998046875 330.000976562 c 0
 317.665039062 336.000976562 298.998046875 341.500976562 276.998046875 346.500976562 c 0
 254.998046875 351.500976562 230.331054688 355.333984375 202.998046875 358.000976562 c 0
 178.998046875 360.66796875 157.165039062 367.000976562 137.498046875 377.000976562 c 0
 117.831054688 387.000976562 101.998046875 399.16796875 89.998046875 413.500976562 c 0
 77.998046875 427.833984375 68.6650390625 442.833984375 61.998046875 458.500976562 c 0
 55.3310546875 474.16796875 51.998046875 490.000976562 51.998046875 506.000976562 c 0
 51.998046875 528.66796875 55.8310546875 550.500976562 63.498046875 571.500976562 c 0
 71.1650390625 592.500976562 82.998046875 612.333984375 98.998046875 631.000976562 c 0
 114.998046875 649.66796875 134.331054688 665.834960938 156.998046875 679.501953125 c 0
 179.665039062 693.168945312 206.83203125 704.001953125 238.499023438 712.001953125 c 0
 270.166015625 720.001953125 303.999023438 724.001953125 339.999023438 724.001953125 c 0
 357.999023438 724.001953125 382.666015625 722.501953125 413.999023438 719.501953125 c 0
 445.33203125 716.501953125 466.665039062 712.668945312 477.998046875 708.001953125 c 0
 490.665039062 703.334960938 499.83203125 696.001953125 505.499023438 686.001953125 c 0
 510.086914062 677.90625 512.380859375 669.373046875 512.380859375 660.403320312 c 0
 512.380859375 658.293945312 512.25390625 656.16015625 512 654.001953125 c 0
 511.333007812 646.001953125 508.666015625 639.668945312 503.999023438 635.001953125 c 0
 499.33203125 630.334960938 493.665039062 627.66796875 486.998046875 627.000976562 c 0
 480.331054688 626.333984375 474.331054688 626.166992188 468.998046875 626.5 c 0
 463.665039062 626.833007812 457.998046875 628 451.998046875 630 c 0
 450.665039062 630 448.665039062 630.666992188 445.998046875 632 c 0
 433.998046875 634.666992188 424.498046875 636.833984375 417.498046875 638.500976562 c 0
 410.498046875 640.16796875 399.331054688 641.66796875 383.998046875 643.000976562 c 0
 368.665039062 644.333984375 351.33203125 645.000976562 331.999023438 645.000976562 c 0
 301.33203125 645.000976562 272.499023438 640.500976562 245.499023438 631.500976562 c 0
 218.499023438 622.500976562 196.166015625 609.000976562 178.499023438 591.000976562 c 0
 160.83203125 573.000976562 151.999023438 553.000976562 151.999023438 531.000976562 c 0
 151.999023438 505.000976562 163.33203125 483.000976562 185.999023438 465.000976562 c 0
 208.666015625 447.000976562 240.666015625 437.333984375 281.999023438 436.000976562 c 0
 319.33203125 434.000976562 352.33203125 428.16796875 380.999023438 418.500976562 c 0
 409.666015625 408.833984375 432.666015625 397.166992188 449.999023438 383.5 c 0
 467.33203125 369.833007812 481.83203125 353.833007812 493.499023438 335.5 c 0
 505.166015625 317.166992188 512.999023438 299 516.999023438 281 c 0
 520.999023438 263 522.999023438 244.333007812 522.999023438 225 c 0
 522.999023438 194.333007812 517.83203125 165.5 507.499023438 138.5 c 0
 497.166015625 111.5 482.833007812 87.8330078125 464.5 67.5 c 0
 446.166992188 47.1669921875 424.666992188 29.6669921875 400 15 c 0
 375.333007812 0.3330078125 348.5 -10.6669921875 319.5 -18 c 0
 290.5 -25.3330078125 260.666992188 -29 230 -29 c 0
 183.333007812 -29 142 -19.8330078125 106 -1.5 c 0
 70 16.8330078125 45 39.3330078125 31 66 c 0
EndSplineSet
EndChar

StartChar: T
Encoding: 84 84 52
Width: 543
GlyphClass: 2
Flags: MW
HStem: -13.0725 21G 621 80
VStem: 223.865 100.135 232.731 103.269
LayerCount: 2
Fore
SplineSet
336 33 m 0xd0
 334.666992188 19 327.997070312 7.6630859375 315.997070312 -1.00390625 c 0
 304.854492188 -9.0517578125 292.849609375 -13.0751953125 279.982421875 -13.0751953125 c 0
 278.9921875 -13.0751953125 277.997070312 -13.0517578125 276.997070312 -13.00390625 c 0
 263.6640625 -13.00390625 252.6640625 -8.50390625 243.997070312 0.49609375 c 0
 236.485351562 8.296875 232.729492188 18.9765625 232.729492188 32.5361328125 c 0xd0
 232.729492188 34.6220703125 232.818359375 36.775390625 232.99609375 38.9970703125 c 0
 233.627929688 48.470703125 233.943359375 64.208984375 233.943359375 86.212890625 c 0
 233.943359375 133.891601562 232.4609375 210.986328125 229.49609375 317.498046875 c 0
 225.741210938 452.399414062 223.86328125 546.37109375 223.86328125 599.413085938 c 0
 223.86328125 607.578125 223.908203125 614.7734375 223.997070312 620.999023438 c 1
 136.6640625 624.999023438 86.3310546875 627.999023438 72.998046875 629.999023438 c 0
 23.6416015625 637.741210938 20.9267578125 659.939453125 20.9267578125 671.694335938 c 0
 20.9267578125 683.279296875 24.9501953125 693.713867188 32.998046875 702.999023438 c 0
 39.498046875 710.499023438 48.435546875 714.249023438 59.810546875 714.249023438 c 0
 63.6025390625 714.249023438 67.6650390625 713.83203125 71.998046875 712.999023438 c 0
 108.665039062 706.999023438 243.998046875 702.999023438 477.998046875 700.999023438 c 0
 493.998046875 700.999023438 505.331054688 696.999023438 511.998046875 688.999023438 c 0
 518.665039062 680.999023438 522.33203125 671.33203125 522.999023438 659.999023438 c 0
 522.999023438 646.666015625 519.166015625 634.999023438 511.499023438 624.999023438 c 0
 504.734375 616.17578125 494.725585938 611.764648438 481.47265625 611.764648438 c 0
 479.706054688 611.764648438 477.881835938 611.842773438 476 612 c 0
 470.666992188 612 420 613.666992188 324 617 c 1xe0
 324.666992188 481 328.666992188 286.333007812 336 33 c 0xd0
EndSplineSet
EndChar

